%TF.GenerationSoftware,KiCad,Pcbnew,(6.0.10)*%
%TF.CreationDate,2023-02-03T08:49:19+00:00*%
%TF.ProjectId,Radar,52616461-722e-46b6-9963-61645f706362,rev?*%
%TF.SameCoordinates,Original*%
%TF.FileFunction,Legend,Top*%
%TF.FilePolarity,Positive*%
%FSLAX46Y46*%
G04 Gerber Fmt 4.6, Leading zero omitted, Abs format (unit mm)*
G04 Created by KiCad (PCBNEW (6.0.10)) date 2023-02-03 08:49:19*
%MOMM*%
%LPD*%
G01*
G04 APERTURE LIST*
%ADD10C,0.150000*%
%ADD11C,0.125000*%
%ADD12C,0.120000*%
%ADD13C,0.100000*%
G04 APERTURE END LIST*
D10*
X152440000Y-67070000D02*
X167440000Y-67070000D01*
X167440000Y-67070000D02*
X167440000Y-74570000D01*
X167440000Y-74570000D02*
X152440000Y-74570000D01*
X152440000Y-74570000D02*
X152440000Y-67070000D01*
D11*
X169808630Y-122576190D02*
X169641964Y-122338095D01*
X169522916Y-122576190D02*
X169522916Y-122076190D01*
X169713392Y-122076190D01*
X169761011Y-122100000D01*
X169784821Y-122123809D01*
X169808630Y-122171428D01*
X169808630Y-122242857D01*
X169784821Y-122290476D01*
X169761011Y-122314285D01*
X169713392Y-122338095D01*
X169522916Y-122338095D01*
X169975297Y-122576190D02*
X170237202Y-122242857D01*
X169975297Y-122242857D02*
X170237202Y-122576190D01*
D10*
X169153333Y-117194761D02*
X169296190Y-117242380D01*
X169534285Y-117242380D01*
X169629523Y-117194761D01*
X169677142Y-117147142D01*
X169724761Y-117051904D01*
X169724761Y-116956666D01*
X169677142Y-116861428D01*
X169629523Y-116813809D01*
X169534285Y-116766190D01*
X169343809Y-116718571D01*
X169248571Y-116670952D01*
X169200952Y-116623333D01*
X169153333Y-116528095D01*
X169153333Y-116432857D01*
X169200952Y-116337619D01*
X169248571Y-116290000D01*
X169343809Y-116242380D01*
X169581904Y-116242380D01*
X169724761Y-116290000D01*
X170010476Y-116575714D02*
X170391428Y-116575714D01*
X170153333Y-116242380D02*
X170153333Y-117099523D01*
X170200952Y-117194761D01*
X170296190Y-117242380D01*
X170391428Y-117242380D01*
X171153333Y-117242380D02*
X171153333Y-116718571D01*
X171105714Y-116623333D01*
X171010476Y-116575714D01*
X170820000Y-116575714D01*
X170724761Y-116623333D01*
X171153333Y-117194761D02*
X171058095Y-117242380D01*
X170820000Y-117242380D01*
X170724761Y-117194761D01*
X170677142Y-117099523D01*
X170677142Y-117004285D01*
X170724761Y-116909047D01*
X170820000Y-116861428D01*
X171058095Y-116861428D01*
X171153333Y-116813809D01*
X171486666Y-116575714D02*
X171867619Y-116575714D01*
X171629523Y-116242380D02*
X171629523Y-117099523D01*
X171677142Y-117194761D01*
X171772380Y-117242380D01*
X171867619Y-117242380D01*
X172629523Y-116575714D02*
X172629523Y-117242380D01*
X172200952Y-116575714D02*
X172200952Y-117099523D01*
X172248571Y-117194761D01*
X172343809Y-117242380D01*
X172486666Y-117242380D01*
X172581904Y-117194761D01*
X172629523Y-117147142D01*
X173058095Y-117194761D02*
X173153333Y-117242380D01*
X173343809Y-117242380D01*
X173439047Y-117194761D01*
X173486666Y-117099523D01*
X173486666Y-117051904D01*
X173439047Y-116956666D01*
X173343809Y-116909047D01*
X173200952Y-116909047D01*
X173105714Y-116861428D01*
X173058095Y-116766190D01*
X173058095Y-116718571D01*
X173105714Y-116623333D01*
X173200952Y-116575714D01*
X173343809Y-116575714D01*
X173439047Y-116623333D01*
D11*
X174125833Y-122566190D02*
X174125833Y-122066190D01*
X174292500Y-122423333D01*
X174459166Y-122066190D01*
X174459166Y-122566190D01*
X174982976Y-122518571D02*
X174959166Y-122542380D01*
X174887738Y-122566190D01*
X174840119Y-122566190D01*
X174768690Y-122542380D01*
X174721071Y-122494761D01*
X174697261Y-122447142D01*
X174673452Y-122351904D01*
X174673452Y-122280476D01*
X174697261Y-122185238D01*
X174721071Y-122137619D01*
X174768690Y-122090000D01*
X174840119Y-122066190D01*
X174887738Y-122066190D01*
X174959166Y-122090000D01*
X174982976Y-122113809D01*
X156023333Y-70643690D02*
X156023333Y-70143690D01*
X156142380Y-70143690D01*
X156213809Y-70167500D01*
X156261428Y-70215119D01*
X156285238Y-70262738D01*
X156309047Y-70357976D01*
X156309047Y-70429404D01*
X156285238Y-70524642D01*
X156261428Y-70572261D01*
X156213809Y-70619880D01*
X156142380Y-70643690D01*
X156023333Y-70643690D01*
X156594761Y-70643690D02*
X156547142Y-70619880D01*
X156523333Y-70596071D01*
X156499523Y-70548452D01*
X156499523Y-70405595D01*
X156523333Y-70357976D01*
X156547142Y-70334166D01*
X156594761Y-70310357D01*
X156666190Y-70310357D01*
X156713809Y-70334166D01*
X156737619Y-70357976D01*
X156761428Y-70405595D01*
X156761428Y-70548452D01*
X156737619Y-70596071D01*
X156713809Y-70619880D01*
X156666190Y-70643690D01*
X156594761Y-70643690D01*
X156975714Y-70310357D02*
X156975714Y-70810357D01*
X156975714Y-70334166D02*
X157023333Y-70310357D01*
X157118571Y-70310357D01*
X157166190Y-70334166D01*
X157190000Y-70357976D01*
X157213809Y-70405595D01*
X157213809Y-70548452D01*
X157190000Y-70596071D01*
X157166190Y-70619880D01*
X157118571Y-70643690D01*
X157023333Y-70643690D01*
X156975714Y-70619880D01*
X157428095Y-70310357D02*
X157428095Y-70810357D01*
X157428095Y-70334166D02*
X157475714Y-70310357D01*
X157570952Y-70310357D01*
X157618571Y-70334166D01*
X157642380Y-70357976D01*
X157666190Y-70405595D01*
X157666190Y-70548452D01*
X157642380Y-70596071D01*
X157618571Y-70619880D01*
X157570952Y-70643690D01*
X157475714Y-70643690D01*
X157428095Y-70619880D01*
X157951904Y-70643690D02*
X157904285Y-70619880D01*
X157880476Y-70572261D01*
X157880476Y-70143690D01*
X158332857Y-70619880D02*
X158285238Y-70643690D01*
X158190000Y-70643690D01*
X158142380Y-70619880D01*
X158118571Y-70572261D01*
X158118571Y-70381785D01*
X158142380Y-70334166D01*
X158190000Y-70310357D01*
X158285238Y-70310357D01*
X158332857Y-70334166D01*
X158356666Y-70381785D01*
X158356666Y-70429404D01*
X158118571Y-70477023D01*
X158570952Y-70643690D02*
X158570952Y-70310357D01*
X158570952Y-70405595D02*
X158594761Y-70357976D01*
X158618571Y-70334166D01*
X158666190Y-70310357D01*
X158713809Y-70310357D01*
X159261428Y-70643690D02*
X159261428Y-70143690D01*
X159380476Y-70143690D01*
X159451904Y-70167500D01*
X159499523Y-70215119D01*
X159523333Y-70262738D01*
X159547142Y-70357976D01*
X159547142Y-70429404D01*
X159523333Y-70524642D01*
X159499523Y-70572261D01*
X159451904Y-70619880D01*
X159380476Y-70643690D01*
X159261428Y-70643690D01*
X159951904Y-70619880D02*
X159904285Y-70643690D01*
X159809047Y-70643690D01*
X159761428Y-70619880D01*
X159737619Y-70572261D01*
X159737619Y-70381785D01*
X159761428Y-70334166D01*
X159809047Y-70310357D01*
X159904285Y-70310357D01*
X159951904Y-70334166D01*
X159975714Y-70381785D01*
X159975714Y-70429404D01*
X159737619Y-70477023D01*
X160190000Y-70643690D02*
X160190000Y-70143690D01*
X160190000Y-70334166D02*
X160237619Y-70310357D01*
X160332857Y-70310357D01*
X160380476Y-70334166D01*
X160404285Y-70357976D01*
X160428095Y-70405595D01*
X160428095Y-70548452D01*
X160404285Y-70596071D01*
X160380476Y-70619880D01*
X160332857Y-70643690D01*
X160237619Y-70643690D01*
X160190000Y-70619880D01*
X160856666Y-70310357D02*
X160856666Y-70643690D01*
X160642380Y-70310357D02*
X160642380Y-70572261D01*
X160666190Y-70619880D01*
X160713809Y-70643690D01*
X160785238Y-70643690D01*
X160832857Y-70619880D01*
X160856666Y-70596071D01*
X161309047Y-70310357D02*
X161309047Y-70715119D01*
X161285238Y-70762738D01*
X161261428Y-70786547D01*
X161213809Y-70810357D01*
X161142380Y-70810357D01*
X161094761Y-70786547D01*
X161309047Y-70619880D02*
X161261428Y-70643690D01*
X161166190Y-70643690D01*
X161118571Y-70619880D01*
X161094761Y-70596071D01*
X161070952Y-70548452D01*
X161070952Y-70405595D01*
X161094761Y-70357976D01*
X161118571Y-70334166D01*
X161166190Y-70310357D01*
X161261428Y-70310357D01*
X161309047Y-70334166D01*
X162094761Y-70381785D02*
X162166190Y-70405595D01*
X162190000Y-70429404D01*
X162213809Y-70477023D01*
X162213809Y-70548452D01*
X162190000Y-70596071D01*
X162166190Y-70619880D01*
X162118571Y-70643690D01*
X161928095Y-70643690D01*
X161928095Y-70143690D01*
X162094761Y-70143690D01*
X162142380Y-70167500D01*
X162166190Y-70191309D01*
X162190000Y-70238928D01*
X162190000Y-70286547D01*
X162166190Y-70334166D01*
X162142380Y-70357976D01*
X162094761Y-70381785D01*
X161928095Y-70381785D01*
X162499523Y-70643690D02*
X162451904Y-70619880D01*
X162428095Y-70596071D01*
X162404285Y-70548452D01*
X162404285Y-70405595D01*
X162428095Y-70357976D01*
X162451904Y-70334166D01*
X162499523Y-70310357D01*
X162570952Y-70310357D01*
X162618571Y-70334166D01*
X162642380Y-70357976D01*
X162666190Y-70405595D01*
X162666190Y-70548452D01*
X162642380Y-70596071D01*
X162618571Y-70619880D01*
X162570952Y-70643690D01*
X162499523Y-70643690D01*
X163094761Y-70643690D02*
X163094761Y-70381785D01*
X163070952Y-70334166D01*
X163023333Y-70310357D01*
X162928095Y-70310357D01*
X162880476Y-70334166D01*
X163094761Y-70619880D02*
X163047142Y-70643690D01*
X162928095Y-70643690D01*
X162880476Y-70619880D01*
X162856666Y-70572261D01*
X162856666Y-70524642D01*
X162880476Y-70477023D01*
X162928095Y-70453214D01*
X163047142Y-70453214D01*
X163094761Y-70429404D01*
X163332857Y-70643690D02*
X163332857Y-70310357D01*
X163332857Y-70405595D02*
X163356666Y-70357976D01*
X163380476Y-70334166D01*
X163428095Y-70310357D01*
X163475714Y-70310357D01*
X163856666Y-70643690D02*
X163856666Y-70143690D01*
X163856666Y-70619880D02*
X163809047Y-70643690D01*
X163713809Y-70643690D01*
X163666190Y-70619880D01*
X163642380Y-70596071D01*
X163618571Y-70548452D01*
X163618571Y-70405595D01*
X163642380Y-70357976D01*
X163666190Y-70334166D01*
X163713809Y-70310357D01*
X163809047Y-70310357D01*
X163856666Y-70334166D01*
X158951904Y-71448690D02*
X158785238Y-71210595D01*
X158666190Y-71448690D02*
X158666190Y-70948690D01*
X158856666Y-70948690D01*
X158904285Y-70972500D01*
X158928095Y-70996309D01*
X158951904Y-71043928D01*
X158951904Y-71115357D01*
X158928095Y-71162976D01*
X158904285Y-71186785D01*
X158856666Y-71210595D01*
X158666190Y-71210595D01*
X159356666Y-71424880D02*
X159309047Y-71448690D01*
X159213809Y-71448690D01*
X159166190Y-71424880D01*
X159142380Y-71377261D01*
X159142380Y-71186785D01*
X159166190Y-71139166D01*
X159213809Y-71115357D01*
X159309047Y-71115357D01*
X159356666Y-71139166D01*
X159380476Y-71186785D01*
X159380476Y-71234404D01*
X159142380Y-71282023D01*
X159547142Y-71115357D02*
X159666190Y-71448690D01*
X159785238Y-71115357D01*
X159975714Y-71401071D02*
X159999523Y-71424880D01*
X159975714Y-71448690D01*
X159951904Y-71424880D01*
X159975714Y-71401071D01*
X159975714Y-71448690D01*
X159975714Y-71139166D02*
X159999523Y-71162976D01*
X159975714Y-71186785D01*
X159951904Y-71162976D01*
X159975714Y-71139166D01*
X159975714Y-71186785D01*
X160570952Y-71305833D02*
X160809047Y-71305833D01*
X160523333Y-71448690D02*
X160690000Y-70948690D01*
X160856666Y-71448690D01*
X160999523Y-71305833D02*
X161237619Y-71305833D01*
X160951904Y-71448690D02*
X161118571Y-70948690D01*
X161285238Y-71448690D01*
X172341011Y-122086190D02*
X172650535Y-122086190D01*
X172483869Y-122276666D01*
X172555297Y-122276666D01*
X172602916Y-122300476D01*
X172626726Y-122324285D01*
X172650535Y-122371904D01*
X172650535Y-122490952D01*
X172626726Y-122538571D01*
X172602916Y-122562380D01*
X172555297Y-122586190D01*
X172412440Y-122586190D01*
X172364821Y-122562380D01*
X172341011Y-122538571D01*
X172817202Y-122252857D02*
X172936250Y-122586190D01*
X173055297Y-122252857D01*
X173198154Y-122086190D02*
X173507678Y-122086190D01*
X173341011Y-122276666D01*
X173412440Y-122276666D01*
X173460059Y-122300476D01*
X173483869Y-122324285D01*
X173507678Y-122371904D01*
X173507678Y-122490952D01*
X173483869Y-122538571D01*
X173460059Y-122562380D01*
X173412440Y-122586190D01*
X173269583Y-122586190D01*
X173221964Y-122562380D01*
X173198154Y-122538571D01*
X167991011Y-122096190D02*
X168276726Y-122096190D01*
X168133869Y-122596190D02*
X168133869Y-122096190D01*
X168395773Y-122596190D02*
X168657678Y-122262857D01*
X168395773Y-122262857D02*
X168657678Y-122596190D01*
X171284821Y-122086190D02*
X171046726Y-122086190D01*
X171022916Y-122324285D01*
X171046726Y-122300476D01*
X171094345Y-122276666D01*
X171213392Y-122276666D01*
X171261011Y-122300476D01*
X171284821Y-122324285D01*
X171308630Y-122371904D01*
X171308630Y-122490952D01*
X171284821Y-122538571D01*
X171261011Y-122562380D01*
X171213392Y-122586190D01*
X171094345Y-122586190D01*
X171046726Y-122562380D01*
X171022916Y-122538571D01*
X171475297Y-122252857D02*
X171594345Y-122586190D01*
X171713392Y-122252857D01*
D10*
%TO.C,R9*%
X144327380Y-78826666D02*
X143851190Y-79160000D01*
X144327380Y-79398095D02*
X143327380Y-79398095D01*
X143327380Y-79017142D01*
X143375000Y-78921904D01*
X143422619Y-78874285D01*
X143517857Y-78826666D01*
X143660714Y-78826666D01*
X143755952Y-78874285D01*
X143803571Y-78921904D01*
X143851190Y-79017142D01*
X143851190Y-79398095D01*
X144327380Y-78350476D02*
X144327380Y-78160000D01*
X144279761Y-78064761D01*
X144232142Y-78017142D01*
X144089285Y-77921904D01*
X143898809Y-77874285D01*
X143517857Y-77874285D01*
X143422619Y-77921904D01*
X143375000Y-77969523D01*
X143327380Y-78064761D01*
X143327380Y-78255238D01*
X143375000Y-78350476D01*
X143422619Y-78398095D01*
X143517857Y-78445714D01*
X143755952Y-78445714D01*
X143851190Y-78398095D01*
X143898809Y-78350476D01*
X143946428Y-78255238D01*
X143946428Y-78064761D01*
X143898809Y-77969523D01*
X143851190Y-77921904D01*
X143755952Y-77874285D01*
%TO.C,R2*%
X174863333Y-103032380D02*
X174530000Y-102556190D01*
X174291904Y-103032380D02*
X174291904Y-102032380D01*
X174672857Y-102032380D01*
X174768095Y-102080000D01*
X174815714Y-102127619D01*
X174863333Y-102222857D01*
X174863333Y-102365714D01*
X174815714Y-102460952D01*
X174768095Y-102508571D01*
X174672857Y-102556190D01*
X174291904Y-102556190D01*
X175244285Y-102127619D02*
X175291904Y-102080000D01*
X175387142Y-102032380D01*
X175625238Y-102032380D01*
X175720476Y-102080000D01*
X175768095Y-102127619D01*
X175815714Y-102222857D01*
X175815714Y-102318095D01*
X175768095Y-102460952D01*
X175196666Y-103032380D01*
X175815714Y-103032380D01*
D11*
%TO.C,D2*%
X172577202Y-118926190D02*
X172577202Y-118426190D01*
X172696250Y-118426190D01*
X172767678Y-118450000D01*
X172815297Y-118497619D01*
X172839107Y-118545238D01*
X172862916Y-118640476D01*
X172862916Y-118711904D01*
X172839107Y-118807142D01*
X172815297Y-118854761D01*
X172767678Y-118902380D01*
X172696250Y-118926190D01*
X172577202Y-118926190D01*
X173053392Y-118473809D02*
X173077202Y-118450000D01*
X173124821Y-118426190D01*
X173243869Y-118426190D01*
X173291488Y-118450000D01*
X173315297Y-118473809D01*
X173339107Y-118521428D01*
X173339107Y-118569047D01*
X173315297Y-118640476D01*
X173029583Y-118926190D01*
X173339107Y-118926190D01*
D10*
%TO.C,C9*%
X148207142Y-113036666D02*
X148254761Y-113084285D01*
X148302380Y-113227142D01*
X148302380Y-113322380D01*
X148254761Y-113465238D01*
X148159523Y-113560476D01*
X148064285Y-113608095D01*
X147873809Y-113655714D01*
X147730952Y-113655714D01*
X147540476Y-113608095D01*
X147445238Y-113560476D01*
X147350000Y-113465238D01*
X147302380Y-113322380D01*
X147302380Y-113227142D01*
X147350000Y-113084285D01*
X147397619Y-113036666D01*
X148302380Y-112560476D02*
X148302380Y-112370000D01*
X148254761Y-112274761D01*
X148207142Y-112227142D01*
X148064285Y-112131904D01*
X147873809Y-112084285D01*
X147492857Y-112084285D01*
X147397619Y-112131904D01*
X147350000Y-112179523D01*
X147302380Y-112274761D01*
X147302380Y-112465238D01*
X147350000Y-112560476D01*
X147397619Y-112608095D01*
X147492857Y-112655714D01*
X147730952Y-112655714D01*
X147826190Y-112608095D01*
X147873809Y-112560476D01*
X147921428Y-112465238D01*
X147921428Y-112274761D01*
X147873809Y-112179523D01*
X147826190Y-112131904D01*
X147730952Y-112084285D01*
%TO.C,C31*%
X138377142Y-101262857D02*
X138424761Y-101310476D01*
X138472380Y-101453333D01*
X138472380Y-101548571D01*
X138424761Y-101691428D01*
X138329523Y-101786666D01*
X138234285Y-101834285D01*
X138043809Y-101881904D01*
X137900952Y-101881904D01*
X137710476Y-101834285D01*
X137615238Y-101786666D01*
X137520000Y-101691428D01*
X137472380Y-101548571D01*
X137472380Y-101453333D01*
X137520000Y-101310476D01*
X137567619Y-101262857D01*
X137472380Y-100929523D02*
X137472380Y-100310476D01*
X137853333Y-100643809D01*
X137853333Y-100500952D01*
X137900952Y-100405714D01*
X137948571Y-100358095D01*
X138043809Y-100310476D01*
X138281904Y-100310476D01*
X138377142Y-100358095D01*
X138424761Y-100405714D01*
X138472380Y-100500952D01*
X138472380Y-100786666D01*
X138424761Y-100881904D01*
X138377142Y-100929523D01*
X138472380Y-99358095D02*
X138472380Y-99929523D01*
X138472380Y-99643809D02*
X137472380Y-99643809D01*
X137615238Y-99739047D01*
X137710476Y-99834285D01*
X137758095Y-99929523D01*
%TO.C,R1*%
X172953333Y-103022380D02*
X172620000Y-102546190D01*
X172381904Y-103022380D02*
X172381904Y-102022380D01*
X172762857Y-102022380D01*
X172858095Y-102070000D01*
X172905714Y-102117619D01*
X172953333Y-102212857D01*
X172953333Y-102355714D01*
X172905714Y-102450952D01*
X172858095Y-102498571D01*
X172762857Y-102546190D01*
X172381904Y-102546190D01*
X173905714Y-103022380D02*
X173334285Y-103022380D01*
X173620000Y-103022380D02*
X173620000Y-102022380D01*
X173524761Y-102165238D01*
X173429523Y-102260476D01*
X173334285Y-102308095D01*
%TO.C,R20*%
X138492380Y-104312857D02*
X138016190Y-104646190D01*
X138492380Y-104884285D02*
X137492380Y-104884285D01*
X137492380Y-104503333D01*
X137540000Y-104408095D01*
X137587619Y-104360476D01*
X137682857Y-104312857D01*
X137825714Y-104312857D01*
X137920952Y-104360476D01*
X137968571Y-104408095D01*
X138016190Y-104503333D01*
X138016190Y-104884285D01*
X137587619Y-103931904D02*
X137540000Y-103884285D01*
X137492380Y-103789047D01*
X137492380Y-103550952D01*
X137540000Y-103455714D01*
X137587619Y-103408095D01*
X137682857Y-103360476D01*
X137778095Y-103360476D01*
X137920952Y-103408095D01*
X138492380Y-103979523D01*
X138492380Y-103360476D01*
X137492380Y-102741428D02*
X137492380Y-102646190D01*
X137540000Y-102550952D01*
X137587619Y-102503333D01*
X137682857Y-102455714D01*
X137873333Y-102408095D01*
X138111428Y-102408095D01*
X138301904Y-102455714D01*
X138397142Y-102503333D01*
X138444761Y-102550952D01*
X138492380Y-102646190D01*
X138492380Y-102741428D01*
X138444761Y-102836666D01*
X138397142Y-102884285D01*
X138301904Y-102931904D01*
X138111428Y-102979523D01*
X137873333Y-102979523D01*
X137682857Y-102931904D01*
X137587619Y-102884285D01*
X137540000Y-102836666D01*
X137492380Y-102741428D01*
%TO.C,R4*%
X165803333Y-102912380D02*
X165470000Y-102436190D01*
X165231904Y-102912380D02*
X165231904Y-101912380D01*
X165612857Y-101912380D01*
X165708095Y-101960000D01*
X165755714Y-102007619D01*
X165803333Y-102102857D01*
X165803333Y-102245714D01*
X165755714Y-102340952D01*
X165708095Y-102388571D01*
X165612857Y-102436190D01*
X165231904Y-102436190D01*
X166660476Y-102245714D02*
X166660476Y-102912380D01*
X166422380Y-101864761D02*
X166184285Y-102579047D01*
X166803333Y-102579047D01*
%TO.C,R25*%
X117772380Y-79022857D02*
X117296190Y-79356190D01*
X117772380Y-79594285D02*
X116772380Y-79594285D01*
X116772380Y-79213333D01*
X116820000Y-79118095D01*
X116867619Y-79070476D01*
X116962857Y-79022857D01*
X117105714Y-79022857D01*
X117200952Y-79070476D01*
X117248571Y-79118095D01*
X117296190Y-79213333D01*
X117296190Y-79594285D01*
X116867619Y-78641904D02*
X116820000Y-78594285D01*
X116772380Y-78499047D01*
X116772380Y-78260952D01*
X116820000Y-78165714D01*
X116867619Y-78118095D01*
X116962857Y-78070476D01*
X117058095Y-78070476D01*
X117200952Y-78118095D01*
X117772380Y-78689523D01*
X117772380Y-78070476D01*
X116772380Y-77165714D02*
X116772380Y-77641904D01*
X117248571Y-77689523D01*
X117200952Y-77641904D01*
X117153333Y-77546666D01*
X117153333Y-77308571D01*
X117200952Y-77213333D01*
X117248571Y-77165714D01*
X117343809Y-77118095D01*
X117581904Y-77118095D01*
X117677142Y-77165714D01*
X117724761Y-77213333D01*
X117772380Y-77308571D01*
X117772380Y-77546666D01*
X117724761Y-77641904D01*
X117677142Y-77689523D01*
%TO.C,C4*%
X167457142Y-113956666D02*
X167504761Y-114004285D01*
X167552380Y-114147142D01*
X167552380Y-114242380D01*
X167504761Y-114385238D01*
X167409523Y-114480476D01*
X167314285Y-114528095D01*
X167123809Y-114575714D01*
X166980952Y-114575714D01*
X166790476Y-114528095D01*
X166695238Y-114480476D01*
X166600000Y-114385238D01*
X166552380Y-114242380D01*
X166552380Y-114147142D01*
X166600000Y-114004285D01*
X166647619Y-113956666D01*
X166885714Y-113099523D02*
X167552380Y-113099523D01*
X166504761Y-113337619D02*
X167219047Y-113575714D01*
X167219047Y-112956666D01*
D11*
%TO.C,D5*%
X167947202Y-118926190D02*
X167947202Y-118426190D01*
X168066250Y-118426190D01*
X168137678Y-118450000D01*
X168185297Y-118497619D01*
X168209107Y-118545238D01*
X168232916Y-118640476D01*
X168232916Y-118711904D01*
X168209107Y-118807142D01*
X168185297Y-118854761D01*
X168137678Y-118902380D01*
X168066250Y-118926190D01*
X167947202Y-118926190D01*
X168685297Y-118426190D02*
X168447202Y-118426190D01*
X168423392Y-118664285D01*
X168447202Y-118640476D01*
X168494821Y-118616666D01*
X168613869Y-118616666D01*
X168661488Y-118640476D01*
X168685297Y-118664285D01*
X168709107Y-118711904D01*
X168709107Y-118830952D01*
X168685297Y-118878571D01*
X168661488Y-118902380D01*
X168613869Y-118926190D01*
X168494821Y-118926190D01*
X168447202Y-118902380D01*
X168423392Y-118878571D01*
D10*
%TO.C,R19*%
X151117142Y-77992380D02*
X150783809Y-77516190D01*
X150545714Y-77992380D02*
X150545714Y-76992380D01*
X150926666Y-76992380D01*
X151021904Y-77040000D01*
X151069523Y-77087619D01*
X151117142Y-77182857D01*
X151117142Y-77325714D01*
X151069523Y-77420952D01*
X151021904Y-77468571D01*
X150926666Y-77516190D01*
X150545714Y-77516190D01*
X152069523Y-77992380D02*
X151498095Y-77992380D01*
X151783809Y-77992380D02*
X151783809Y-76992380D01*
X151688571Y-77135238D01*
X151593333Y-77230476D01*
X151498095Y-77278095D01*
X152545714Y-77992380D02*
X152736190Y-77992380D01*
X152831428Y-77944761D01*
X152879047Y-77897142D01*
X152974285Y-77754285D01*
X153021904Y-77563809D01*
X153021904Y-77182857D01*
X152974285Y-77087619D01*
X152926666Y-77040000D01*
X152831428Y-76992380D01*
X152640952Y-76992380D01*
X152545714Y-77040000D01*
X152498095Y-77087619D01*
X152450476Y-77182857D01*
X152450476Y-77420952D01*
X152498095Y-77516190D01*
X152545714Y-77563809D01*
X152640952Y-77611428D01*
X152831428Y-77611428D01*
X152926666Y-77563809D01*
X152974285Y-77516190D01*
X153021904Y-77420952D01*
%TO.C,C17*%
X138222142Y-90497142D02*
X138174523Y-90544761D01*
X138031666Y-90592380D01*
X137936428Y-90592380D01*
X137793571Y-90544761D01*
X137698333Y-90449523D01*
X137650714Y-90354285D01*
X137603095Y-90163809D01*
X137603095Y-90020952D01*
X137650714Y-89830476D01*
X137698333Y-89735238D01*
X137793571Y-89640000D01*
X137936428Y-89592380D01*
X138031666Y-89592380D01*
X138174523Y-89640000D01*
X138222142Y-89687619D01*
X139174523Y-90592380D02*
X138603095Y-90592380D01*
X138888809Y-90592380D02*
X138888809Y-89592380D01*
X138793571Y-89735238D01*
X138698333Y-89830476D01*
X138603095Y-89878095D01*
X139507857Y-89592380D02*
X140174523Y-89592380D01*
X139745952Y-90592380D01*
%TO.C,R7*%
X136557380Y-80976666D02*
X136081190Y-81310000D01*
X136557380Y-81548095D02*
X135557380Y-81548095D01*
X135557380Y-81167142D01*
X135605000Y-81071904D01*
X135652619Y-81024285D01*
X135747857Y-80976666D01*
X135890714Y-80976666D01*
X135985952Y-81024285D01*
X136033571Y-81071904D01*
X136081190Y-81167142D01*
X136081190Y-81548095D01*
X135557380Y-80643333D02*
X135557380Y-79976666D01*
X136557380Y-80405238D01*
%TO.C,C12*%
X136392142Y-83792857D02*
X136439761Y-83840476D01*
X136487380Y-83983333D01*
X136487380Y-84078571D01*
X136439761Y-84221428D01*
X136344523Y-84316666D01*
X136249285Y-84364285D01*
X136058809Y-84411904D01*
X135915952Y-84411904D01*
X135725476Y-84364285D01*
X135630238Y-84316666D01*
X135535000Y-84221428D01*
X135487380Y-84078571D01*
X135487380Y-83983333D01*
X135535000Y-83840476D01*
X135582619Y-83792857D01*
X136487380Y-82840476D02*
X136487380Y-83411904D01*
X136487380Y-83126190D02*
X135487380Y-83126190D01*
X135630238Y-83221428D01*
X135725476Y-83316666D01*
X135773095Y-83411904D01*
X135582619Y-82459523D02*
X135535000Y-82411904D01*
X135487380Y-82316666D01*
X135487380Y-82078571D01*
X135535000Y-81983333D01*
X135582619Y-81935714D01*
X135677857Y-81888095D01*
X135773095Y-81888095D01*
X135915952Y-81935714D01*
X136487380Y-82507142D01*
X136487380Y-81888095D01*
%TO.C,C18*%
X142222142Y-89217142D02*
X142174523Y-89264761D01*
X142031666Y-89312380D01*
X141936428Y-89312380D01*
X141793571Y-89264761D01*
X141698333Y-89169523D01*
X141650714Y-89074285D01*
X141603095Y-88883809D01*
X141603095Y-88740952D01*
X141650714Y-88550476D01*
X141698333Y-88455238D01*
X141793571Y-88360000D01*
X141936428Y-88312380D01*
X142031666Y-88312380D01*
X142174523Y-88360000D01*
X142222142Y-88407619D01*
X143174523Y-89312380D02*
X142603095Y-89312380D01*
X142888809Y-89312380D02*
X142888809Y-88312380D01*
X142793571Y-88455238D01*
X142698333Y-88550476D01*
X142603095Y-88598095D01*
X143745952Y-88740952D02*
X143650714Y-88693333D01*
X143603095Y-88645714D01*
X143555476Y-88550476D01*
X143555476Y-88502857D01*
X143603095Y-88407619D01*
X143650714Y-88360000D01*
X143745952Y-88312380D01*
X143936428Y-88312380D01*
X144031666Y-88360000D01*
X144079285Y-88407619D01*
X144126904Y-88502857D01*
X144126904Y-88550476D01*
X144079285Y-88645714D01*
X144031666Y-88693333D01*
X143936428Y-88740952D01*
X143745952Y-88740952D01*
X143650714Y-88788571D01*
X143603095Y-88836190D01*
X143555476Y-88931428D01*
X143555476Y-89121904D01*
X143603095Y-89217142D01*
X143650714Y-89264761D01*
X143745952Y-89312380D01*
X143936428Y-89312380D01*
X144031666Y-89264761D01*
X144079285Y-89217142D01*
X144126904Y-89121904D01*
X144126904Y-88931428D01*
X144079285Y-88836190D01*
X144031666Y-88788571D01*
X143936428Y-88740952D01*
%TO.C,R3*%
X167883333Y-103002380D02*
X167550000Y-102526190D01*
X167311904Y-103002380D02*
X167311904Y-102002380D01*
X167692857Y-102002380D01*
X167788095Y-102050000D01*
X167835714Y-102097619D01*
X167883333Y-102192857D01*
X167883333Y-102335714D01*
X167835714Y-102430952D01*
X167788095Y-102478571D01*
X167692857Y-102526190D01*
X167311904Y-102526190D01*
X168216666Y-102002380D02*
X168835714Y-102002380D01*
X168502380Y-102383333D01*
X168645238Y-102383333D01*
X168740476Y-102430952D01*
X168788095Y-102478571D01*
X168835714Y-102573809D01*
X168835714Y-102811904D01*
X168788095Y-102907142D01*
X168740476Y-102954761D01*
X168645238Y-103002380D01*
X168359523Y-103002380D01*
X168264285Y-102954761D01*
X168216666Y-102907142D01*
%TO.C,R21*%
X158227142Y-79162380D02*
X157893809Y-78686190D01*
X157655714Y-79162380D02*
X157655714Y-78162380D01*
X158036666Y-78162380D01*
X158131904Y-78210000D01*
X158179523Y-78257619D01*
X158227142Y-78352857D01*
X158227142Y-78495714D01*
X158179523Y-78590952D01*
X158131904Y-78638571D01*
X158036666Y-78686190D01*
X157655714Y-78686190D01*
X158608095Y-78257619D02*
X158655714Y-78210000D01*
X158750952Y-78162380D01*
X158989047Y-78162380D01*
X159084285Y-78210000D01*
X159131904Y-78257619D01*
X159179523Y-78352857D01*
X159179523Y-78448095D01*
X159131904Y-78590952D01*
X158560476Y-79162380D01*
X159179523Y-79162380D01*
X160131904Y-79162380D02*
X159560476Y-79162380D01*
X159846190Y-79162380D02*
X159846190Y-78162380D01*
X159750952Y-78305238D01*
X159655714Y-78400476D01*
X159560476Y-78448095D01*
%TO.C,R22*%
X132117142Y-98452380D02*
X131783809Y-97976190D01*
X131545714Y-98452380D02*
X131545714Y-97452380D01*
X131926666Y-97452380D01*
X132021904Y-97500000D01*
X132069523Y-97547619D01*
X132117142Y-97642857D01*
X132117142Y-97785714D01*
X132069523Y-97880952D01*
X132021904Y-97928571D01*
X131926666Y-97976190D01*
X131545714Y-97976190D01*
X132498095Y-97547619D02*
X132545714Y-97500000D01*
X132640952Y-97452380D01*
X132879047Y-97452380D01*
X132974285Y-97500000D01*
X133021904Y-97547619D01*
X133069523Y-97642857D01*
X133069523Y-97738095D01*
X133021904Y-97880952D01*
X132450476Y-98452380D01*
X133069523Y-98452380D01*
X133450476Y-97547619D02*
X133498095Y-97500000D01*
X133593333Y-97452380D01*
X133831428Y-97452380D01*
X133926666Y-97500000D01*
X133974285Y-97547619D01*
X134021904Y-97642857D01*
X134021904Y-97738095D01*
X133974285Y-97880952D01*
X133402857Y-98452380D01*
X134021904Y-98452380D01*
%TO.C,R17*%
X153412142Y-83402380D02*
X153078809Y-82926190D01*
X152840714Y-83402380D02*
X152840714Y-82402380D01*
X153221666Y-82402380D01*
X153316904Y-82450000D01*
X153364523Y-82497619D01*
X153412142Y-82592857D01*
X153412142Y-82735714D01*
X153364523Y-82830952D01*
X153316904Y-82878571D01*
X153221666Y-82926190D01*
X152840714Y-82926190D01*
X154364523Y-83402380D02*
X153793095Y-83402380D01*
X154078809Y-83402380D02*
X154078809Y-82402380D01*
X153983571Y-82545238D01*
X153888333Y-82640476D01*
X153793095Y-82688095D01*
X154697857Y-82402380D02*
X155364523Y-82402380D01*
X154935952Y-83402380D01*
%TO.C,C8*%
X157533333Y-110607142D02*
X157485714Y-110654761D01*
X157342857Y-110702380D01*
X157247619Y-110702380D01*
X157104761Y-110654761D01*
X157009523Y-110559523D01*
X156961904Y-110464285D01*
X156914285Y-110273809D01*
X156914285Y-110130952D01*
X156961904Y-109940476D01*
X157009523Y-109845238D01*
X157104761Y-109750000D01*
X157247619Y-109702380D01*
X157342857Y-109702380D01*
X157485714Y-109750000D01*
X157533333Y-109797619D01*
X158104761Y-110130952D02*
X158009523Y-110083333D01*
X157961904Y-110035714D01*
X157914285Y-109940476D01*
X157914285Y-109892857D01*
X157961904Y-109797619D01*
X158009523Y-109750000D01*
X158104761Y-109702380D01*
X158295238Y-109702380D01*
X158390476Y-109750000D01*
X158438095Y-109797619D01*
X158485714Y-109892857D01*
X158485714Y-109940476D01*
X158438095Y-110035714D01*
X158390476Y-110083333D01*
X158295238Y-110130952D01*
X158104761Y-110130952D01*
X158009523Y-110178571D01*
X157961904Y-110226190D01*
X157914285Y-110321428D01*
X157914285Y-110511904D01*
X157961904Y-110607142D01*
X158009523Y-110654761D01*
X158104761Y-110702380D01*
X158295238Y-110702380D01*
X158390476Y-110654761D01*
X158438095Y-110607142D01*
X158485714Y-110511904D01*
X158485714Y-110321428D01*
X158438095Y-110226190D01*
X158390476Y-110178571D01*
X158295238Y-110130952D01*
%TO.C,C1*%
X165173333Y-90367142D02*
X165125714Y-90414761D01*
X164982857Y-90462380D01*
X164887619Y-90462380D01*
X164744761Y-90414761D01*
X164649523Y-90319523D01*
X164601904Y-90224285D01*
X164554285Y-90033809D01*
X164554285Y-89890952D01*
X164601904Y-89700476D01*
X164649523Y-89605238D01*
X164744761Y-89510000D01*
X164887619Y-89462380D01*
X164982857Y-89462380D01*
X165125714Y-89510000D01*
X165173333Y-89557619D01*
X166125714Y-90462380D02*
X165554285Y-90462380D01*
X165840000Y-90462380D02*
X165840000Y-89462380D01*
X165744761Y-89605238D01*
X165649523Y-89700476D01*
X165554285Y-89748095D01*
%TO.C,C15*%
X121477142Y-100022857D02*
X121524761Y-100070476D01*
X121572380Y-100213333D01*
X121572380Y-100308571D01*
X121524761Y-100451428D01*
X121429523Y-100546666D01*
X121334285Y-100594285D01*
X121143809Y-100641904D01*
X121000952Y-100641904D01*
X120810476Y-100594285D01*
X120715238Y-100546666D01*
X120620000Y-100451428D01*
X120572380Y-100308571D01*
X120572380Y-100213333D01*
X120620000Y-100070476D01*
X120667619Y-100022857D01*
X121572380Y-99070476D02*
X121572380Y-99641904D01*
X121572380Y-99356190D02*
X120572380Y-99356190D01*
X120715238Y-99451428D01*
X120810476Y-99546666D01*
X120858095Y-99641904D01*
X120572380Y-98165714D02*
X120572380Y-98641904D01*
X121048571Y-98689523D01*
X121000952Y-98641904D01*
X120953333Y-98546666D01*
X120953333Y-98308571D01*
X121000952Y-98213333D01*
X121048571Y-98165714D01*
X121143809Y-98118095D01*
X121381904Y-98118095D01*
X121477142Y-98165714D01*
X121524761Y-98213333D01*
X121572380Y-98308571D01*
X121572380Y-98546666D01*
X121524761Y-98641904D01*
X121477142Y-98689523D01*
%TO.C,C13*%
X117407142Y-87427142D02*
X117359523Y-87474761D01*
X117216666Y-87522380D01*
X117121428Y-87522380D01*
X116978571Y-87474761D01*
X116883333Y-87379523D01*
X116835714Y-87284285D01*
X116788095Y-87093809D01*
X116788095Y-86950952D01*
X116835714Y-86760476D01*
X116883333Y-86665238D01*
X116978571Y-86570000D01*
X117121428Y-86522380D01*
X117216666Y-86522380D01*
X117359523Y-86570000D01*
X117407142Y-86617619D01*
X118359523Y-87522380D02*
X117788095Y-87522380D01*
X118073809Y-87522380D02*
X118073809Y-86522380D01*
X117978571Y-86665238D01*
X117883333Y-86760476D01*
X117788095Y-86808095D01*
X118692857Y-86522380D02*
X119311904Y-86522380D01*
X118978571Y-86903333D01*
X119121428Y-86903333D01*
X119216666Y-86950952D01*
X119264285Y-86998571D01*
X119311904Y-87093809D01*
X119311904Y-87331904D01*
X119264285Y-87427142D01*
X119216666Y-87474761D01*
X119121428Y-87522380D01*
X118835714Y-87522380D01*
X118740476Y-87474761D01*
X118692857Y-87427142D01*
%TO.C,C3*%
X167427142Y-78596666D02*
X167474761Y-78644285D01*
X167522380Y-78787142D01*
X167522380Y-78882380D01*
X167474761Y-79025238D01*
X167379523Y-79120476D01*
X167284285Y-79168095D01*
X167093809Y-79215714D01*
X166950952Y-79215714D01*
X166760476Y-79168095D01*
X166665238Y-79120476D01*
X166570000Y-79025238D01*
X166522380Y-78882380D01*
X166522380Y-78787142D01*
X166570000Y-78644285D01*
X166617619Y-78596666D01*
X166522380Y-78263333D02*
X166522380Y-77644285D01*
X166903333Y-77977619D01*
X166903333Y-77834761D01*
X166950952Y-77739523D01*
X166998571Y-77691904D01*
X167093809Y-77644285D01*
X167331904Y-77644285D01*
X167427142Y-77691904D01*
X167474761Y-77739523D01*
X167522380Y-77834761D01*
X167522380Y-78120476D01*
X167474761Y-78215714D01*
X167427142Y-78263333D01*
%TO.C,U5*%
X148053095Y-77042380D02*
X148053095Y-77851904D01*
X148100714Y-77947142D01*
X148148333Y-77994761D01*
X148243571Y-78042380D01*
X148434047Y-78042380D01*
X148529285Y-77994761D01*
X148576904Y-77947142D01*
X148624523Y-77851904D01*
X148624523Y-77042380D01*
X149576904Y-77042380D02*
X149100714Y-77042380D01*
X149053095Y-77518571D01*
X149100714Y-77470952D01*
X149195952Y-77423333D01*
X149434047Y-77423333D01*
X149529285Y-77470952D01*
X149576904Y-77518571D01*
X149624523Y-77613809D01*
X149624523Y-77851904D01*
X149576904Y-77947142D01*
X149529285Y-77994761D01*
X149434047Y-78042380D01*
X149195952Y-78042380D01*
X149100714Y-77994761D01*
X149053095Y-77947142D01*
%TO.C,R14*%
X119437142Y-102872380D02*
X119103809Y-102396190D01*
X118865714Y-102872380D02*
X118865714Y-101872380D01*
X119246666Y-101872380D01*
X119341904Y-101920000D01*
X119389523Y-101967619D01*
X119437142Y-102062857D01*
X119437142Y-102205714D01*
X119389523Y-102300952D01*
X119341904Y-102348571D01*
X119246666Y-102396190D01*
X118865714Y-102396190D01*
X120389523Y-102872380D02*
X119818095Y-102872380D01*
X120103809Y-102872380D02*
X120103809Y-101872380D01*
X120008571Y-102015238D01*
X119913333Y-102110476D01*
X119818095Y-102158095D01*
X121246666Y-102205714D02*
X121246666Y-102872380D01*
X121008571Y-101824761D02*
X120770476Y-102539047D01*
X121389523Y-102539047D01*
%TO.C,C20*%
X117307142Y-108777142D02*
X117259523Y-108824761D01*
X117116666Y-108872380D01*
X117021428Y-108872380D01*
X116878571Y-108824761D01*
X116783333Y-108729523D01*
X116735714Y-108634285D01*
X116688095Y-108443809D01*
X116688095Y-108300952D01*
X116735714Y-108110476D01*
X116783333Y-108015238D01*
X116878571Y-107920000D01*
X117021428Y-107872380D01*
X117116666Y-107872380D01*
X117259523Y-107920000D01*
X117307142Y-107967619D01*
X117688095Y-107967619D02*
X117735714Y-107920000D01*
X117830952Y-107872380D01*
X118069047Y-107872380D01*
X118164285Y-107920000D01*
X118211904Y-107967619D01*
X118259523Y-108062857D01*
X118259523Y-108158095D01*
X118211904Y-108300952D01*
X117640476Y-108872380D01*
X118259523Y-108872380D01*
X118878571Y-107872380D02*
X118973809Y-107872380D01*
X119069047Y-107920000D01*
X119116666Y-107967619D01*
X119164285Y-108062857D01*
X119211904Y-108253333D01*
X119211904Y-108491428D01*
X119164285Y-108681904D01*
X119116666Y-108777142D01*
X119069047Y-108824761D01*
X118973809Y-108872380D01*
X118878571Y-108872380D01*
X118783333Y-108824761D01*
X118735714Y-108777142D01*
X118688095Y-108681904D01*
X118640476Y-108491428D01*
X118640476Y-108253333D01*
X118688095Y-108062857D01*
X118735714Y-107967619D01*
X118783333Y-107920000D01*
X118878571Y-107872380D01*
%TO.C,R8*%
X113812380Y-101976666D02*
X113336190Y-102310000D01*
X113812380Y-102548095D02*
X112812380Y-102548095D01*
X112812380Y-102167142D01*
X112860000Y-102071904D01*
X112907619Y-102024285D01*
X113002857Y-101976666D01*
X113145714Y-101976666D01*
X113240952Y-102024285D01*
X113288571Y-102071904D01*
X113336190Y-102167142D01*
X113336190Y-102548095D01*
X113240952Y-101405238D02*
X113193333Y-101500476D01*
X113145714Y-101548095D01*
X113050476Y-101595714D01*
X113002857Y-101595714D01*
X112907619Y-101548095D01*
X112860000Y-101500476D01*
X112812380Y-101405238D01*
X112812380Y-101214761D01*
X112860000Y-101119523D01*
X112907619Y-101071904D01*
X113002857Y-101024285D01*
X113050476Y-101024285D01*
X113145714Y-101071904D01*
X113193333Y-101119523D01*
X113240952Y-101214761D01*
X113240952Y-101405238D01*
X113288571Y-101500476D01*
X113336190Y-101548095D01*
X113431428Y-101595714D01*
X113621904Y-101595714D01*
X113717142Y-101548095D01*
X113764761Y-101500476D01*
X113812380Y-101405238D01*
X113812380Y-101214761D01*
X113764761Y-101119523D01*
X113717142Y-101071904D01*
X113621904Y-101024285D01*
X113431428Y-101024285D01*
X113336190Y-101071904D01*
X113288571Y-101119523D01*
X113240952Y-101214761D01*
D11*
%TO.C,D11*%
X170752857Y-118926190D02*
X170752857Y-118426190D01*
X170871904Y-118426190D01*
X170943333Y-118450000D01*
X170990952Y-118497619D01*
X171014761Y-118545238D01*
X171038571Y-118640476D01*
X171038571Y-118711904D01*
X171014761Y-118807142D01*
X170990952Y-118854761D01*
X170943333Y-118902380D01*
X170871904Y-118926190D01*
X170752857Y-118926190D01*
X171514761Y-118926190D02*
X171229047Y-118926190D01*
X171371904Y-118926190D02*
X171371904Y-118426190D01*
X171324285Y-118497619D01*
X171276666Y-118545238D01*
X171229047Y-118569047D01*
X171990952Y-118926190D02*
X171705238Y-118926190D01*
X171848095Y-118926190D02*
X171848095Y-118426190D01*
X171800476Y-118497619D01*
X171752857Y-118545238D01*
X171705238Y-118569047D01*
D10*
%TO.C,C27*%
X132997142Y-84227142D02*
X132949523Y-84274761D01*
X132806666Y-84322380D01*
X132711428Y-84322380D01*
X132568571Y-84274761D01*
X132473333Y-84179523D01*
X132425714Y-84084285D01*
X132378095Y-83893809D01*
X132378095Y-83750952D01*
X132425714Y-83560476D01*
X132473333Y-83465238D01*
X132568571Y-83370000D01*
X132711428Y-83322380D01*
X132806666Y-83322380D01*
X132949523Y-83370000D01*
X132997142Y-83417619D01*
X133378095Y-83417619D02*
X133425714Y-83370000D01*
X133520952Y-83322380D01*
X133759047Y-83322380D01*
X133854285Y-83370000D01*
X133901904Y-83417619D01*
X133949523Y-83512857D01*
X133949523Y-83608095D01*
X133901904Y-83750952D01*
X133330476Y-84322380D01*
X133949523Y-84322380D01*
X134282857Y-83322380D02*
X134949523Y-83322380D01*
X134520952Y-84322380D01*
%TO.C,J2*%
X123706666Y-113092380D02*
X123706666Y-113806666D01*
X123659047Y-113949523D01*
X123563809Y-114044761D01*
X123420952Y-114092380D01*
X123325714Y-114092380D01*
X124135238Y-113187619D02*
X124182857Y-113140000D01*
X124278095Y-113092380D01*
X124516190Y-113092380D01*
X124611428Y-113140000D01*
X124659047Y-113187619D01*
X124706666Y-113282857D01*
X124706666Y-113378095D01*
X124659047Y-113520952D01*
X124087619Y-114092380D01*
X124706666Y-114092380D01*
%TO.C,L1*%
X167122380Y-81066666D02*
X167122380Y-81542857D01*
X166122380Y-81542857D01*
X167122380Y-80209523D02*
X167122380Y-80780952D01*
X167122380Y-80495238D02*
X166122380Y-80495238D01*
X166265238Y-80590476D01*
X166360476Y-80685714D01*
X166408095Y-80780952D01*
%TO.C,R12*%
X113812380Y-104742857D02*
X113336190Y-105076190D01*
X113812380Y-105314285D02*
X112812380Y-105314285D01*
X112812380Y-104933333D01*
X112860000Y-104838095D01*
X112907619Y-104790476D01*
X113002857Y-104742857D01*
X113145714Y-104742857D01*
X113240952Y-104790476D01*
X113288571Y-104838095D01*
X113336190Y-104933333D01*
X113336190Y-105314285D01*
X113812380Y-103790476D02*
X113812380Y-104361904D01*
X113812380Y-104076190D02*
X112812380Y-104076190D01*
X112955238Y-104171428D01*
X113050476Y-104266666D01*
X113098095Y-104361904D01*
X112907619Y-103409523D02*
X112860000Y-103361904D01*
X112812380Y-103266666D01*
X112812380Y-103028571D01*
X112860000Y-102933333D01*
X112907619Y-102885714D01*
X113002857Y-102838095D01*
X113098095Y-102838095D01*
X113240952Y-102885714D01*
X113812380Y-103457142D01*
X113812380Y-102838095D01*
%TO.C,C14*%
X124137142Y-98082857D02*
X124184761Y-98130476D01*
X124232380Y-98273333D01*
X124232380Y-98368571D01*
X124184761Y-98511428D01*
X124089523Y-98606666D01*
X123994285Y-98654285D01*
X123803809Y-98701904D01*
X123660952Y-98701904D01*
X123470476Y-98654285D01*
X123375238Y-98606666D01*
X123280000Y-98511428D01*
X123232380Y-98368571D01*
X123232380Y-98273333D01*
X123280000Y-98130476D01*
X123327619Y-98082857D01*
X124232380Y-97130476D02*
X124232380Y-97701904D01*
X124232380Y-97416190D02*
X123232380Y-97416190D01*
X123375238Y-97511428D01*
X123470476Y-97606666D01*
X123518095Y-97701904D01*
X123565714Y-96273333D02*
X124232380Y-96273333D01*
X123184761Y-96511428D02*
X123899047Y-96749523D01*
X123899047Y-96130476D01*
%TO.C,C7*%
X153807142Y-119366666D02*
X153854761Y-119414285D01*
X153902380Y-119557142D01*
X153902380Y-119652380D01*
X153854761Y-119795238D01*
X153759523Y-119890476D01*
X153664285Y-119938095D01*
X153473809Y-119985714D01*
X153330952Y-119985714D01*
X153140476Y-119938095D01*
X153045238Y-119890476D01*
X152950000Y-119795238D01*
X152902380Y-119652380D01*
X152902380Y-119557142D01*
X152950000Y-119414285D01*
X152997619Y-119366666D01*
X152902380Y-119033333D02*
X152902380Y-118366666D01*
X153902380Y-118795238D01*
%TO.C,R28*%
X138932380Y-92942857D02*
X138456190Y-93276190D01*
X138932380Y-93514285D02*
X137932380Y-93514285D01*
X137932380Y-93133333D01*
X137980000Y-93038095D01*
X138027619Y-92990476D01*
X138122857Y-92942857D01*
X138265714Y-92942857D01*
X138360952Y-92990476D01*
X138408571Y-93038095D01*
X138456190Y-93133333D01*
X138456190Y-93514285D01*
X138027619Y-92561904D02*
X137980000Y-92514285D01*
X137932380Y-92419047D01*
X137932380Y-92180952D01*
X137980000Y-92085714D01*
X138027619Y-92038095D01*
X138122857Y-91990476D01*
X138218095Y-91990476D01*
X138360952Y-92038095D01*
X138932380Y-92609523D01*
X138932380Y-91990476D01*
X138360952Y-91419047D02*
X138313333Y-91514285D01*
X138265714Y-91561904D01*
X138170476Y-91609523D01*
X138122857Y-91609523D01*
X138027619Y-91561904D01*
X137980000Y-91514285D01*
X137932380Y-91419047D01*
X137932380Y-91228571D01*
X137980000Y-91133333D01*
X138027619Y-91085714D01*
X138122857Y-91038095D01*
X138170476Y-91038095D01*
X138265714Y-91085714D01*
X138313333Y-91133333D01*
X138360952Y-91228571D01*
X138360952Y-91419047D01*
X138408571Y-91514285D01*
X138456190Y-91561904D01*
X138551428Y-91609523D01*
X138741904Y-91609523D01*
X138837142Y-91561904D01*
X138884761Y-91514285D01*
X138932380Y-91419047D01*
X138932380Y-91228571D01*
X138884761Y-91133333D01*
X138837142Y-91085714D01*
X138741904Y-91038095D01*
X138551428Y-91038095D01*
X138456190Y-91085714D01*
X138408571Y-91133333D01*
X138360952Y-91228571D01*
%TO.C,D1*%
X169008095Y-85877619D02*
X169008095Y-86877619D01*
X168770000Y-86877619D01*
X168627142Y-86830000D01*
X168531904Y-86734761D01*
X168484285Y-86639523D01*
X168436666Y-86449047D01*
X168436666Y-86306190D01*
X168484285Y-86115714D01*
X168531904Y-86020476D01*
X168627142Y-85925238D01*
X168770000Y-85877619D01*
X169008095Y-85877619D01*
X167484285Y-85877619D02*
X168055714Y-85877619D01*
X167770000Y-85877619D02*
X167770000Y-86877619D01*
X167865238Y-86734761D01*
X167960476Y-86639523D01*
X168055714Y-86591904D01*
%TO.C,C24*%
X157362142Y-89702857D02*
X157409761Y-89750476D01*
X157457380Y-89893333D01*
X157457380Y-89988571D01*
X157409761Y-90131428D01*
X157314523Y-90226666D01*
X157219285Y-90274285D01*
X157028809Y-90321904D01*
X156885952Y-90321904D01*
X156695476Y-90274285D01*
X156600238Y-90226666D01*
X156505000Y-90131428D01*
X156457380Y-89988571D01*
X156457380Y-89893333D01*
X156505000Y-89750476D01*
X156552619Y-89702857D01*
X156552619Y-89321904D02*
X156505000Y-89274285D01*
X156457380Y-89179047D01*
X156457380Y-88940952D01*
X156505000Y-88845714D01*
X156552619Y-88798095D01*
X156647857Y-88750476D01*
X156743095Y-88750476D01*
X156885952Y-88798095D01*
X157457380Y-89369523D01*
X157457380Y-88750476D01*
X156790714Y-87893333D02*
X157457380Y-87893333D01*
X156409761Y-88131428D02*
X157124047Y-88369523D01*
X157124047Y-87750476D01*
%TO.C,FB1*%
X153898571Y-113753333D02*
X153898571Y-114086666D01*
X154422380Y-114086666D02*
X153422380Y-114086666D01*
X153422380Y-113610476D01*
X153898571Y-112896190D02*
X153946190Y-112753333D01*
X153993809Y-112705714D01*
X154089047Y-112658095D01*
X154231904Y-112658095D01*
X154327142Y-112705714D01*
X154374761Y-112753333D01*
X154422380Y-112848571D01*
X154422380Y-113229523D01*
X153422380Y-113229523D01*
X153422380Y-112896190D01*
X153470000Y-112800952D01*
X153517619Y-112753333D01*
X153612857Y-112705714D01*
X153708095Y-112705714D01*
X153803333Y-112753333D01*
X153850952Y-112800952D01*
X153898571Y-112896190D01*
X153898571Y-113229523D01*
X154422380Y-111705714D02*
X154422380Y-112277142D01*
X154422380Y-111991428D02*
X153422380Y-111991428D01*
X153565238Y-112086666D01*
X153660476Y-112181904D01*
X153708095Y-112277142D01*
%TO.C,R26*%
X117692380Y-83202857D02*
X117216190Y-83536190D01*
X117692380Y-83774285D02*
X116692380Y-83774285D01*
X116692380Y-83393333D01*
X116740000Y-83298095D01*
X116787619Y-83250476D01*
X116882857Y-83202857D01*
X117025714Y-83202857D01*
X117120952Y-83250476D01*
X117168571Y-83298095D01*
X117216190Y-83393333D01*
X117216190Y-83774285D01*
X116787619Y-82821904D02*
X116740000Y-82774285D01*
X116692380Y-82679047D01*
X116692380Y-82440952D01*
X116740000Y-82345714D01*
X116787619Y-82298095D01*
X116882857Y-82250476D01*
X116978095Y-82250476D01*
X117120952Y-82298095D01*
X117692380Y-82869523D01*
X117692380Y-82250476D01*
X116692380Y-81393333D02*
X116692380Y-81583809D01*
X116740000Y-81679047D01*
X116787619Y-81726666D01*
X116930476Y-81821904D01*
X117120952Y-81869523D01*
X117501904Y-81869523D01*
X117597142Y-81821904D01*
X117644761Y-81774285D01*
X117692380Y-81679047D01*
X117692380Y-81488571D01*
X117644761Y-81393333D01*
X117597142Y-81345714D01*
X117501904Y-81298095D01*
X117263809Y-81298095D01*
X117168571Y-81345714D01*
X117120952Y-81393333D01*
X117073333Y-81488571D01*
X117073333Y-81679047D01*
X117120952Y-81774285D01*
X117168571Y-81821904D01*
X117263809Y-81869523D01*
%TO.C,C21*%
X125907142Y-111517142D02*
X125859523Y-111564761D01*
X125716666Y-111612380D01*
X125621428Y-111612380D01*
X125478571Y-111564761D01*
X125383333Y-111469523D01*
X125335714Y-111374285D01*
X125288095Y-111183809D01*
X125288095Y-111040952D01*
X125335714Y-110850476D01*
X125383333Y-110755238D01*
X125478571Y-110660000D01*
X125621428Y-110612380D01*
X125716666Y-110612380D01*
X125859523Y-110660000D01*
X125907142Y-110707619D01*
X126288095Y-110707619D02*
X126335714Y-110660000D01*
X126430952Y-110612380D01*
X126669047Y-110612380D01*
X126764285Y-110660000D01*
X126811904Y-110707619D01*
X126859523Y-110802857D01*
X126859523Y-110898095D01*
X126811904Y-111040952D01*
X126240476Y-111612380D01*
X126859523Y-111612380D01*
X127811904Y-111612380D02*
X127240476Y-111612380D01*
X127526190Y-111612380D02*
X127526190Y-110612380D01*
X127430952Y-110755238D01*
X127335714Y-110850476D01*
X127240476Y-110898095D01*
%TO.C,TP1*%
X160778095Y-104902380D02*
X161349523Y-104902380D01*
X161063809Y-105902380D02*
X161063809Y-104902380D01*
X161682857Y-105902380D02*
X161682857Y-104902380D01*
X162063809Y-104902380D01*
X162159047Y-104950000D01*
X162206666Y-104997619D01*
X162254285Y-105092857D01*
X162254285Y-105235714D01*
X162206666Y-105330952D01*
X162159047Y-105378571D01*
X162063809Y-105426190D01*
X161682857Y-105426190D01*
X163206666Y-105902380D02*
X162635238Y-105902380D01*
X162920952Y-105902380D02*
X162920952Y-104902380D01*
X162825714Y-105045238D01*
X162730476Y-105140476D01*
X162635238Y-105188095D01*
%TO.C,C22*%
X160152142Y-86202857D02*
X160199761Y-86250476D01*
X160247380Y-86393333D01*
X160247380Y-86488571D01*
X160199761Y-86631428D01*
X160104523Y-86726666D01*
X160009285Y-86774285D01*
X159818809Y-86821904D01*
X159675952Y-86821904D01*
X159485476Y-86774285D01*
X159390238Y-86726666D01*
X159295000Y-86631428D01*
X159247380Y-86488571D01*
X159247380Y-86393333D01*
X159295000Y-86250476D01*
X159342619Y-86202857D01*
X159342619Y-85821904D02*
X159295000Y-85774285D01*
X159247380Y-85679047D01*
X159247380Y-85440952D01*
X159295000Y-85345714D01*
X159342619Y-85298095D01*
X159437857Y-85250476D01*
X159533095Y-85250476D01*
X159675952Y-85298095D01*
X160247380Y-85869523D01*
X160247380Y-85250476D01*
X159342619Y-84869523D02*
X159295000Y-84821904D01*
X159247380Y-84726666D01*
X159247380Y-84488571D01*
X159295000Y-84393333D01*
X159342619Y-84345714D01*
X159437857Y-84298095D01*
X159533095Y-84298095D01*
X159675952Y-84345714D01*
X160247380Y-84917142D01*
X160247380Y-84298095D01*
%TO.C,C30*%
X158207142Y-77567142D02*
X158159523Y-77614761D01*
X158016666Y-77662380D01*
X157921428Y-77662380D01*
X157778571Y-77614761D01*
X157683333Y-77519523D01*
X157635714Y-77424285D01*
X157588095Y-77233809D01*
X157588095Y-77090952D01*
X157635714Y-76900476D01*
X157683333Y-76805238D01*
X157778571Y-76710000D01*
X157921428Y-76662380D01*
X158016666Y-76662380D01*
X158159523Y-76710000D01*
X158207142Y-76757619D01*
X158540476Y-76662380D02*
X159159523Y-76662380D01*
X158826190Y-77043333D01*
X158969047Y-77043333D01*
X159064285Y-77090952D01*
X159111904Y-77138571D01*
X159159523Y-77233809D01*
X159159523Y-77471904D01*
X159111904Y-77567142D01*
X159064285Y-77614761D01*
X158969047Y-77662380D01*
X158683333Y-77662380D01*
X158588095Y-77614761D01*
X158540476Y-77567142D01*
X159778571Y-76662380D02*
X159873809Y-76662380D01*
X159969047Y-76710000D01*
X160016666Y-76757619D01*
X160064285Y-76852857D01*
X160111904Y-77043333D01*
X160111904Y-77281428D01*
X160064285Y-77471904D01*
X160016666Y-77567142D01*
X159969047Y-77614761D01*
X159873809Y-77662380D01*
X159778571Y-77662380D01*
X159683333Y-77614761D01*
X159635714Y-77567142D01*
X159588095Y-77471904D01*
X159540476Y-77281428D01*
X159540476Y-77043333D01*
X159588095Y-76852857D01*
X159635714Y-76757619D01*
X159683333Y-76710000D01*
X159778571Y-76662380D01*
%TO.C,C23*%
X138397142Y-107432857D02*
X138444761Y-107480476D01*
X138492380Y-107623333D01*
X138492380Y-107718571D01*
X138444761Y-107861428D01*
X138349523Y-107956666D01*
X138254285Y-108004285D01*
X138063809Y-108051904D01*
X137920952Y-108051904D01*
X137730476Y-108004285D01*
X137635238Y-107956666D01*
X137540000Y-107861428D01*
X137492380Y-107718571D01*
X137492380Y-107623333D01*
X137540000Y-107480476D01*
X137587619Y-107432857D01*
X137587619Y-107051904D02*
X137540000Y-107004285D01*
X137492380Y-106909047D01*
X137492380Y-106670952D01*
X137540000Y-106575714D01*
X137587619Y-106528095D01*
X137682857Y-106480476D01*
X137778095Y-106480476D01*
X137920952Y-106528095D01*
X138492380Y-107099523D01*
X138492380Y-106480476D01*
X137492380Y-106147142D02*
X137492380Y-105528095D01*
X137873333Y-105861428D01*
X137873333Y-105718571D01*
X137920952Y-105623333D01*
X137968571Y-105575714D01*
X138063809Y-105528095D01*
X138301904Y-105528095D01*
X138397142Y-105575714D01*
X138444761Y-105623333D01*
X138492380Y-105718571D01*
X138492380Y-106004285D01*
X138444761Y-106099523D01*
X138397142Y-106147142D01*
%TO.C,R24*%
X121352380Y-83222857D02*
X120876190Y-83556190D01*
X121352380Y-83794285D02*
X120352380Y-83794285D01*
X120352380Y-83413333D01*
X120400000Y-83318095D01*
X120447619Y-83270476D01*
X120542857Y-83222857D01*
X120685714Y-83222857D01*
X120780952Y-83270476D01*
X120828571Y-83318095D01*
X120876190Y-83413333D01*
X120876190Y-83794285D01*
X120447619Y-82841904D02*
X120400000Y-82794285D01*
X120352380Y-82699047D01*
X120352380Y-82460952D01*
X120400000Y-82365714D01*
X120447619Y-82318095D01*
X120542857Y-82270476D01*
X120638095Y-82270476D01*
X120780952Y-82318095D01*
X121352380Y-82889523D01*
X121352380Y-82270476D01*
X120685714Y-81413333D02*
X121352380Y-81413333D01*
X120304761Y-81651428D02*
X121019047Y-81889523D01*
X121019047Y-81270476D01*
%TO.C,C2*%
X145097142Y-91836666D02*
X145144761Y-91884285D01*
X145192380Y-92027142D01*
X145192380Y-92122380D01*
X145144761Y-92265238D01*
X145049523Y-92360476D01*
X144954285Y-92408095D01*
X144763809Y-92455714D01*
X144620952Y-92455714D01*
X144430476Y-92408095D01*
X144335238Y-92360476D01*
X144240000Y-92265238D01*
X144192380Y-92122380D01*
X144192380Y-92027142D01*
X144240000Y-91884285D01*
X144287619Y-91836666D01*
X144287619Y-91455714D02*
X144240000Y-91408095D01*
X144192380Y-91312857D01*
X144192380Y-91074761D01*
X144240000Y-90979523D01*
X144287619Y-90931904D01*
X144382857Y-90884285D01*
X144478095Y-90884285D01*
X144620952Y-90931904D01*
X145192380Y-91503333D01*
X145192380Y-90884285D01*
%TO.C,R13*%
X136637380Y-86812857D02*
X136161190Y-87146190D01*
X136637380Y-87384285D02*
X135637380Y-87384285D01*
X135637380Y-87003333D01*
X135685000Y-86908095D01*
X135732619Y-86860476D01*
X135827857Y-86812857D01*
X135970714Y-86812857D01*
X136065952Y-86860476D01*
X136113571Y-86908095D01*
X136161190Y-87003333D01*
X136161190Y-87384285D01*
X136637380Y-85860476D02*
X136637380Y-86431904D01*
X136637380Y-86146190D02*
X135637380Y-86146190D01*
X135780238Y-86241428D01*
X135875476Y-86336666D01*
X135923095Y-86431904D01*
X135637380Y-85527142D02*
X135637380Y-84908095D01*
X136018333Y-85241428D01*
X136018333Y-85098571D01*
X136065952Y-85003333D01*
X136113571Y-84955714D01*
X136208809Y-84908095D01*
X136446904Y-84908095D01*
X136542142Y-84955714D01*
X136589761Y-85003333D01*
X136637380Y-85098571D01*
X136637380Y-85384285D01*
X136589761Y-85479523D01*
X136542142Y-85527142D01*
%TO.C,C11*%
X140252142Y-77267142D02*
X140204523Y-77314761D01*
X140061666Y-77362380D01*
X139966428Y-77362380D01*
X139823571Y-77314761D01*
X139728333Y-77219523D01*
X139680714Y-77124285D01*
X139633095Y-76933809D01*
X139633095Y-76790952D01*
X139680714Y-76600476D01*
X139728333Y-76505238D01*
X139823571Y-76410000D01*
X139966428Y-76362380D01*
X140061666Y-76362380D01*
X140204523Y-76410000D01*
X140252142Y-76457619D01*
X141204523Y-77362380D02*
X140633095Y-77362380D01*
X140918809Y-77362380D02*
X140918809Y-76362380D01*
X140823571Y-76505238D01*
X140728333Y-76600476D01*
X140633095Y-76648095D01*
X142156904Y-77362380D02*
X141585476Y-77362380D01*
X141871190Y-77362380D02*
X141871190Y-76362380D01*
X141775952Y-76505238D01*
X141680714Y-76600476D01*
X141585476Y-76648095D01*
%TO.C,R16*%
X130637142Y-111582380D02*
X130303809Y-111106190D01*
X130065714Y-111582380D02*
X130065714Y-110582380D01*
X130446666Y-110582380D01*
X130541904Y-110630000D01*
X130589523Y-110677619D01*
X130637142Y-110772857D01*
X130637142Y-110915714D01*
X130589523Y-111010952D01*
X130541904Y-111058571D01*
X130446666Y-111106190D01*
X130065714Y-111106190D01*
X131589523Y-111582380D02*
X131018095Y-111582380D01*
X131303809Y-111582380D02*
X131303809Y-110582380D01*
X131208571Y-110725238D01*
X131113333Y-110820476D01*
X131018095Y-110868095D01*
X132446666Y-110582380D02*
X132256190Y-110582380D01*
X132160952Y-110630000D01*
X132113333Y-110677619D01*
X132018095Y-110820476D01*
X131970476Y-111010952D01*
X131970476Y-111391904D01*
X132018095Y-111487142D01*
X132065714Y-111534761D01*
X132160952Y-111582380D01*
X132351428Y-111582380D01*
X132446666Y-111534761D01*
X132494285Y-111487142D01*
X132541904Y-111391904D01*
X132541904Y-111153809D01*
X132494285Y-111058571D01*
X132446666Y-111010952D01*
X132351428Y-110963333D01*
X132160952Y-110963333D01*
X132065714Y-111010952D01*
X132018095Y-111058571D01*
X131970476Y-111153809D01*
%TO.C,U6*%
X120658095Y-88592380D02*
X120658095Y-89401904D01*
X120705714Y-89497142D01*
X120753333Y-89544761D01*
X120848571Y-89592380D01*
X121039047Y-89592380D01*
X121134285Y-89544761D01*
X121181904Y-89497142D01*
X121229523Y-89401904D01*
X121229523Y-88592380D01*
X122134285Y-88592380D02*
X121943809Y-88592380D01*
X121848571Y-88640000D01*
X121800952Y-88687619D01*
X121705714Y-88830476D01*
X121658095Y-89020952D01*
X121658095Y-89401904D01*
X121705714Y-89497142D01*
X121753333Y-89544761D01*
X121848571Y-89592380D01*
X122039047Y-89592380D01*
X122134285Y-89544761D01*
X122181904Y-89497142D01*
X122229523Y-89401904D01*
X122229523Y-89163809D01*
X122181904Y-89068571D01*
X122134285Y-89020952D01*
X122039047Y-88973333D01*
X121848571Y-88973333D01*
X121753333Y-89020952D01*
X121705714Y-89068571D01*
X121658095Y-89163809D01*
%TO.C,U1*%
X160782380Y-85491904D02*
X161591904Y-85491904D01*
X161687142Y-85444285D01*
X161734761Y-85396666D01*
X161782380Y-85301428D01*
X161782380Y-85110952D01*
X161734761Y-85015714D01*
X161687142Y-84968095D01*
X161591904Y-84920476D01*
X160782380Y-84920476D01*
X161782380Y-83920476D02*
X161782380Y-84491904D01*
X161782380Y-84206190D02*
X160782380Y-84206190D01*
X160925238Y-84301428D01*
X161020476Y-84396666D01*
X161068095Y-84491904D01*
D11*
%TO.C,D3*%
X174123452Y-118896190D02*
X174123452Y-118396190D01*
X174242500Y-118396190D01*
X174313928Y-118420000D01*
X174361547Y-118467619D01*
X174385357Y-118515238D01*
X174409166Y-118610476D01*
X174409166Y-118681904D01*
X174385357Y-118777142D01*
X174361547Y-118824761D01*
X174313928Y-118872380D01*
X174242500Y-118896190D01*
X174123452Y-118896190D01*
X174575833Y-118396190D02*
X174885357Y-118396190D01*
X174718690Y-118586666D01*
X174790119Y-118586666D01*
X174837738Y-118610476D01*
X174861547Y-118634285D01*
X174885357Y-118681904D01*
X174885357Y-118800952D01*
X174861547Y-118848571D01*
X174837738Y-118872380D01*
X174790119Y-118896190D01*
X174647261Y-118896190D01*
X174599642Y-118872380D01*
X174575833Y-118848571D01*
D10*
%TO.C,R18*%
X131217142Y-103902380D02*
X130883809Y-103426190D01*
X130645714Y-103902380D02*
X130645714Y-102902380D01*
X131026666Y-102902380D01*
X131121904Y-102950000D01*
X131169523Y-102997619D01*
X131217142Y-103092857D01*
X131217142Y-103235714D01*
X131169523Y-103330952D01*
X131121904Y-103378571D01*
X131026666Y-103426190D01*
X130645714Y-103426190D01*
X132169523Y-103902380D02*
X131598095Y-103902380D01*
X131883809Y-103902380D02*
X131883809Y-102902380D01*
X131788571Y-103045238D01*
X131693333Y-103140476D01*
X131598095Y-103188095D01*
X132740952Y-103330952D02*
X132645714Y-103283333D01*
X132598095Y-103235714D01*
X132550476Y-103140476D01*
X132550476Y-103092857D01*
X132598095Y-102997619D01*
X132645714Y-102950000D01*
X132740952Y-102902380D01*
X132931428Y-102902380D01*
X133026666Y-102950000D01*
X133074285Y-102997619D01*
X133121904Y-103092857D01*
X133121904Y-103140476D01*
X133074285Y-103235714D01*
X133026666Y-103283333D01*
X132931428Y-103330952D01*
X132740952Y-103330952D01*
X132645714Y-103378571D01*
X132598095Y-103426190D01*
X132550476Y-103521428D01*
X132550476Y-103711904D01*
X132598095Y-103807142D01*
X132645714Y-103854761D01*
X132740952Y-103902380D01*
X132931428Y-103902380D01*
X133026666Y-103854761D01*
X133074285Y-103807142D01*
X133121904Y-103711904D01*
X133121904Y-103521428D01*
X133074285Y-103426190D01*
X133026666Y-103378571D01*
X132931428Y-103330952D01*
%TO.C,C26*%
X158912142Y-80457142D02*
X158864523Y-80504761D01*
X158721666Y-80552380D01*
X158626428Y-80552380D01*
X158483571Y-80504761D01*
X158388333Y-80409523D01*
X158340714Y-80314285D01*
X158293095Y-80123809D01*
X158293095Y-79980952D01*
X158340714Y-79790476D01*
X158388333Y-79695238D01*
X158483571Y-79600000D01*
X158626428Y-79552380D01*
X158721666Y-79552380D01*
X158864523Y-79600000D01*
X158912142Y-79647619D01*
X159293095Y-79647619D02*
X159340714Y-79600000D01*
X159435952Y-79552380D01*
X159674047Y-79552380D01*
X159769285Y-79600000D01*
X159816904Y-79647619D01*
X159864523Y-79742857D01*
X159864523Y-79838095D01*
X159816904Y-79980952D01*
X159245476Y-80552380D01*
X159864523Y-80552380D01*
X160721666Y-79552380D02*
X160531190Y-79552380D01*
X160435952Y-79600000D01*
X160388333Y-79647619D01*
X160293095Y-79790476D01*
X160245476Y-79980952D01*
X160245476Y-80361904D01*
X160293095Y-80457142D01*
X160340714Y-80504761D01*
X160435952Y-80552380D01*
X160626428Y-80552380D01*
X160721666Y-80504761D01*
X160769285Y-80457142D01*
X160816904Y-80361904D01*
X160816904Y-80123809D01*
X160769285Y-80028571D01*
X160721666Y-79980952D01*
X160626428Y-79933333D01*
X160435952Y-79933333D01*
X160340714Y-79980952D01*
X160293095Y-80028571D01*
X160245476Y-80123809D01*
%TO.C,R23*%
X121352380Y-79002857D02*
X120876190Y-79336190D01*
X121352380Y-79574285D02*
X120352380Y-79574285D01*
X120352380Y-79193333D01*
X120400000Y-79098095D01*
X120447619Y-79050476D01*
X120542857Y-79002857D01*
X120685714Y-79002857D01*
X120780952Y-79050476D01*
X120828571Y-79098095D01*
X120876190Y-79193333D01*
X120876190Y-79574285D01*
X120447619Y-78621904D02*
X120400000Y-78574285D01*
X120352380Y-78479047D01*
X120352380Y-78240952D01*
X120400000Y-78145714D01*
X120447619Y-78098095D01*
X120542857Y-78050476D01*
X120638095Y-78050476D01*
X120780952Y-78098095D01*
X121352380Y-78669523D01*
X121352380Y-78050476D01*
X120352380Y-77717142D02*
X120352380Y-77098095D01*
X120733333Y-77431428D01*
X120733333Y-77288571D01*
X120780952Y-77193333D01*
X120828571Y-77145714D01*
X120923809Y-77098095D01*
X121161904Y-77098095D01*
X121257142Y-77145714D01*
X121304761Y-77193333D01*
X121352380Y-77288571D01*
X121352380Y-77574285D01*
X121304761Y-77669523D01*
X121257142Y-77717142D01*
%TO.C,J1*%
X159682380Y-99563333D02*
X160396666Y-99563333D01*
X160539523Y-99610952D01*
X160634761Y-99706190D01*
X160682380Y-99849047D01*
X160682380Y-99944285D01*
X160682380Y-98563333D02*
X160682380Y-99134761D01*
X160682380Y-98849047D02*
X159682380Y-98849047D01*
X159825238Y-98944285D01*
X159920476Y-99039523D01*
X159968095Y-99134761D01*
%TO.C,C28*%
X124867142Y-85707142D02*
X124819523Y-85754761D01*
X124676666Y-85802380D01*
X124581428Y-85802380D01*
X124438571Y-85754761D01*
X124343333Y-85659523D01*
X124295714Y-85564285D01*
X124248095Y-85373809D01*
X124248095Y-85230952D01*
X124295714Y-85040476D01*
X124343333Y-84945238D01*
X124438571Y-84850000D01*
X124581428Y-84802380D01*
X124676666Y-84802380D01*
X124819523Y-84850000D01*
X124867142Y-84897619D01*
X125248095Y-84897619D02*
X125295714Y-84850000D01*
X125390952Y-84802380D01*
X125629047Y-84802380D01*
X125724285Y-84850000D01*
X125771904Y-84897619D01*
X125819523Y-84992857D01*
X125819523Y-85088095D01*
X125771904Y-85230952D01*
X125200476Y-85802380D01*
X125819523Y-85802380D01*
X126390952Y-85230952D02*
X126295714Y-85183333D01*
X126248095Y-85135714D01*
X126200476Y-85040476D01*
X126200476Y-84992857D01*
X126248095Y-84897619D01*
X126295714Y-84850000D01*
X126390952Y-84802380D01*
X126581428Y-84802380D01*
X126676666Y-84850000D01*
X126724285Y-84897619D01*
X126771904Y-84992857D01*
X126771904Y-85040476D01*
X126724285Y-85135714D01*
X126676666Y-85183333D01*
X126581428Y-85230952D01*
X126390952Y-85230952D01*
X126295714Y-85278571D01*
X126248095Y-85326190D01*
X126200476Y-85421428D01*
X126200476Y-85611904D01*
X126248095Y-85707142D01*
X126295714Y-85754761D01*
X126390952Y-85802380D01*
X126581428Y-85802380D01*
X126676666Y-85754761D01*
X126724285Y-85707142D01*
X126771904Y-85611904D01*
X126771904Y-85421428D01*
X126724285Y-85326190D01*
X126676666Y-85278571D01*
X126581428Y-85230952D01*
%TO.C,U7*%
X125838095Y-97762380D02*
X125838095Y-98571904D01*
X125885714Y-98667142D01*
X125933333Y-98714761D01*
X126028571Y-98762380D01*
X126219047Y-98762380D01*
X126314285Y-98714761D01*
X126361904Y-98667142D01*
X126409523Y-98571904D01*
X126409523Y-97762380D01*
X126790476Y-97762380D02*
X127457142Y-97762380D01*
X127028571Y-98762380D01*
%TO.C,R15*%
X153542142Y-90892380D02*
X153208809Y-90416190D01*
X152970714Y-90892380D02*
X152970714Y-89892380D01*
X153351666Y-89892380D01*
X153446904Y-89940000D01*
X153494523Y-89987619D01*
X153542142Y-90082857D01*
X153542142Y-90225714D01*
X153494523Y-90320952D01*
X153446904Y-90368571D01*
X153351666Y-90416190D01*
X152970714Y-90416190D01*
X154494523Y-90892380D02*
X153923095Y-90892380D01*
X154208809Y-90892380D02*
X154208809Y-89892380D01*
X154113571Y-90035238D01*
X154018333Y-90130476D01*
X153923095Y-90178095D01*
X155399285Y-89892380D02*
X154923095Y-89892380D01*
X154875476Y-90368571D01*
X154923095Y-90320952D01*
X155018333Y-90273333D01*
X155256428Y-90273333D01*
X155351666Y-90320952D01*
X155399285Y-90368571D01*
X155446904Y-90463809D01*
X155446904Y-90701904D01*
X155399285Y-90797142D01*
X155351666Y-90844761D01*
X155256428Y-90892380D01*
X155018333Y-90892380D01*
X154923095Y-90844761D01*
X154875476Y-90797142D01*
%TO.C,C19*%
X120797142Y-110487142D02*
X120749523Y-110534761D01*
X120606666Y-110582380D01*
X120511428Y-110582380D01*
X120368571Y-110534761D01*
X120273333Y-110439523D01*
X120225714Y-110344285D01*
X120178095Y-110153809D01*
X120178095Y-110010952D01*
X120225714Y-109820476D01*
X120273333Y-109725238D01*
X120368571Y-109630000D01*
X120511428Y-109582380D01*
X120606666Y-109582380D01*
X120749523Y-109630000D01*
X120797142Y-109677619D01*
X121749523Y-110582380D02*
X121178095Y-110582380D01*
X121463809Y-110582380D02*
X121463809Y-109582380D01*
X121368571Y-109725238D01*
X121273333Y-109820476D01*
X121178095Y-109868095D01*
X122225714Y-110582380D02*
X122416190Y-110582380D01*
X122511428Y-110534761D01*
X122559047Y-110487142D01*
X122654285Y-110344285D01*
X122701904Y-110153809D01*
X122701904Y-109772857D01*
X122654285Y-109677619D01*
X122606666Y-109630000D01*
X122511428Y-109582380D01*
X122320952Y-109582380D01*
X122225714Y-109630000D01*
X122178095Y-109677619D01*
X122130476Y-109772857D01*
X122130476Y-110010952D01*
X122178095Y-110106190D01*
X122225714Y-110153809D01*
X122320952Y-110201428D01*
X122511428Y-110201428D01*
X122606666Y-110153809D01*
X122654285Y-110106190D01*
X122701904Y-110010952D01*
%TO.C,C16*%
X149917142Y-90657142D02*
X149869523Y-90704761D01*
X149726666Y-90752380D01*
X149631428Y-90752380D01*
X149488571Y-90704761D01*
X149393333Y-90609523D01*
X149345714Y-90514285D01*
X149298095Y-90323809D01*
X149298095Y-90180952D01*
X149345714Y-89990476D01*
X149393333Y-89895238D01*
X149488571Y-89800000D01*
X149631428Y-89752380D01*
X149726666Y-89752380D01*
X149869523Y-89800000D01*
X149917142Y-89847619D01*
X150869523Y-90752380D02*
X150298095Y-90752380D01*
X150583809Y-90752380D02*
X150583809Y-89752380D01*
X150488571Y-89895238D01*
X150393333Y-89990476D01*
X150298095Y-90038095D01*
X151726666Y-89752380D02*
X151536190Y-89752380D01*
X151440952Y-89800000D01*
X151393333Y-89847619D01*
X151298095Y-89990476D01*
X151250476Y-90180952D01*
X151250476Y-90561904D01*
X151298095Y-90657142D01*
X151345714Y-90704761D01*
X151440952Y-90752380D01*
X151631428Y-90752380D01*
X151726666Y-90704761D01*
X151774285Y-90657142D01*
X151821904Y-90561904D01*
X151821904Y-90323809D01*
X151774285Y-90228571D01*
X151726666Y-90180952D01*
X151631428Y-90133333D01*
X151440952Y-90133333D01*
X151345714Y-90180952D01*
X151298095Y-90228571D01*
X151250476Y-90323809D01*
%TO.C,C29*%
X136897142Y-96827142D02*
X136849523Y-96874761D01*
X136706666Y-96922380D01*
X136611428Y-96922380D01*
X136468571Y-96874761D01*
X136373333Y-96779523D01*
X136325714Y-96684285D01*
X136278095Y-96493809D01*
X136278095Y-96350952D01*
X136325714Y-96160476D01*
X136373333Y-96065238D01*
X136468571Y-95970000D01*
X136611428Y-95922380D01*
X136706666Y-95922380D01*
X136849523Y-95970000D01*
X136897142Y-96017619D01*
X137278095Y-96017619D02*
X137325714Y-95970000D01*
X137420952Y-95922380D01*
X137659047Y-95922380D01*
X137754285Y-95970000D01*
X137801904Y-96017619D01*
X137849523Y-96112857D01*
X137849523Y-96208095D01*
X137801904Y-96350952D01*
X137230476Y-96922380D01*
X137849523Y-96922380D01*
X138325714Y-96922380D02*
X138516190Y-96922380D01*
X138611428Y-96874761D01*
X138659047Y-96827142D01*
X138754285Y-96684285D01*
X138801904Y-96493809D01*
X138801904Y-96112857D01*
X138754285Y-96017619D01*
X138706666Y-95970000D01*
X138611428Y-95922380D01*
X138420952Y-95922380D01*
X138325714Y-95970000D01*
X138278095Y-96017619D01*
X138230476Y-96112857D01*
X138230476Y-96350952D01*
X138278095Y-96446190D01*
X138325714Y-96493809D01*
X138420952Y-96541428D01*
X138611428Y-96541428D01*
X138706666Y-96493809D01*
X138754285Y-96446190D01*
X138801904Y-96350952D01*
%TO.C,C25*%
X136697142Y-109002857D02*
X136744761Y-109050476D01*
X136792380Y-109193333D01*
X136792380Y-109288571D01*
X136744761Y-109431428D01*
X136649523Y-109526666D01*
X136554285Y-109574285D01*
X136363809Y-109621904D01*
X136220952Y-109621904D01*
X136030476Y-109574285D01*
X135935238Y-109526666D01*
X135840000Y-109431428D01*
X135792380Y-109288571D01*
X135792380Y-109193333D01*
X135840000Y-109050476D01*
X135887619Y-109002857D01*
X135887619Y-108621904D02*
X135840000Y-108574285D01*
X135792380Y-108479047D01*
X135792380Y-108240952D01*
X135840000Y-108145714D01*
X135887619Y-108098095D01*
X135982857Y-108050476D01*
X136078095Y-108050476D01*
X136220952Y-108098095D01*
X136792380Y-108669523D01*
X136792380Y-108050476D01*
X135792380Y-107145714D02*
X135792380Y-107621904D01*
X136268571Y-107669523D01*
X136220952Y-107621904D01*
X136173333Y-107526666D01*
X136173333Y-107288571D01*
X136220952Y-107193333D01*
X136268571Y-107145714D01*
X136363809Y-107098095D01*
X136601904Y-107098095D01*
X136697142Y-107145714D01*
X136744761Y-107193333D01*
X136792380Y-107288571D01*
X136792380Y-107526666D01*
X136744761Y-107621904D01*
X136697142Y-107669523D01*
%TO.C,C10*%
X123992142Y-66547857D02*
X124039761Y-66595476D01*
X124087380Y-66738333D01*
X124087380Y-66833571D01*
X124039761Y-66976428D01*
X123944523Y-67071666D01*
X123849285Y-67119285D01*
X123658809Y-67166904D01*
X123515952Y-67166904D01*
X123325476Y-67119285D01*
X123230238Y-67071666D01*
X123135000Y-66976428D01*
X123087380Y-66833571D01*
X123087380Y-66738333D01*
X123135000Y-66595476D01*
X123182619Y-66547857D01*
X124087380Y-65595476D02*
X124087380Y-66166904D01*
X124087380Y-65881190D02*
X123087380Y-65881190D01*
X123230238Y-65976428D01*
X123325476Y-66071666D01*
X123373095Y-66166904D01*
X123087380Y-64976428D02*
X123087380Y-64881190D01*
X123135000Y-64785952D01*
X123182619Y-64738333D01*
X123277857Y-64690714D01*
X123468333Y-64643095D01*
X123706428Y-64643095D01*
X123896904Y-64690714D01*
X123992142Y-64738333D01*
X124039761Y-64785952D01*
X124087380Y-64881190D01*
X124087380Y-64976428D01*
X124039761Y-65071666D01*
X123992142Y-65119285D01*
X123896904Y-65166904D01*
X123706428Y-65214523D01*
X123468333Y-65214523D01*
X123277857Y-65166904D01*
X123182619Y-65119285D01*
X123135000Y-65071666D01*
X123087380Y-64976428D01*
%TO.C,R29*%
X169847142Y-102962380D02*
X169513809Y-102486190D01*
X169275714Y-102962380D02*
X169275714Y-101962380D01*
X169656666Y-101962380D01*
X169751904Y-102010000D01*
X169799523Y-102057619D01*
X169847142Y-102152857D01*
X169847142Y-102295714D01*
X169799523Y-102390952D01*
X169751904Y-102438571D01*
X169656666Y-102486190D01*
X169275714Y-102486190D01*
X170228095Y-102057619D02*
X170275714Y-102010000D01*
X170370952Y-101962380D01*
X170609047Y-101962380D01*
X170704285Y-102010000D01*
X170751904Y-102057619D01*
X170799523Y-102152857D01*
X170799523Y-102248095D01*
X170751904Y-102390952D01*
X170180476Y-102962380D01*
X170799523Y-102962380D01*
X171275714Y-102962380D02*
X171466190Y-102962380D01*
X171561428Y-102914761D01*
X171609047Y-102867142D01*
X171704285Y-102724285D01*
X171751904Y-102533809D01*
X171751904Y-102152857D01*
X171704285Y-102057619D01*
X171656666Y-102010000D01*
X171561428Y-101962380D01*
X171370952Y-101962380D01*
X171275714Y-102010000D01*
X171228095Y-102057619D01*
X171180476Y-102152857D01*
X171180476Y-102390952D01*
X171228095Y-102486190D01*
X171275714Y-102533809D01*
X171370952Y-102581428D01*
X171561428Y-102581428D01*
X171656666Y-102533809D01*
X171704285Y-102486190D01*
X171751904Y-102390952D01*
%TO.C,R27*%
X114037142Y-96462380D02*
X113703809Y-95986190D01*
X113465714Y-96462380D02*
X113465714Y-95462380D01*
X113846666Y-95462380D01*
X113941904Y-95510000D01*
X113989523Y-95557619D01*
X114037142Y-95652857D01*
X114037142Y-95795714D01*
X113989523Y-95890952D01*
X113941904Y-95938571D01*
X113846666Y-95986190D01*
X113465714Y-95986190D01*
X114418095Y-95557619D02*
X114465714Y-95510000D01*
X114560952Y-95462380D01*
X114799047Y-95462380D01*
X114894285Y-95510000D01*
X114941904Y-95557619D01*
X114989523Y-95652857D01*
X114989523Y-95748095D01*
X114941904Y-95890952D01*
X114370476Y-96462380D01*
X114989523Y-96462380D01*
X115322857Y-95462380D02*
X115989523Y-95462380D01*
X115560952Y-96462380D01*
%TO.C,U2*%
X141728095Y-92222380D02*
X141728095Y-93031904D01*
X141775714Y-93127142D01*
X141823333Y-93174761D01*
X141918571Y-93222380D01*
X142109047Y-93222380D01*
X142204285Y-93174761D01*
X142251904Y-93127142D01*
X142299523Y-93031904D01*
X142299523Y-92222380D01*
X142728095Y-92317619D02*
X142775714Y-92270000D01*
X142870952Y-92222380D01*
X143109047Y-92222380D01*
X143204285Y-92270000D01*
X143251904Y-92317619D01*
X143299523Y-92412857D01*
X143299523Y-92508095D01*
X143251904Y-92650952D01*
X142680476Y-93222380D01*
X143299523Y-93222380D01*
%TO.C,U3*%
X156452380Y-119581904D02*
X157261904Y-119581904D01*
X157357142Y-119534285D01*
X157404761Y-119486666D01*
X157452380Y-119391428D01*
X157452380Y-119200952D01*
X157404761Y-119105714D01*
X157357142Y-119058095D01*
X157261904Y-119010476D01*
X156452380Y-119010476D01*
X156452380Y-118629523D02*
X156452380Y-118010476D01*
X156833333Y-118343809D01*
X156833333Y-118200952D01*
X156880952Y-118105714D01*
X156928571Y-118058095D01*
X157023809Y-118010476D01*
X157261904Y-118010476D01*
X157357142Y-118058095D01*
X157404761Y-118105714D01*
X157452380Y-118200952D01*
X157452380Y-118486666D01*
X157404761Y-118581904D01*
X157357142Y-118629523D01*
%TO.C,C6*%
X156477142Y-123596666D02*
X156524761Y-123644285D01*
X156572380Y-123787142D01*
X156572380Y-123882380D01*
X156524761Y-124025238D01*
X156429523Y-124120476D01*
X156334285Y-124168095D01*
X156143809Y-124215714D01*
X156000952Y-124215714D01*
X155810476Y-124168095D01*
X155715238Y-124120476D01*
X155620000Y-124025238D01*
X155572380Y-123882380D01*
X155572380Y-123787142D01*
X155620000Y-123644285D01*
X155667619Y-123596666D01*
X155572380Y-122739523D02*
X155572380Y-122930000D01*
X155620000Y-123025238D01*
X155667619Y-123072857D01*
X155810476Y-123168095D01*
X156000952Y-123215714D01*
X156381904Y-123215714D01*
X156477142Y-123168095D01*
X156524761Y-123120476D01*
X156572380Y-123025238D01*
X156572380Y-122834761D01*
X156524761Y-122739523D01*
X156477142Y-122691904D01*
X156381904Y-122644285D01*
X156143809Y-122644285D01*
X156048571Y-122691904D01*
X156000952Y-122739523D01*
X155953333Y-122834761D01*
X155953333Y-123025238D01*
X156000952Y-123120476D01*
X156048571Y-123168095D01*
X156143809Y-123215714D01*
%TO.C,U4*%
X132367380Y-66474404D02*
X133176904Y-66474404D01*
X133272142Y-66426785D01*
X133319761Y-66379166D01*
X133367380Y-66283928D01*
X133367380Y-66093452D01*
X133319761Y-65998214D01*
X133272142Y-65950595D01*
X133176904Y-65902976D01*
X132367380Y-65902976D01*
X132700714Y-64998214D02*
X133367380Y-64998214D01*
X132319761Y-65236309D02*
X133034047Y-65474404D01*
X133034047Y-64855357D01*
%TO.C,R6*%
X153423333Y-115512380D02*
X153090000Y-115036190D01*
X152851904Y-115512380D02*
X152851904Y-114512380D01*
X153232857Y-114512380D01*
X153328095Y-114560000D01*
X153375714Y-114607619D01*
X153423333Y-114702857D01*
X153423333Y-114845714D01*
X153375714Y-114940952D01*
X153328095Y-114988571D01*
X153232857Y-115036190D01*
X152851904Y-115036190D01*
X154280476Y-114512380D02*
X154090000Y-114512380D01*
X153994761Y-114560000D01*
X153947142Y-114607619D01*
X153851904Y-114750476D01*
X153804285Y-114940952D01*
X153804285Y-115321904D01*
X153851904Y-115417142D01*
X153899523Y-115464761D01*
X153994761Y-115512380D01*
X154185238Y-115512380D01*
X154280476Y-115464761D01*
X154328095Y-115417142D01*
X154375714Y-115321904D01*
X154375714Y-115083809D01*
X154328095Y-114988571D01*
X154280476Y-114940952D01*
X154185238Y-114893333D01*
X153994761Y-114893333D01*
X153899523Y-114940952D01*
X153851904Y-114988571D01*
X153804285Y-115083809D01*
D11*
%TO.C,D4*%
X169477202Y-118916190D02*
X169477202Y-118416190D01*
X169596250Y-118416190D01*
X169667678Y-118440000D01*
X169715297Y-118487619D01*
X169739107Y-118535238D01*
X169762916Y-118630476D01*
X169762916Y-118701904D01*
X169739107Y-118797142D01*
X169715297Y-118844761D01*
X169667678Y-118892380D01*
X169596250Y-118916190D01*
X169477202Y-118916190D01*
X170191488Y-118582857D02*
X170191488Y-118916190D01*
X170072440Y-118392380D02*
X169953392Y-118749523D01*
X170262916Y-118749523D01*
D10*
%TO.C,R5*%
X153433333Y-117582380D02*
X153100000Y-117106190D01*
X152861904Y-117582380D02*
X152861904Y-116582380D01*
X153242857Y-116582380D01*
X153338095Y-116630000D01*
X153385714Y-116677619D01*
X153433333Y-116772857D01*
X153433333Y-116915714D01*
X153385714Y-117010952D01*
X153338095Y-117058571D01*
X153242857Y-117106190D01*
X152861904Y-117106190D01*
X154338095Y-116582380D02*
X153861904Y-116582380D01*
X153814285Y-117058571D01*
X153861904Y-117010952D01*
X153957142Y-116963333D01*
X154195238Y-116963333D01*
X154290476Y-117010952D01*
X154338095Y-117058571D01*
X154385714Y-117153809D01*
X154385714Y-117391904D01*
X154338095Y-117487142D01*
X154290476Y-117534761D01*
X154195238Y-117582380D01*
X153957142Y-117582380D01*
X153861904Y-117534761D01*
X153814285Y-117487142D01*
%TO.C,R10*%
X116917142Y-96462380D02*
X116583809Y-95986190D01*
X116345714Y-96462380D02*
X116345714Y-95462380D01*
X116726666Y-95462380D01*
X116821904Y-95510000D01*
X116869523Y-95557619D01*
X116917142Y-95652857D01*
X116917142Y-95795714D01*
X116869523Y-95890952D01*
X116821904Y-95938571D01*
X116726666Y-95986190D01*
X116345714Y-95986190D01*
X117869523Y-96462380D02*
X117298095Y-96462380D01*
X117583809Y-96462380D02*
X117583809Y-95462380D01*
X117488571Y-95605238D01*
X117393333Y-95700476D01*
X117298095Y-95748095D01*
X118488571Y-95462380D02*
X118583809Y-95462380D01*
X118679047Y-95510000D01*
X118726666Y-95557619D01*
X118774285Y-95652857D01*
X118821904Y-95843333D01*
X118821904Y-96081428D01*
X118774285Y-96271904D01*
X118726666Y-96367142D01*
X118679047Y-96414761D01*
X118583809Y-96462380D01*
X118488571Y-96462380D01*
X118393333Y-96414761D01*
X118345714Y-96367142D01*
X118298095Y-96271904D01*
X118250476Y-96081428D01*
X118250476Y-95843333D01*
X118298095Y-95652857D01*
X118345714Y-95557619D01*
X118393333Y-95510000D01*
X118488571Y-95462380D01*
%TO.C,C32*%
X137787142Y-67792857D02*
X137834761Y-67840476D01*
X137882380Y-67983333D01*
X137882380Y-68078571D01*
X137834761Y-68221428D01*
X137739523Y-68316666D01*
X137644285Y-68364285D01*
X137453809Y-68411904D01*
X137310952Y-68411904D01*
X137120476Y-68364285D01*
X137025238Y-68316666D01*
X136930000Y-68221428D01*
X136882380Y-68078571D01*
X136882380Y-67983333D01*
X136930000Y-67840476D01*
X136977619Y-67792857D01*
X136882380Y-67459523D02*
X136882380Y-66840476D01*
X137263333Y-67173809D01*
X137263333Y-67030952D01*
X137310952Y-66935714D01*
X137358571Y-66888095D01*
X137453809Y-66840476D01*
X137691904Y-66840476D01*
X137787142Y-66888095D01*
X137834761Y-66935714D01*
X137882380Y-67030952D01*
X137882380Y-67316666D01*
X137834761Y-67411904D01*
X137787142Y-67459523D01*
X136977619Y-66459523D02*
X136930000Y-66411904D01*
X136882380Y-66316666D01*
X136882380Y-66078571D01*
X136930000Y-65983333D01*
X136977619Y-65935714D01*
X137072857Y-65888095D01*
X137168095Y-65888095D01*
X137310952Y-65935714D01*
X137882380Y-66507142D01*
X137882380Y-65888095D01*
%TO.C,C5*%
X165943333Y-123787142D02*
X165895714Y-123834761D01*
X165752857Y-123882380D01*
X165657619Y-123882380D01*
X165514761Y-123834761D01*
X165419523Y-123739523D01*
X165371904Y-123644285D01*
X165324285Y-123453809D01*
X165324285Y-123310952D01*
X165371904Y-123120476D01*
X165419523Y-123025238D01*
X165514761Y-122930000D01*
X165657619Y-122882380D01*
X165752857Y-122882380D01*
X165895714Y-122930000D01*
X165943333Y-122977619D01*
X166848095Y-122882380D02*
X166371904Y-122882380D01*
X166324285Y-123358571D01*
X166371904Y-123310952D01*
X166467142Y-123263333D01*
X166705238Y-123263333D01*
X166800476Y-123310952D01*
X166848095Y-123358571D01*
X166895714Y-123453809D01*
X166895714Y-123691904D01*
X166848095Y-123787142D01*
X166800476Y-123834761D01*
X166705238Y-123882380D01*
X166467142Y-123882380D01*
X166371904Y-123834761D01*
X166324285Y-123787142D01*
%TO.C,D6*%
X159391904Y-109762380D02*
X159391904Y-108762380D01*
X159630000Y-108762380D01*
X159772857Y-108810000D01*
X159868095Y-108905238D01*
X159915714Y-109000476D01*
X159963333Y-109190952D01*
X159963333Y-109333809D01*
X159915714Y-109524285D01*
X159868095Y-109619523D01*
X159772857Y-109714761D01*
X159630000Y-109762380D01*
X159391904Y-109762380D01*
X160820476Y-108762380D02*
X160630000Y-108762380D01*
X160534761Y-108810000D01*
X160487142Y-108857619D01*
X160391904Y-109000476D01*
X160344285Y-109190952D01*
X160344285Y-109571904D01*
X160391904Y-109667142D01*
X160439523Y-109714761D01*
X160534761Y-109762380D01*
X160725238Y-109762380D01*
X160820476Y-109714761D01*
X160868095Y-109667142D01*
X160915714Y-109571904D01*
X160915714Y-109333809D01*
X160868095Y-109238571D01*
X160820476Y-109190952D01*
X160725238Y-109143333D01*
X160534761Y-109143333D01*
X160439523Y-109190952D01*
X160391904Y-109238571D01*
X160344285Y-109333809D01*
%TO.C,R11*%
X144577380Y-84002857D02*
X144101190Y-84336190D01*
X144577380Y-84574285D02*
X143577380Y-84574285D01*
X143577380Y-84193333D01*
X143625000Y-84098095D01*
X143672619Y-84050476D01*
X143767857Y-84002857D01*
X143910714Y-84002857D01*
X144005952Y-84050476D01*
X144053571Y-84098095D01*
X144101190Y-84193333D01*
X144101190Y-84574285D01*
X144577380Y-83050476D02*
X144577380Y-83621904D01*
X144577380Y-83336190D02*
X143577380Y-83336190D01*
X143720238Y-83431428D01*
X143815476Y-83526666D01*
X143863095Y-83621904D01*
X144577380Y-82098095D02*
X144577380Y-82669523D01*
X144577380Y-82383809D02*
X143577380Y-82383809D01*
X143720238Y-82479047D01*
X143815476Y-82574285D01*
X143863095Y-82669523D01*
D12*
%TO.C,R9*%
X142727936Y-81565000D02*
X143182064Y-81565000D01*
X142727936Y-80095000D02*
X143182064Y-80095000D01*
%TO.C,R2*%
X173915000Y-105092936D02*
X173915000Y-105547064D01*
X175385000Y-105092936D02*
X175385000Y-105547064D01*
D13*
%TO.C,D2*%
X172996250Y-121615000D02*
G75*
G03*
X172996250Y-121615000I-50000J0D01*
G01*
D12*
%TO.C,C9*%
X150308748Y-112235000D02*
X150831252Y-112235000D01*
X150308748Y-113705000D02*
X150831252Y-113705000D01*
%TO.C,C31*%
X134708748Y-101335000D02*
X135231252Y-101335000D01*
X134708748Y-99865000D02*
X135231252Y-99865000D01*
%TO.C,R1*%
X173265000Y-105092936D02*
X173265000Y-105547064D01*
X171795000Y-105092936D02*
X171795000Y-105547064D01*
%TO.C,R20*%
X135507064Y-103525000D02*
X135052936Y-103525000D01*
X135507064Y-102055000D02*
X135052936Y-102055000D01*
%TO.C,R4*%
X165435000Y-105092936D02*
X165435000Y-105547064D01*
X166905000Y-105092936D02*
X166905000Y-105547064D01*
%TO.C,R25*%
X116305000Y-78162936D02*
X116305000Y-78617064D01*
X114835000Y-78162936D02*
X114835000Y-78617064D01*
%TO.C,C4*%
X164301252Y-114295000D02*
X163778748Y-114295000D01*
X164301252Y-112825000D02*
X163778748Y-112825000D01*
D13*
%TO.C,D5*%
X168366250Y-121615000D02*
G75*
G03*
X168366250Y-121615000I-50000J0D01*
G01*
D12*
%TO.C,R19*%
X153290000Y-80437064D02*
X153290000Y-79982936D01*
X154760000Y-80437064D02*
X154760000Y-79982936D01*
%TO.C,C17*%
X138713748Y-89035000D02*
X139236252Y-89035000D01*
X138713748Y-87565000D02*
X139236252Y-87565000D01*
%TO.C,R7*%
X138707936Y-80155000D02*
X139162064Y-80155000D01*
X138707936Y-81625000D02*
X139162064Y-81625000D01*
%TO.C,C12*%
X139146252Y-83755000D02*
X138623748Y-83755000D01*
X139146252Y-82285000D02*
X138623748Y-82285000D01*
%TO.C,C18*%
X142693748Y-86155000D02*
X143216252Y-86155000D01*
X142693748Y-87625000D02*
X143216252Y-87625000D01*
%TO.C,R3*%
X167555000Y-105092936D02*
X167555000Y-105547064D01*
X169025000Y-105092936D02*
X169025000Y-105547064D01*
%TO.C,R21*%
X157060000Y-80042936D02*
X157060000Y-80497064D01*
X155590000Y-80042936D02*
X155590000Y-80497064D01*
%TO.C,R22*%
X132375000Y-100532936D02*
X132375000Y-100987064D01*
X130905000Y-100532936D02*
X130905000Y-100987064D01*
%TO.C,R17*%
X154410000Y-85747064D02*
X154410000Y-85292936D01*
X152940000Y-85747064D02*
X152940000Y-85292936D01*
%TO.C,C8*%
X158475000Y-112618748D02*
X158475000Y-113141252D01*
X157005000Y-112618748D02*
X157005000Y-113141252D01*
%TO.C,C1*%
X165601252Y-89065000D02*
X165078748Y-89065000D01*
X165601252Y-87595000D02*
X165078748Y-87595000D01*
%TO.C,C15*%
X119805000Y-99498748D02*
X119805000Y-100021252D01*
X118335000Y-99498748D02*
X118335000Y-100021252D01*
%TO.C,C13*%
X118351252Y-88105000D02*
X117828748Y-88105000D01*
X118351252Y-89575000D02*
X117828748Y-89575000D01*
%TO.C,C3*%
X164471252Y-77685000D02*
X163948748Y-77685000D01*
X164471252Y-79155000D02*
X163948748Y-79155000D01*
%TO.C,U5*%
X148815000Y-87305000D02*
X146865000Y-87305000D01*
X148815000Y-78435000D02*
X145365000Y-78435000D01*
X148815000Y-87305000D02*
X150765000Y-87305000D01*
X148815000Y-78435000D02*
X150765000Y-78435000D01*
%TO.C,R14*%
X119852936Y-103335000D02*
X120307064Y-103335000D01*
X119852936Y-104805000D02*
X120307064Y-104805000D01*
%TO.C,C20*%
X117698748Y-107185000D02*
X118221252Y-107185000D01*
X117698748Y-105715000D02*
X118221252Y-105715000D01*
%TO.C,R8*%
X115772936Y-102555000D02*
X116227064Y-102555000D01*
X115772936Y-101085000D02*
X116227064Y-101085000D01*
D13*
%TO.C,D11*%
X171410000Y-121615000D02*
G75*
G03*
X171410000Y-121615000I-50000J0D01*
G01*
D12*
%TO.C,C27*%
X134900000Y-73121937D02*
X134900000Y-82577500D01*
X134900000Y-82577500D02*
X131150000Y-82577500D01*
X133835563Y-72057500D02*
X134900000Y-73121937D01*
X133835563Y-72057500D02*
X131150000Y-72057500D01*
X125444437Y-72057500D02*
X124380000Y-73121937D01*
X124380000Y-82577500D02*
X128130000Y-82577500D01*
X132400000Y-70567500D02*
X132400000Y-71817500D01*
X124380000Y-73121937D02*
X124380000Y-82577500D01*
X125444437Y-72057500D02*
X128130000Y-72057500D01*
X133025000Y-71192500D02*
X131775000Y-71192500D01*
%TO.C,J2*%
X140940000Y-113065000D02*
X126940000Y-113065000D01*
X147940000Y-124710000D02*
X119940000Y-124710000D01*
X147940000Y-124710000D02*
X147940000Y-120710000D01*
X119940000Y-124710000D02*
X119940000Y-120710000D01*
%TO.C,L1*%
X163190000Y-82000000D02*
X165190000Y-82000000D01*
X165190000Y-79800000D02*
X163190000Y-79800000D01*
%TO.C,R12*%
X115792936Y-103355000D02*
X116247064Y-103355000D01*
X115792936Y-104825000D02*
X116247064Y-104825000D01*
%TO.C,C14*%
X120808748Y-95925000D02*
X121331252Y-95925000D01*
X120808748Y-97395000D02*
X121331252Y-97395000D01*
%TO.C,C7*%
X150388748Y-118475000D02*
X150911252Y-118475000D01*
X150388748Y-119945000D02*
X150911252Y-119945000D01*
%TO.C,R28*%
X137165000Y-91782936D02*
X137165000Y-92237064D01*
X135695000Y-91782936D02*
X135695000Y-92237064D01*
%TO.C,D1*%
X168320000Y-82010000D02*
X167670000Y-82010000D01*
X168320000Y-82010000D02*
X168970000Y-82010000D01*
X168320000Y-85130000D02*
X169995000Y-85130000D01*
X168320000Y-85130000D02*
X167670000Y-85130000D01*
%TO.C,C24*%
X156670000Y-85811252D02*
X156670000Y-85288748D01*
X155200000Y-85811252D02*
X155200000Y-85288748D01*
%TO.C,FB1*%
X154875000Y-112638748D02*
X154875000Y-113161252D01*
X156345000Y-112638748D02*
X156345000Y-113161252D01*
%TO.C,R26*%
X116325000Y-82332936D02*
X116325000Y-82787064D01*
X114855000Y-82332936D02*
X114855000Y-82787064D01*
%TO.C,C21*%
X126278748Y-110165000D02*
X126801252Y-110165000D01*
X126278748Y-108695000D02*
X126801252Y-108695000D01*
%TO.C,TP1*%
X162750000Y-103410000D02*
G75*
G03*
X162750000Y-103410000I-700000J0D01*
G01*
%TO.C,C22*%
X158850000Y-85298748D02*
X158850000Y-85821252D01*
X157380000Y-85298748D02*
X157380000Y-85821252D01*
%TO.C,G\u002A\u002A\u002A*%
G36*
X168142502Y-65753889D02*
G01*
X167739327Y-65753889D01*
X167739327Y-63738016D01*
X168142502Y-63738016D01*
X168142502Y-65753889D01*
G37*
G36*
X149381234Y-65169076D02*
G01*
X149366203Y-65191982D01*
X149315088Y-65195545D01*
X149261313Y-65183237D01*
X149284640Y-65165097D01*
X149363404Y-65159089D01*
X149381234Y-65169076D01*
G37*
G36*
X149025306Y-65317116D02*
G01*
X149018388Y-65347077D01*
X148991708Y-65350714D01*
X148950226Y-65332275D01*
X148958110Y-65317116D01*
X149017920Y-65311085D01*
X149025306Y-65317116D01*
G37*
G36*
X149126100Y-65216323D02*
G01*
X149119182Y-65246284D01*
X149092502Y-65249921D01*
X149051020Y-65231481D01*
X149058904Y-65216323D01*
X149118713Y-65210291D01*
X149126100Y-65216323D01*
G37*
G36*
X147900780Y-64905130D02*
G01*
X147882978Y-64720754D01*
X147930221Y-64388205D01*
X148061930Y-64063181D01*
X148263078Y-63769336D01*
X148518637Y-63530325D01*
X148714526Y-63411819D01*
X149019504Y-63314823D01*
X149362328Y-63288381D01*
X149710775Y-63330591D01*
X150032620Y-63439554D01*
X150137420Y-63495750D01*
X150300395Y-63594038D01*
X150204033Y-63782922D01*
X150033155Y-64051195D01*
X149790979Y-64336488D01*
X149516656Y-64598413D01*
X149376684Y-64731469D01*
X149287471Y-64840196D01*
X149255796Y-64912398D01*
X149288440Y-64935881D01*
X149335774Y-64923796D01*
X149515176Y-64836326D01*
X149738994Y-64697262D01*
X149979608Y-64525507D01*
X150209396Y-64339964D01*
X150278427Y-64278671D01*
X150424867Y-64153287D01*
X150543461Y-64067185D01*
X150615712Y-64033154D01*
X150627641Y-64037218D01*
X150606681Y-64093360D01*
X150514212Y-64190686D01*
X150364678Y-64317737D01*
X150172523Y-64463055D01*
X149952192Y-64615183D01*
X149718130Y-64762662D01*
X149697935Y-64774693D01*
X149476762Y-64898400D01*
X149329145Y-64962289D01*
X149248783Y-64968040D01*
X149229373Y-64917333D01*
X149232668Y-64898718D01*
X149222435Y-64853747D01*
X149207470Y-64855935D01*
X148983386Y-64965643D01*
X148823798Y-65051461D01*
X148741672Y-65106335D01*
X148736020Y-65112510D01*
X148668284Y-65151879D01*
X148590610Y-65173926D01*
X148489819Y-65202263D01*
X148440263Y-65231961D01*
X148462204Y-65249181D01*
X148479341Y-65249921D01*
X148534772Y-65287149D01*
X148538137Y-65305709D01*
X148500811Y-65337947D01*
X148449942Y-65327922D01*
X148394007Y-65315272D01*
X148415927Y-65348991D01*
X148499230Y-65383655D01*
X148676457Y-65418415D01*
X148940742Y-65452458D01*
X149285218Y-65484973D01*
X149703020Y-65515149D01*
X149940890Y-65529307D01*
X150562493Y-65563949D01*
X150231857Y-65905079D01*
X148449072Y-65905079D01*
X148272906Y-65710085D01*
X148110743Y-65478874D01*
X148040375Y-65325516D01*
X148235756Y-65325516D01*
X148260954Y-65350714D01*
X148286153Y-65325516D01*
X148260954Y-65300318D01*
X148235756Y-65325516D01*
X148040375Y-65325516D01*
X147981078Y-65196287D01*
X147900780Y-64905130D01*
G37*
G36*
X149034318Y-65018322D02*
G01*
X149088422Y-65069067D01*
X149077323Y-65098240D01*
X149070278Y-65098730D01*
X149027651Y-65062934D01*
X149012094Y-65040547D01*
X149006154Y-65006060D01*
X149034318Y-65018322D01*
G37*
G36*
X153193526Y-63787331D02*
G01*
X153208291Y-63931091D01*
X153218608Y-64163018D01*
X153224148Y-64476835D01*
X153225042Y-64695556D01*
X153225042Y-65653095D01*
X153804605Y-65653095D01*
X154062485Y-65657296D01*
X154252263Y-65669193D01*
X154361767Y-65687728D01*
X154384169Y-65703492D01*
X154335650Y-65725324D01*
X154197383Y-65741560D01*
X153980302Y-65751324D01*
X153754208Y-65753889D01*
X153124248Y-65753889D01*
X153124248Y-64745952D01*
X153126717Y-64375395D01*
X153133930Y-64083948D01*
X153145594Y-63877467D01*
X153161416Y-63761807D01*
X153174645Y-63738016D01*
X153193526Y-63787331D01*
G37*
G36*
X165773851Y-65753889D02*
G01*
X165370677Y-65753889D01*
X165370677Y-63738016D01*
X165773851Y-63738016D01*
X165773851Y-65753889D01*
G37*
G36*
X149730862Y-65065132D02*
G01*
X149723944Y-65095093D01*
X149697264Y-65098730D01*
X149655782Y-65080291D01*
X149663666Y-65065132D01*
X149723475Y-65059101D01*
X149730862Y-65065132D01*
G37*
G36*
X171905653Y-63738431D02*
G01*
X171970632Y-63748076D01*
X171997022Y-63779550D01*
X171981806Y-63845453D01*
X171921968Y-63958385D01*
X171814493Y-64130946D01*
X171656362Y-64375736D01*
X171650127Y-64385374D01*
X171317502Y-64899596D01*
X171317502Y-65753889D01*
X170914327Y-65753889D01*
X170914327Y-64901380D01*
X170561550Y-64342778D01*
X170430423Y-64133484D01*
X170321385Y-63956279D01*
X170244484Y-63827732D01*
X170209769Y-63764413D01*
X170208772Y-63761096D01*
X170253830Y-63747268D01*
X170367703Y-63739027D01*
X170433307Y-63738016D01*
X170545513Y-63740943D01*
X170624235Y-63761398D01*
X170690994Y-63816894D01*
X170767312Y-63924943D01*
X170867964Y-64091703D01*
X170969629Y-64258485D01*
X171053955Y-64388875D01*
X171106412Y-64460653D01*
X171113528Y-64467295D01*
X171152476Y-64436725D01*
X171226120Y-64336333D01*
X171321193Y-64184949D01*
X171362666Y-64113608D01*
X171576362Y-63738016D01*
X171805102Y-63738016D01*
X171905653Y-63738431D01*
G37*
G36*
X150805121Y-64641789D02*
G01*
X150805994Y-64657411D01*
X150760650Y-64703048D01*
X150636389Y-64768855D01*
X150450870Y-64846147D01*
X150339823Y-64886679D01*
X150089985Y-64971547D01*
X149923283Y-65022903D01*
X149842065Y-65040864D01*
X149848678Y-65025545D01*
X149945470Y-64977065D01*
X150134788Y-64895539D01*
X150176034Y-64878529D01*
X150375347Y-64795105D01*
X150550455Y-64718886D01*
X150671260Y-64663060D01*
X150692601Y-64652160D01*
X150777397Y-64616737D01*
X150805121Y-64641789D01*
G37*
G36*
X148580747Y-65219910D02*
G01*
X148634426Y-65266758D01*
X148638930Y-65278093D01*
X148615013Y-65298807D01*
X148565218Y-65252393D01*
X148558523Y-65242134D01*
X148552583Y-65207648D01*
X148580747Y-65219910D01*
G37*
G36*
X149135112Y-64967926D02*
G01*
X149188791Y-65014774D01*
X149193296Y-65026109D01*
X149169378Y-65046823D01*
X149119583Y-65000409D01*
X149112888Y-64990150D01*
X149106948Y-64955664D01*
X149135112Y-64967926D01*
G37*
G36*
X149509235Y-65267260D02*
G01*
X149510910Y-65283805D01*
X149432016Y-65290562D01*
X149420081Y-65290493D01*
X149341918Y-65283226D01*
X149349379Y-65267887D01*
X149358044Y-65265393D01*
X149467824Y-65258015D01*
X149509235Y-65267260D01*
G37*
G36*
X149193296Y-65123929D02*
G01*
X149168097Y-65149127D01*
X149142899Y-65123929D01*
X149168097Y-65098730D01*
X149193296Y-65123929D01*
G37*
G36*
X148823719Y-65317116D02*
G01*
X148816801Y-65347077D01*
X148790121Y-65350714D01*
X148748639Y-65332275D01*
X148756523Y-65317116D01*
X148816332Y-65311085D01*
X148823719Y-65317116D01*
G37*
G36*
X149327687Y-65065132D02*
G01*
X149320769Y-65095093D01*
X149294089Y-65098730D01*
X149252607Y-65080291D01*
X149260491Y-65065132D01*
X149320301Y-65059101D01*
X149327687Y-65065132D01*
G37*
G36*
X150746460Y-64316842D02*
G01*
X150748458Y-64357147D01*
X150686032Y-64418171D01*
X150551531Y-64505058D01*
X150337304Y-64622947D01*
X150139243Y-64724935D01*
X149913558Y-64836602D01*
X149758324Y-64908371D01*
X149677474Y-64939426D01*
X149674945Y-64928956D01*
X149754671Y-64876147D01*
X149920588Y-64780187D01*
X149949248Y-64764192D01*
X150150246Y-64648255D01*
X150351007Y-64525781D01*
X150494555Y-64432331D01*
X150622585Y-64354314D01*
X150716783Y-64315204D01*
X150746460Y-64316842D01*
G37*
G36*
X149580287Y-64969879D02*
G01*
X149546073Y-64997937D01*
X149454199Y-65040582D01*
X149420081Y-65046790D01*
X149411066Y-65025994D01*
X149445280Y-64997937D01*
X149537154Y-64955291D01*
X149571272Y-64949083D01*
X149580287Y-64969879D01*
G37*
G36*
X152503961Y-63775521D02*
G01*
X152736580Y-63886284D01*
X152900033Y-64067676D01*
X152971066Y-64235040D01*
X152990971Y-64354128D01*
X152968066Y-64390779D01*
X152916540Y-64345682D01*
X152854697Y-64229385D01*
X152751124Y-64045486D01*
X152613380Y-63929697D01*
X152417979Y-63867280D01*
X152247321Y-63848246D01*
X152067676Y-63841004D01*
X151950054Y-63854831D01*
X151856227Y-63900381D01*
X151749476Y-63986979D01*
X151565171Y-64202927D01*
X151454236Y-64449126D01*
X151412160Y-64709161D01*
X151434436Y-64966616D01*
X151516553Y-65205074D01*
X151654002Y-65408122D01*
X151842275Y-65559343D01*
X152076862Y-65642321D01*
X152207150Y-65653095D01*
X152452860Y-65605791D01*
X152663744Y-65464088D01*
X152839460Y-65228297D01*
X152954262Y-64972738D01*
X152983315Y-64904872D01*
X153000187Y-64930354D01*
X153010680Y-64985734D01*
X152994997Y-65116200D01*
X152924897Y-65282761D01*
X152818905Y-65451946D01*
X152695541Y-65590285D01*
X152660167Y-65619113D01*
X152493485Y-65695466D01*
X152274826Y-65735466D01*
X152047504Y-65735607D01*
X151854831Y-65692385D01*
X151839129Y-65685539D01*
X151611139Y-65527855D01*
X151443537Y-65304961D01*
X151341279Y-65035830D01*
X151309322Y-64739436D01*
X151352623Y-64434751D01*
X151448554Y-64190522D01*
X151607077Y-63958784D01*
X151802147Y-63814187D01*
X152051107Y-63746373D01*
X152206222Y-63738016D01*
X152503961Y-63775521D01*
G37*
G36*
X164084762Y-63738016D02*
G01*
X164347100Y-63738864D01*
X164529362Y-63743869D01*
X164652266Y-63756720D01*
X164736529Y-63781109D01*
X164802869Y-63820724D01*
X164870583Y-63877988D01*
X164999249Y-64052664D01*
X165035902Y-64252648D01*
X164978902Y-64458609D01*
X164926933Y-64541851D01*
X164816028Y-64691858D01*
X164921230Y-64748160D01*
X165052769Y-64870315D01*
X165120261Y-65044226D01*
X165123174Y-65243383D01*
X165060975Y-65441278D01*
X164938476Y-65606441D01*
X164879561Y-65656152D01*
X164814004Y-65690877D01*
X164722620Y-65713916D01*
X164586223Y-65728571D01*
X164385629Y-65738142D01*
X164132050Y-65745194D01*
X163455597Y-65761698D01*
X163455597Y-65401111D01*
X163858772Y-65401111D01*
X164226669Y-65401111D01*
X164435365Y-65392716D01*
X164587356Y-65369738D01*
X164655042Y-65340635D01*
X164706902Y-65229156D01*
X164707443Y-65086828D01*
X164658816Y-64967101D01*
X164639187Y-64946929D01*
X164552361Y-64911531D01*
X164398222Y-64879701D01*
X164210814Y-64858391D01*
X163858772Y-64833203D01*
X163858772Y-65401111D01*
X163455597Y-65401111D01*
X163455597Y-64544365D01*
X163858772Y-64544365D01*
X164107475Y-64544365D01*
X164282872Y-64534693D01*
X164435620Y-64510289D01*
X164481139Y-64496855D01*
X164590139Y-64419422D01*
X164642012Y-64336194D01*
X164639418Y-64209911D01*
X164547281Y-64115539D01*
X164373062Y-64057616D01*
X164155570Y-64040397D01*
X163858772Y-64040397D01*
X163858772Y-64544365D01*
X163455597Y-64544365D01*
X163455597Y-63738016D01*
X164084762Y-63738016D01*
G37*
G36*
X150453216Y-63817445D02*
G01*
X150417344Y-63890101D01*
X150321263Y-64010224D01*
X150182276Y-64160851D01*
X150017686Y-64325021D01*
X149844797Y-64485770D01*
X149680911Y-64626136D01*
X149543332Y-64729155D01*
X149490982Y-64760747D01*
X149385333Y-64815517D01*
X149362044Y-64822926D01*
X149414512Y-64782994D01*
X149445280Y-64760897D01*
X149640604Y-64603992D01*
X149863560Y-64398860D01*
X150080950Y-64177640D01*
X150259256Y-63972875D01*
X150371808Y-63843063D01*
X150437012Y-63795398D01*
X150453216Y-63817445D01*
G37*
G36*
X166479407Y-65401111D02*
G01*
X167487343Y-65401111D01*
X167487343Y-65753889D01*
X166076232Y-65753889D01*
X166076232Y-63738016D01*
X166479407Y-63738016D01*
X166479407Y-65401111D01*
G37*
G36*
X170007184Y-64040397D02*
G01*
X169402423Y-64040397D01*
X169402423Y-65753889D01*
X168948851Y-65753889D01*
X168948851Y-64040397D01*
X168344089Y-64040397D01*
X168344089Y-63738016D01*
X170007184Y-63738016D01*
X170007184Y-64040397D01*
G37*
G36*
X155452669Y-63741623D02*
G01*
X155668411Y-63751956D01*
X155802649Y-63768281D01*
X155845677Y-63788413D01*
X155797158Y-63810245D01*
X155658890Y-63826480D01*
X155441810Y-63836245D01*
X155215716Y-63838810D01*
X154585756Y-63838810D01*
X154585756Y-64645159D01*
X155190518Y-64645159D01*
X155455984Y-64649194D01*
X155652394Y-64660658D01*
X155768222Y-64678592D01*
X155795280Y-64695556D01*
X155746861Y-64717678D01*
X155609288Y-64734045D01*
X155394086Y-64743698D01*
X155190518Y-64745952D01*
X154585756Y-64745952D01*
X154585756Y-65653095D01*
X155240915Y-65653095D01*
X155521108Y-65656835D01*
X155730496Y-65667520D01*
X155858686Y-65684351D01*
X155896073Y-65703492D01*
X155847299Y-65724519D01*
X155707267Y-65740377D01*
X155485412Y-65750391D01*
X155191170Y-65753889D01*
X154484962Y-65753889D01*
X154484962Y-63738016D01*
X155165319Y-63738016D01*
X155452669Y-63741623D01*
G37*
G36*
X161137343Y-65753889D02*
G01*
X160784565Y-65753889D01*
X160783033Y-64985337D01*
X160779934Y-64714462D01*
X160772352Y-64499766D01*
X160761093Y-64354028D01*
X160746967Y-64290028D01*
X160739240Y-64292381D01*
X160712474Y-64366959D01*
X160668117Y-64519586D01*
X160611671Y-64730196D01*
X160548635Y-64978725D01*
X160527899Y-65063279D01*
X160358819Y-65758581D01*
X160158482Y-65743636D01*
X159958146Y-65728691D01*
X159584516Y-64267183D01*
X159579779Y-65013433D01*
X159575042Y-65759684D01*
X159365258Y-65744187D01*
X159155474Y-65728691D01*
X158546309Y-64836396D01*
X158365066Y-64573283D01*
X158201758Y-64340698D01*
X158065173Y-64150794D01*
X157964101Y-64015721D01*
X157907329Y-63947633D01*
X157899347Y-63941852D01*
X157887276Y-63988853D01*
X157876800Y-64120793D01*
X157868580Y-64321823D01*
X157863279Y-64576093D01*
X157861550Y-64846746D01*
X157858814Y-65193373D01*
X157850859Y-65462744D01*
X157838059Y-65648105D01*
X157820788Y-65742703D01*
X157811153Y-65753889D01*
X157792650Y-65704496D01*
X157778091Y-65560202D01*
X157767767Y-65326832D01*
X157761968Y-65010211D01*
X157760756Y-64742257D01*
X157761389Y-64397970D01*
X157764003Y-64141935D01*
X157769670Y-63961614D01*
X157779460Y-63844470D01*
X157794446Y-63777966D01*
X157815699Y-63749563D01*
X157844291Y-63746725D01*
X157845818Y-63747007D01*
X157898651Y-63791855D01*
X157997973Y-63907902D01*
X158134132Y-64082635D01*
X158297475Y-64303542D01*
X158478350Y-64558111D01*
X158538774Y-64645246D01*
X159146669Y-65527103D01*
X159160440Y-64630185D01*
X159174212Y-63733267D01*
X159487621Y-63748241D01*
X159801029Y-63763214D01*
X159972414Y-64406977D01*
X160037061Y-64642510D01*
X160093907Y-64836045D01*
X160137614Y-64970389D01*
X160162844Y-65028347D01*
X160165518Y-65029021D01*
X160185914Y-64974759D01*
X160226061Y-64842081D01*
X160280406Y-64650139D01*
X160343399Y-64418083D01*
X160352122Y-64385258D01*
X160517006Y-63763214D01*
X160827175Y-63748210D01*
X161137343Y-63733206D01*
X161137343Y-65753889D01*
G37*
G36*
X148933525Y-65119116D02*
G01*
X148987628Y-65169860D01*
X148976529Y-65199033D01*
X148969484Y-65199524D01*
X148926858Y-65163728D01*
X148911301Y-65141340D01*
X148905361Y-65106854D01*
X148933525Y-65119116D01*
G37*
G36*
X150783333Y-64986023D02*
G01*
X150770604Y-64999944D01*
X150696752Y-65037050D01*
X150549088Y-65083563D01*
X150353163Y-65131981D01*
X150241438Y-65155276D01*
X149975740Y-65204630D01*
X149793036Y-65233411D01*
X149696269Y-65242274D01*
X149688387Y-65231875D01*
X149772334Y-65202871D01*
X149951055Y-65155917D01*
X150092910Y-65122195D01*
X150320586Y-65068824D01*
X150520588Y-65020671D01*
X150666743Y-64984109D01*
X150722870Y-64968861D01*
X150794470Y-64954523D01*
X150783333Y-64986023D01*
G37*
G36*
X150705200Y-65301007D02*
G01*
X150655952Y-65342300D01*
X150511604Y-65372073D01*
X150277254Y-65389768D01*
X149957997Y-65394828D01*
X149854754Y-65393914D01*
X149319288Y-65386717D01*
X149898851Y-65346039D01*
X150141122Y-65327954D01*
X150355249Y-65309994D01*
X150515885Y-65294405D01*
X150591807Y-65284629D01*
X150679475Y-65282241D01*
X150705200Y-65301007D01*
G37*
G36*
X149582821Y-65118679D02*
G01*
X149567791Y-65141585D01*
X149516675Y-65145148D01*
X149462900Y-65132840D01*
X149486227Y-65114700D01*
X149564991Y-65108692D01*
X149582821Y-65118679D01*
G37*
G36*
X156387442Y-64708250D02*
G01*
X156539895Y-64337464D01*
X156661551Y-64059438D01*
X156753747Y-63871400D01*
X156817818Y-63770576D01*
X156848601Y-63750586D01*
X156890589Y-63799972D01*
X156960728Y-63929249D01*
X157052045Y-64123831D01*
X157157572Y-64369132D01*
X157232471Y-64553882D01*
X157343413Y-64833758D01*
X157447557Y-65096265D01*
X157536561Y-65320392D01*
X157602081Y-65485129D01*
X157627651Y-65549220D01*
X157673388Y-65681234D01*
X157672939Y-65742835D01*
X157645212Y-65753889D01*
X157596884Y-65710109D01*
X157530828Y-65595052D01*
X157460951Y-65433141D01*
X157457763Y-65424673D01*
X157334644Y-65095457D01*
X156836728Y-65109693D01*
X156338811Y-65123929D01*
X156212902Y-65438909D01*
X156143270Y-65597639D01*
X156081826Y-65710812D01*
X156041929Y-65753889D01*
X155997431Y-65722158D01*
X155996867Y-65716216D01*
X156014895Y-65660140D01*
X156065249Y-65525108D01*
X156142337Y-65325553D01*
X156240567Y-65075907D01*
X156277574Y-64983111D01*
X156400042Y-64983111D01*
X156446580Y-64989811D01*
X156570767Y-64994935D01*
X156749462Y-64997682D01*
X156828415Y-64997937D01*
X157021996Y-64993706D01*
X157170047Y-64982417D01*
X157249434Y-64966172D01*
X157256788Y-64958989D01*
X157238139Y-64892386D01*
X157184099Y-64740179D01*
X157097522Y-64510020D01*
X156981267Y-64209561D01*
X156895013Y-63990000D01*
X156870935Y-63944179D01*
X156843681Y-63940913D01*
X156805836Y-63991802D01*
X156749986Y-64108450D01*
X156668716Y-64302456D01*
X156622659Y-64416147D01*
X156535883Y-64632548D01*
X156464924Y-64811752D01*
X156417180Y-64934916D01*
X156400042Y-64983111D01*
X156277574Y-64983111D01*
X156354347Y-64790604D01*
X156387442Y-64708250D01*
G37*
G36*
X161390462Y-64383929D02*
G01*
X161495309Y-64128312D01*
X161645257Y-63929301D01*
X161706489Y-63878682D01*
X161877604Y-63800896D01*
X162107512Y-63753619D01*
X162357842Y-63740557D01*
X162590221Y-63765414D01*
X162666942Y-63785936D01*
X162885205Y-63907690D01*
X163055120Y-64101122D01*
X163171400Y-64346779D01*
X163228756Y-64625206D01*
X163221899Y-64916949D01*
X163145541Y-65202552D01*
X163085689Y-65326392D01*
X162917874Y-65526678D01*
X162685416Y-65667102D01*
X162409366Y-65740868D01*
X162110775Y-65741177D01*
X161923751Y-65701555D01*
X161740521Y-65606417D01*
X161564254Y-65447986D01*
X161430272Y-65259694D01*
X161408319Y-65213742D01*
X161340788Y-64954311D01*
X161336961Y-64673303D01*
X161736500Y-64673303D01*
X161750631Y-64911070D01*
X161826339Y-65132867D01*
X161964832Y-65313876D01*
X161991776Y-65336512D01*
X162107523Y-65381604D01*
X162273325Y-65397788D01*
X162442366Y-65384001D01*
X162551246Y-65349220D01*
X162679883Y-65225228D01*
X162764407Y-65021583D01*
X162799701Y-64751579D01*
X162800438Y-64701925D01*
X162792103Y-64512051D01*
X162759507Y-64382059D01*
X162691267Y-64271864D01*
X162671408Y-64247565D01*
X162495585Y-64106628D01*
X162292019Y-64055236D01*
X162081615Y-64097946D01*
X162051461Y-64112385D01*
X161888125Y-64249141D01*
X161782735Y-64444387D01*
X161736500Y-64673303D01*
X161336961Y-64673303D01*
X161336895Y-64668484D01*
X161390462Y-64383929D01*
G37*
%TO.C,C30*%
X155516252Y-77795000D02*
X154993748Y-77795000D01*
X155516252Y-76325000D02*
X154993748Y-76325000D01*
%TO.C,C23*%
X134988748Y-104425000D02*
X135511252Y-104425000D01*
X134988748Y-105895000D02*
X135511252Y-105895000D01*
%TO.C,R24*%
X118515000Y-82352936D02*
X118515000Y-82807064D01*
X119985000Y-82352936D02*
X119985000Y-82807064D01*
%TO.C,C2*%
X147198748Y-90955000D02*
X147721252Y-90955000D01*
X147198748Y-92425000D02*
X147721252Y-92425000D01*
%TO.C,R13*%
X139192064Y-85225000D02*
X138737936Y-85225000D01*
X139192064Y-86695000D02*
X138737936Y-86695000D01*
%TO.C,C11*%
X141166252Y-77965000D02*
X140643748Y-77965000D01*
X141166252Y-79435000D02*
X140643748Y-79435000D01*
%TO.C,R16*%
X131052936Y-110095000D02*
X131507064Y-110095000D01*
X131052936Y-108625000D02*
X131507064Y-108625000D01*
%TO.C,U6*%
X118180000Y-90030000D02*
X114730000Y-90030000D01*
X118180000Y-95150000D02*
X120130000Y-95150000D01*
X118180000Y-90030000D02*
X120130000Y-90030000D01*
X118180000Y-95150000D02*
X116230000Y-95150000D01*
%TO.C,U1*%
X162620000Y-83830000D02*
X162620000Y-86280000D01*
X165840000Y-85630000D02*
X165840000Y-83830000D01*
D13*
%TO.C,D3*%
X174560000Y-121595000D02*
G75*
G03*
X174560000Y-121595000I-50000J0D01*
G01*
D12*
%TO.C,R18*%
X131145000Y-106237064D02*
X131145000Y-105782936D01*
X132615000Y-106237064D02*
X132615000Y-105782936D01*
%TO.C,C26*%
X159293748Y-81045000D02*
X159816252Y-81045000D01*
X159293748Y-82515000D02*
X159816252Y-82515000D01*
%TO.C,R23*%
X119985000Y-78132936D02*
X119985000Y-78587064D01*
X118515000Y-78132936D02*
X118515000Y-78587064D01*
%TO.C,J1*%
X161500000Y-93755000D02*
X165500000Y-93755000D01*
X165500000Y-93755000D02*
X165500000Y-100505000D01*
X165500000Y-100505000D02*
X161500000Y-100505000D01*
X161500000Y-100505000D02*
X161500000Y-93755000D01*
%TO.C,C28*%
X125624437Y-86390000D02*
X128310000Y-86390000D01*
X124560000Y-96910000D02*
X128310000Y-96910000D01*
X125624437Y-86390000D02*
X124560000Y-87454437D01*
X134015563Y-86390000D02*
X131330000Y-86390000D01*
X135080000Y-96910000D02*
X131330000Y-96910000D01*
X124560000Y-87454437D02*
X124560000Y-96910000D01*
X133205000Y-85525000D02*
X131955000Y-85525000D01*
X134015563Y-86390000D02*
X135080000Y-87454437D01*
X135080000Y-87454437D02*
X135080000Y-96910000D01*
X132580000Y-84900000D02*
X132580000Y-86150000D01*
%TO.C,U7*%
X126600000Y-108025000D02*
X124650000Y-108025000D01*
X126600000Y-99155000D02*
X123150000Y-99155000D01*
X126600000Y-108025000D02*
X128550000Y-108025000D01*
X126600000Y-99155000D02*
X128550000Y-99155000D01*
%TO.C,R15*%
X153957936Y-87865000D02*
X154412064Y-87865000D01*
X153957936Y-89335000D02*
X154412064Y-89335000D01*
%TO.C,C19*%
X122225000Y-107128748D02*
X122225000Y-107651252D01*
X120755000Y-107128748D02*
X120755000Y-107651252D01*
%TO.C,C16*%
X148573748Y-89315000D02*
X149096252Y-89315000D01*
X148573748Y-87845000D02*
X149096252Y-87845000D01*
%TO.C,C29*%
X137278748Y-98885000D02*
X137801252Y-98885000D01*
X137278748Y-97415000D02*
X137801252Y-97415000D01*
%TO.C,C25*%
X133695000Y-108581252D02*
X133695000Y-108058748D01*
X135165000Y-108581252D02*
X135165000Y-108058748D01*
%TO.C,C10*%
X124690000Y-65611248D02*
X124690000Y-66133752D01*
X126160000Y-65611248D02*
X126160000Y-66133752D01*
%TO.C,R29*%
X169675000Y-105092936D02*
X169675000Y-105547064D01*
X171145000Y-105092936D02*
X171145000Y-105547064D01*
%TO.C,R27*%
X113735000Y-98572936D02*
X113735000Y-99027064D01*
X115205000Y-98572936D02*
X115205000Y-99027064D01*
D10*
%TO.C,U2*%
X157445000Y-108715000D02*
X156770000Y-108715000D01*
X157445000Y-108715000D02*
X157445000Y-108040000D01*
X157445000Y-94365000D02*
X156770000Y-94365000D01*
X143095000Y-94365000D02*
X143095000Y-94940000D01*
X143095000Y-94365000D02*
X143770000Y-94365000D01*
X143095000Y-94940000D02*
X141820000Y-94940000D01*
X143095000Y-108715000D02*
X143095000Y-108040000D01*
X143095000Y-108715000D02*
X143770000Y-108715000D01*
X157445000Y-94365000D02*
X157445000Y-95040000D01*
%TO.C,U3*%
X158175000Y-116695000D02*
X158175000Y-120845000D01*
X166015000Y-116695000D02*
X166015000Y-115570000D01*
X167125000Y-120845000D02*
X166015000Y-120845000D01*
X158175000Y-116695000D02*
X159285000Y-116695000D01*
X167125000Y-116695000D02*
X167125000Y-120845000D01*
X158175000Y-120845000D02*
X159285000Y-120845000D01*
X166015000Y-116695000D02*
X167125000Y-116695000D01*
D12*
%TO.C,C6*%
X159091252Y-122695000D02*
X158568748Y-122695000D01*
X159091252Y-124165000D02*
X158568748Y-124165000D01*
%TO.C,U4*%
X126885000Y-65672500D02*
X126885000Y-63722500D01*
X132005000Y-65672500D02*
X132005000Y-67622500D01*
X126885000Y-65672500D02*
X126885000Y-69122500D01*
X132005000Y-65672500D02*
X132005000Y-63722500D01*
%TO.C,R6*%
X150382936Y-114335000D02*
X150837064Y-114335000D01*
X150382936Y-115805000D02*
X150837064Y-115805000D01*
D13*
%TO.C,D4*%
X169906250Y-121615000D02*
G75*
G03*
X169906250Y-121615000I-50000J0D01*
G01*
D12*
%TO.C,R5*%
X150402936Y-116385000D02*
X150857064Y-116385000D01*
X150402936Y-117855000D02*
X150857064Y-117855000D01*
%TO.C,R10*%
X117425000Y-98987064D02*
X117425000Y-98532936D01*
X115955000Y-98987064D02*
X115955000Y-98532936D01*
%TO.C,C32*%
X136485000Y-66888748D02*
X136485000Y-67411252D01*
X135015000Y-66888748D02*
X135015000Y-67411252D01*
%TO.C,C5*%
X162618748Y-122625000D02*
X163141252Y-122625000D01*
X162618748Y-124095000D02*
X163141252Y-124095000D01*
%TO.C,D6*%
X161130000Y-110210000D02*
X159130000Y-110210000D01*
X161130000Y-110210000D02*
X161130000Y-114110000D01*
X159130000Y-110210000D02*
X159130000Y-114110000D01*
%TO.C,R11*%
X141340000Y-83612936D02*
X141340000Y-84067064D01*
X142810000Y-83612936D02*
X142810000Y-84067064D01*
%TD*%
M02*
