%TF.GenerationSoftware,KiCad,Pcbnew,(6.0.10)*%
%TF.CreationDate,2023-03-09T07:53:56+00:00*%
%TF.ProjectId,Radar,52616461-722e-46b6-9963-61645f706362,rev?*%
%TF.SameCoordinates,Original*%
%TF.FileFunction,Legend,Top*%
%TF.FilePolarity,Positive*%
%FSLAX46Y46*%
G04 Gerber Fmt 4.6, Leading zero omitted, Abs format (unit mm)*
G04 Created by KiCad (PCBNEW (6.0.10)) date 2023-03-09 07:53:56*
%MOMM*%
%LPD*%
G01*
G04 APERTURE LIST*
%ADD10C,0.150000*%
%ADD11C,0.125000*%
%ADD12C,0.120000*%
%ADD13C,0.100000*%
G04 APERTURE END LIST*
D10*
X152440000Y-67070000D02*
X167440000Y-67070000D01*
X167440000Y-67070000D02*
X167440000Y-74570000D01*
X167440000Y-74570000D02*
X152440000Y-74570000D01*
X152440000Y-74570000D02*
X152440000Y-67070000D01*
D11*
X169568571Y-122679285D02*
X169318571Y-122322142D01*
X169140000Y-122679285D02*
X169140000Y-121929285D01*
X169425714Y-121929285D01*
X169497142Y-121965000D01*
X169532857Y-122000714D01*
X169568571Y-122072142D01*
X169568571Y-122179285D01*
X169532857Y-122250714D01*
X169497142Y-122286428D01*
X169425714Y-122322142D01*
X169140000Y-122322142D01*
X169818571Y-122679285D02*
X170211428Y-122179285D01*
X169818571Y-122179285D02*
X170211428Y-122679285D01*
D10*
X169153333Y-117194761D02*
X169296190Y-117242380D01*
X169534285Y-117242380D01*
X169629523Y-117194761D01*
X169677142Y-117147142D01*
X169724761Y-117051904D01*
X169724761Y-116956666D01*
X169677142Y-116861428D01*
X169629523Y-116813809D01*
X169534285Y-116766190D01*
X169343809Y-116718571D01*
X169248571Y-116670952D01*
X169200952Y-116623333D01*
X169153333Y-116528095D01*
X169153333Y-116432857D01*
X169200952Y-116337619D01*
X169248571Y-116290000D01*
X169343809Y-116242380D01*
X169581904Y-116242380D01*
X169724761Y-116290000D01*
X170010476Y-116575714D02*
X170391428Y-116575714D01*
X170153333Y-116242380D02*
X170153333Y-117099523D01*
X170200952Y-117194761D01*
X170296190Y-117242380D01*
X170391428Y-117242380D01*
X171153333Y-117242380D02*
X171153333Y-116718571D01*
X171105714Y-116623333D01*
X171010476Y-116575714D01*
X170820000Y-116575714D01*
X170724761Y-116623333D01*
X171153333Y-117194761D02*
X171058095Y-117242380D01*
X170820000Y-117242380D01*
X170724761Y-117194761D01*
X170677142Y-117099523D01*
X170677142Y-117004285D01*
X170724761Y-116909047D01*
X170820000Y-116861428D01*
X171058095Y-116861428D01*
X171153333Y-116813809D01*
X171486666Y-116575714D02*
X171867619Y-116575714D01*
X171629523Y-116242380D02*
X171629523Y-117099523D01*
X171677142Y-117194761D01*
X171772380Y-117242380D01*
X171867619Y-117242380D01*
X172629523Y-116575714D02*
X172629523Y-117242380D01*
X172200952Y-116575714D02*
X172200952Y-117099523D01*
X172248571Y-117194761D01*
X172343809Y-117242380D01*
X172486666Y-117242380D01*
X172581904Y-117194761D01*
X172629523Y-117147142D01*
X173058095Y-117194761D02*
X173153333Y-117242380D01*
X173343809Y-117242380D01*
X173439047Y-117194761D01*
X173486666Y-117099523D01*
X173486666Y-117051904D01*
X173439047Y-116956666D01*
X173343809Y-116909047D01*
X173200952Y-116909047D01*
X173105714Y-116861428D01*
X173058095Y-116766190D01*
X173058095Y-116718571D01*
X173105714Y-116623333D01*
X173200952Y-116575714D01*
X173343809Y-116575714D01*
X173439047Y-116623333D01*
D11*
X174215000Y-122669285D02*
X174215000Y-121919285D01*
X174465000Y-122455000D01*
X174715000Y-121919285D01*
X174715000Y-122669285D01*
X175500714Y-122597857D02*
X175465000Y-122633571D01*
X175357857Y-122669285D01*
X175286428Y-122669285D01*
X175179285Y-122633571D01*
X175107857Y-122562142D01*
X175072142Y-122490714D01*
X175036428Y-122347857D01*
X175036428Y-122240714D01*
X175072142Y-122097857D01*
X175107857Y-122026428D01*
X175179285Y-121955000D01*
X175286428Y-121919285D01*
X175357857Y-121919285D01*
X175465000Y-121955000D01*
X175500714Y-121990714D01*
X154065000Y-70555535D02*
X154065000Y-69805535D01*
X154243571Y-69805535D01*
X154350714Y-69841250D01*
X154422142Y-69912678D01*
X154457857Y-69984107D01*
X154493571Y-70126964D01*
X154493571Y-70234107D01*
X154457857Y-70376964D01*
X154422142Y-70448392D01*
X154350714Y-70519821D01*
X154243571Y-70555535D01*
X154065000Y-70555535D01*
X154922142Y-70555535D02*
X154850714Y-70519821D01*
X154815000Y-70484107D01*
X154779285Y-70412678D01*
X154779285Y-70198392D01*
X154815000Y-70126964D01*
X154850714Y-70091250D01*
X154922142Y-70055535D01*
X155029285Y-70055535D01*
X155100714Y-70091250D01*
X155136428Y-70126964D01*
X155172142Y-70198392D01*
X155172142Y-70412678D01*
X155136428Y-70484107D01*
X155100714Y-70519821D01*
X155029285Y-70555535D01*
X154922142Y-70555535D01*
X155493571Y-70055535D02*
X155493571Y-70805535D01*
X155493571Y-70091250D02*
X155565000Y-70055535D01*
X155707857Y-70055535D01*
X155779285Y-70091250D01*
X155815000Y-70126964D01*
X155850714Y-70198392D01*
X155850714Y-70412678D01*
X155815000Y-70484107D01*
X155779285Y-70519821D01*
X155707857Y-70555535D01*
X155565000Y-70555535D01*
X155493571Y-70519821D01*
X156172142Y-70055535D02*
X156172142Y-70805535D01*
X156172142Y-70091250D02*
X156243571Y-70055535D01*
X156386428Y-70055535D01*
X156457857Y-70091250D01*
X156493571Y-70126964D01*
X156529285Y-70198392D01*
X156529285Y-70412678D01*
X156493571Y-70484107D01*
X156457857Y-70519821D01*
X156386428Y-70555535D01*
X156243571Y-70555535D01*
X156172142Y-70519821D01*
X156957857Y-70555535D02*
X156886428Y-70519821D01*
X156850714Y-70448392D01*
X156850714Y-69805535D01*
X157529285Y-70519821D02*
X157457857Y-70555535D01*
X157315000Y-70555535D01*
X157243571Y-70519821D01*
X157207857Y-70448392D01*
X157207857Y-70162678D01*
X157243571Y-70091250D01*
X157315000Y-70055535D01*
X157457857Y-70055535D01*
X157529285Y-70091250D01*
X157565000Y-70162678D01*
X157565000Y-70234107D01*
X157207857Y-70305535D01*
X157886428Y-70555535D02*
X157886428Y-70055535D01*
X157886428Y-70198392D02*
X157922142Y-70126964D01*
X157957857Y-70091250D01*
X158029285Y-70055535D01*
X158100714Y-70055535D01*
X158922142Y-70555535D02*
X158922142Y-69805535D01*
X159100714Y-69805535D01*
X159207857Y-69841250D01*
X159279285Y-69912678D01*
X159315000Y-69984107D01*
X159350714Y-70126964D01*
X159350714Y-70234107D01*
X159315000Y-70376964D01*
X159279285Y-70448392D01*
X159207857Y-70519821D01*
X159100714Y-70555535D01*
X158922142Y-70555535D01*
X159957857Y-70519821D02*
X159886428Y-70555535D01*
X159743571Y-70555535D01*
X159672142Y-70519821D01*
X159636428Y-70448392D01*
X159636428Y-70162678D01*
X159672142Y-70091250D01*
X159743571Y-70055535D01*
X159886428Y-70055535D01*
X159957857Y-70091250D01*
X159993571Y-70162678D01*
X159993571Y-70234107D01*
X159636428Y-70305535D01*
X160315000Y-70555535D02*
X160315000Y-69805535D01*
X160315000Y-70091250D02*
X160386428Y-70055535D01*
X160529285Y-70055535D01*
X160600714Y-70091250D01*
X160636428Y-70126964D01*
X160672142Y-70198392D01*
X160672142Y-70412678D01*
X160636428Y-70484107D01*
X160600714Y-70519821D01*
X160529285Y-70555535D01*
X160386428Y-70555535D01*
X160315000Y-70519821D01*
X161315000Y-70055535D02*
X161315000Y-70555535D01*
X160993571Y-70055535D02*
X160993571Y-70448392D01*
X161029285Y-70519821D01*
X161100714Y-70555535D01*
X161207857Y-70555535D01*
X161279285Y-70519821D01*
X161315000Y-70484107D01*
X161993571Y-70055535D02*
X161993571Y-70662678D01*
X161957857Y-70734107D01*
X161922142Y-70769821D01*
X161850714Y-70805535D01*
X161743571Y-70805535D01*
X161672142Y-70769821D01*
X161993571Y-70519821D02*
X161922142Y-70555535D01*
X161779285Y-70555535D01*
X161707857Y-70519821D01*
X161672142Y-70484107D01*
X161636428Y-70412678D01*
X161636428Y-70198392D01*
X161672142Y-70126964D01*
X161707857Y-70091250D01*
X161779285Y-70055535D01*
X161922142Y-70055535D01*
X161993571Y-70091250D01*
X163172142Y-70162678D02*
X163279285Y-70198392D01*
X163315000Y-70234107D01*
X163350714Y-70305535D01*
X163350714Y-70412678D01*
X163315000Y-70484107D01*
X163279285Y-70519821D01*
X163207857Y-70555535D01*
X162922142Y-70555535D01*
X162922142Y-69805535D01*
X163172142Y-69805535D01*
X163243571Y-69841250D01*
X163279285Y-69876964D01*
X163315000Y-69948392D01*
X163315000Y-70019821D01*
X163279285Y-70091250D01*
X163243571Y-70126964D01*
X163172142Y-70162678D01*
X162922142Y-70162678D01*
X163779285Y-70555535D02*
X163707857Y-70519821D01*
X163672142Y-70484107D01*
X163636428Y-70412678D01*
X163636428Y-70198392D01*
X163672142Y-70126964D01*
X163707857Y-70091250D01*
X163779285Y-70055535D01*
X163886428Y-70055535D01*
X163957857Y-70091250D01*
X163993571Y-70126964D01*
X164029285Y-70198392D01*
X164029285Y-70412678D01*
X163993571Y-70484107D01*
X163957857Y-70519821D01*
X163886428Y-70555535D01*
X163779285Y-70555535D01*
X164672142Y-70555535D02*
X164672142Y-70162678D01*
X164636428Y-70091250D01*
X164565000Y-70055535D01*
X164422142Y-70055535D01*
X164350714Y-70091250D01*
X164672142Y-70519821D02*
X164600714Y-70555535D01*
X164422142Y-70555535D01*
X164350714Y-70519821D01*
X164315000Y-70448392D01*
X164315000Y-70376964D01*
X164350714Y-70305535D01*
X164422142Y-70269821D01*
X164600714Y-70269821D01*
X164672142Y-70234107D01*
X165029285Y-70555535D02*
X165029285Y-70055535D01*
X165029285Y-70198392D02*
X165065000Y-70126964D01*
X165100714Y-70091250D01*
X165172142Y-70055535D01*
X165243571Y-70055535D01*
X165815000Y-70555535D02*
X165815000Y-69805535D01*
X165815000Y-70519821D02*
X165743571Y-70555535D01*
X165600714Y-70555535D01*
X165529285Y-70519821D01*
X165493571Y-70484107D01*
X165457857Y-70412678D01*
X165457857Y-70198392D01*
X165493571Y-70126964D01*
X165529285Y-70091250D01*
X165600714Y-70055535D01*
X165743571Y-70055535D01*
X165815000Y-70091250D01*
X158404285Y-71763035D02*
X158154285Y-71405892D01*
X157975714Y-71763035D02*
X157975714Y-71013035D01*
X158261428Y-71013035D01*
X158332857Y-71048750D01*
X158368571Y-71084464D01*
X158404285Y-71155892D01*
X158404285Y-71263035D01*
X158368571Y-71334464D01*
X158332857Y-71370178D01*
X158261428Y-71405892D01*
X157975714Y-71405892D01*
X159011428Y-71727321D02*
X158940000Y-71763035D01*
X158797142Y-71763035D01*
X158725714Y-71727321D01*
X158690000Y-71655892D01*
X158690000Y-71370178D01*
X158725714Y-71298750D01*
X158797142Y-71263035D01*
X158940000Y-71263035D01*
X159011428Y-71298750D01*
X159047142Y-71370178D01*
X159047142Y-71441607D01*
X158690000Y-71513035D01*
X159297142Y-71263035D02*
X159475714Y-71763035D01*
X159654285Y-71263035D01*
X159940000Y-71691607D02*
X159975714Y-71727321D01*
X159940000Y-71763035D01*
X159904285Y-71727321D01*
X159940000Y-71691607D01*
X159940000Y-71763035D01*
X159940000Y-71298750D02*
X159975714Y-71334464D01*
X159940000Y-71370178D01*
X159904285Y-71334464D01*
X159940000Y-71298750D01*
X159940000Y-71370178D01*
X160832857Y-71548750D02*
X161190000Y-71548750D01*
X160761428Y-71763035D02*
X161011428Y-71013035D01*
X161261428Y-71763035D01*
X161761428Y-71370178D02*
X161868571Y-71405892D01*
X161904285Y-71441607D01*
X161940000Y-71513035D01*
X161940000Y-71620178D01*
X161904285Y-71691607D01*
X161868571Y-71727321D01*
X161797142Y-71763035D01*
X161511428Y-71763035D01*
X161511428Y-71013035D01*
X161761428Y-71013035D01*
X161832857Y-71048750D01*
X161868571Y-71084464D01*
X161904285Y-71155892D01*
X161904285Y-71227321D01*
X161868571Y-71298750D01*
X161832857Y-71334464D01*
X161761428Y-71370178D01*
X161511428Y-71370178D01*
X172067142Y-121919285D02*
X172531428Y-121919285D01*
X172281428Y-122205000D01*
X172388571Y-122205000D01*
X172460000Y-122240714D01*
X172495714Y-122276428D01*
X172531428Y-122347857D01*
X172531428Y-122526428D01*
X172495714Y-122597857D01*
X172460000Y-122633571D01*
X172388571Y-122669285D01*
X172174285Y-122669285D01*
X172102857Y-122633571D01*
X172067142Y-122597857D01*
X172781428Y-122169285D02*
X172960000Y-122669285D01*
X173138571Y-122169285D01*
X173352857Y-121919285D02*
X173817142Y-121919285D01*
X173567142Y-122205000D01*
X173674285Y-122205000D01*
X173745714Y-122240714D01*
X173781428Y-122276428D01*
X173817142Y-122347857D01*
X173817142Y-122526428D01*
X173781428Y-122597857D01*
X173745714Y-122633571D01*
X173674285Y-122669285D01*
X173460000Y-122669285D01*
X173388571Y-122633571D01*
X173352857Y-122597857D01*
X167642142Y-121959285D02*
X168070714Y-121959285D01*
X167856428Y-122709285D02*
X167856428Y-121959285D01*
X168249285Y-122709285D02*
X168642142Y-122209285D01*
X168249285Y-122209285D02*
X168642142Y-122709285D01*
X171062857Y-121959285D02*
X170705714Y-121959285D01*
X170670000Y-122316428D01*
X170705714Y-122280714D01*
X170777142Y-122245000D01*
X170955714Y-122245000D01*
X171027142Y-122280714D01*
X171062857Y-122316428D01*
X171098571Y-122387857D01*
X171098571Y-122566428D01*
X171062857Y-122637857D01*
X171027142Y-122673571D01*
X170955714Y-122709285D01*
X170777142Y-122709285D01*
X170705714Y-122673571D01*
X170670000Y-122637857D01*
X171348571Y-122209285D02*
X171527142Y-122709285D01*
X171705714Y-122209285D01*
D10*
%TO.C,R9*%
X144327380Y-78826666D02*
X143851190Y-79160000D01*
X144327380Y-79398095D02*
X143327380Y-79398095D01*
X143327380Y-79017142D01*
X143375000Y-78921904D01*
X143422619Y-78874285D01*
X143517857Y-78826666D01*
X143660714Y-78826666D01*
X143755952Y-78874285D01*
X143803571Y-78921904D01*
X143851190Y-79017142D01*
X143851190Y-79398095D01*
X144327380Y-78350476D02*
X144327380Y-78160000D01*
X144279761Y-78064761D01*
X144232142Y-78017142D01*
X144089285Y-77921904D01*
X143898809Y-77874285D01*
X143517857Y-77874285D01*
X143422619Y-77921904D01*
X143375000Y-77969523D01*
X143327380Y-78064761D01*
X143327380Y-78255238D01*
X143375000Y-78350476D01*
X143422619Y-78398095D01*
X143517857Y-78445714D01*
X143755952Y-78445714D01*
X143851190Y-78398095D01*
X143898809Y-78350476D01*
X143946428Y-78255238D01*
X143946428Y-78064761D01*
X143898809Y-77969523D01*
X143851190Y-77921904D01*
X143755952Y-77874285D01*
%TO.C,R2*%
X174863333Y-103032380D02*
X174530000Y-102556190D01*
X174291904Y-103032380D02*
X174291904Y-102032380D01*
X174672857Y-102032380D01*
X174768095Y-102080000D01*
X174815714Y-102127619D01*
X174863333Y-102222857D01*
X174863333Y-102365714D01*
X174815714Y-102460952D01*
X174768095Y-102508571D01*
X174672857Y-102556190D01*
X174291904Y-102556190D01*
X175244285Y-102127619D02*
X175291904Y-102080000D01*
X175387142Y-102032380D01*
X175625238Y-102032380D01*
X175720476Y-102080000D01*
X175768095Y-102127619D01*
X175815714Y-102222857D01*
X175815714Y-102318095D01*
X175768095Y-102460952D01*
X175196666Y-103032380D01*
X175815714Y-103032380D01*
%TO.C,C9*%
X148207142Y-113036666D02*
X148254761Y-113084285D01*
X148302380Y-113227142D01*
X148302380Y-113322380D01*
X148254761Y-113465238D01*
X148159523Y-113560476D01*
X148064285Y-113608095D01*
X147873809Y-113655714D01*
X147730952Y-113655714D01*
X147540476Y-113608095D01*
X147445238Y-113560476D01*
X147350000Y-113465238D01*
X147302380Y-113322380D01*
X147302380Y-113227142D01*
X147350000Y-113084285D01*
X147397619Y-113036666D01*
X148302380Y-112560476D02*
X148302380Y-112370000D01*
X148254761Y-112274761D01*
X148207142Y-112227142D01*
X148064285Y-112131904D01*
X147873809Y-112084285D01*
X147492857Y-112084285D01*
X147397619Y-112131904D01*
X147350000Y-112179523D01*
X147302380Y-112274761D01*
X147302380Y-112465238D01*
X147350000Y-112560476D01*
X147397619Y-112608095D01*
X147492857Y-112655714D01*
X147730952Y-112655714D01*
X147826190Y-112608095D01*
X147873809Y-112560476D01*
X147921428Y-112465238D01*
X147921428Y-112274761D01*
X147873809Y-112179523D01*
X147826190Y-112131904D01*
X147730952Y-112084285D01*
%TO.C,C31*%
X138377142Y-101262857D02*
X138424761Y-101310476D01*
X138472380Y-101453333D01*
X138472380Y-101548571D01*
X138424761Y-101691428D01*
X138329523Y-101786666D01*
X138234285Y-101834285D01*
X138043809Y-101881904D01*
X137900952Y-101881904D01*
X137710476Y-101834285D01*
X137615238Y-101786666D01*
X137520000Y-101691428D01*
X137472380Y-101548571D01*
X137472380Y-101453333D01*
X137520000Y-101310476D01*
X137567619Y-101262857D01*
X137472380Y-100929523D02*
X137472380Y-100310476D01*
X137853333Y-100643809D01*
X137853333Y-100500952D01*
X137900952Y-100405714D01*
X137948571Y-100358095D01*
X138043809Y-100310476D01*
X138281904Y-100310476D01*
X138377142Y-100358095D01*
X138424761Y-100405714D01*
X138472380Y-100500952D01*
X138472380Y-100786666D01*
X138424761Y-100881904D01*
X138377142Y-100929523D01*
X138472380Y-99358095D02*
X138472380Y-99929523D01*
X138472380Y-99643809D02*
X137472380Y-99643809D01*
X137615238Y-99739047D01*
X137710476Y-99834285D01*
X137758095Y-99929523D01*
%TO.C,R31*%
X124857142Y-95642380D02*
X124523809Y-95166190D01*
X124285714Y-95642380D02*
X124285714Y-94642380D01*
X124666666Y-94642380D01*
X124761904Y-94690000D01*
X124809523Y-94737619D01*
X124857142Y-94832857D01*
X124857142Y-94975714D01*
X124809523Y-95070952D01*
X124761904Y-95118571D01*
X124666666Y-95166190D01*
X124285714Y-95166190D01*
X125190476Y-94642380D02*
X125809523Y-94642380D01*
X125476190Y-95023333D01*
X125619047Y-95023333D01*
X125714285Y-95070952D01*
X125761904Y-95118571D01*
X125809523Y-95213809D01*
X125809523Y-95451904D01*
X125761904Y-95547142D01*
X125714285Y-95594761D01*
X125619047Y-95642380D01*
X125333333Y-95642380D01*
X125238095Y-95594761D01*
X125190476Y-95547142D01*
X126761904Y-95642380D02*
X126190476Y-95642380D01*
X126476190Y-95642380D02*
X126476190Y-94642380D01*
X126380952Y-94785238D01*
X126285714Y-94880476D01*
X126190476Y-94928095D01*
%TO.C,R32*%
X113922380Y-92142857D02*
X113446190Y-92476190D01*
X113922380Y-92714285D02*
X112922380Y-92714285D01*
X112922380Y-92333333D01*
X112970000Y-92238095D01*
X113017619Y-92190476D01*
X113112857Y-92142857D01*
X113255714Y-92142857D01*
X113350952Y-92190476D01*
X113398571Y-92238095D01*
X113446190Y-92333333D01*
X113446190Y-92714285D01*
X112922380Y-91809523D02*
X112922380Y-91190476D01*
X113303333Y-91523809D01*
X113303333Y-91380952D01*
X113350952Y-91285714D01*
X113398571Y-91238095D01*
X113493809Y-91190476D01*
X113731904Y-91190476D01*
X113827142Y-91238095D01*
X113874761Y-91285714D01*
X113922380Y-91380952D01*
X113922380Y-91666666D01*
X113874761Y-91761904D01*
X113827142Y-91809523D01*
X113017619Y-90809523D02*
X112970000Y-90761904D01*
X112922380Y-90666666D01*
X112922380Y-90428571D01*
X112970000Y-90333333D01*
X113017619Y-90285714D01*
X113112857Y-90238095D01*
X113208095Y-90238095D01*
X113350952Y-90285714D01*
X113922380Y-90857142D01*
X113922380Y-90238095D01*
%TO.C,TP6*%
X112578095Y-105814380D02*
X113149523Y-105814380D01*
X112863809Y-106814380D02*
X112863809Y-105814380D01*
X113482857Y-106814380D02*
X113482857Y-105814380D01*
X113863809Y-105814380D01*
X113959047Y-105862000D01*
X114006666Y-105909619D01*
X114054285Y-106004857D01*
X114054285Y-106147714D01*
X114006666Y-106242952D01*
X113959047Y-106290571D01*
X113863809Y-106338190D01*
X113482857Y-106338190D01*
X114911428Y-105814380D02*
X114720952Y-105814380D01*
X114625714Y-105862000D01*
X114578095Y-105909619D01*
X114482857Y-106052476D01*
X114435238Y-106242952D01*
X114435238Y-106623904D01*
X114482857Y-106719142D01*
X114530476Y-106766761D01*
X114625714Y-106814380D01*
X114816190Y-106814380D01*
X114911428Y-106766761D01*
X114959047Y-106719142D01*
X115006666Y-106623904D01*
X115006666Y-106385809D01*
X114959047Y-106290571D01*
X114911428Y-106242952D01*
X114816190Y-106195333D01*
X114625714Y-106195333D01*
X114530476Y-106242952D01*
X114482857Y-106290571D01*
X114435238Y-106385809D01*
%TO.C,R1*%
X172953333Y-103022380D02*
X172620000Y-102546190D01*
X172381904Y-103022380D02*
X172381904Y-102022380D01*
X172762857Y-102022380D01*
X172858095Y-102070000D01*
X172905714Y-102117619D01*
X172953333Y-102212857D01*
X172953333Y-102355714D01*
X172905714Y-102450952D01*
X172858095Y-102498571D01*
X172762857Y-102546190D01*
X172381904Y-102546190D01*
X173905714Y-103022380D02*
X173334285Y-103022380D01*
X173620000Y-103022380D02*
X173620000Y-102022380D01*
X173524761Y-102165238D01*
X173429523Y-102260476D01*
X173334285Y-102308095D01*
%TO.C,R20*%
X138492380Y-104312857D02*
X138016190Y-104646190D01*
X138492380Y-104884285D02*
X137492380Y-104884285D01*
X137492380Y-104503333D01*
X137540000Y-104408095D01*
X137587619Y-104360476D01*
X137682857Y-104312857D01*
X137825714Y-104312857D01*
X137920952Y-104360476D01*
X137968571Y-104408095D01*
X138016190Y-104503333D01*
X138016190Y-104884285D01*
X137587619Y-103931904D02*
X137540000Y-103884285D01*
X137492380Y-103789047D01*
X137492380Y-103550952D01*
X137540000Y-103455714D01*
X137587619Y-103408095D01*
X137682857Y-103360476D01*
X137778095Y-103360476D01*
X137920952Y-103408095D01*
X138492380Y-103979523D01*
X138492380Y-103360476D01*
X137492380Y-102741428D02*
X137492380Y-102646190D01*
X137540000Y-102550952D01*
X137587619Y-102503333D01*
X137682857Y-102455714D01*
X137873333Y-102408095D01*
X138111428Y-102408095D01*
X138301904Y-102455714D01*
X138397142Y-102503333D01*
X138444761Y-102550952D01*
X138492380Y-102646190D01*
X138492380Y-102741428D01*
X138444761Y-102836666D01*
X138397142Y-102884285D01*
X138301904Y-102931904D01*
X138111428Y-102979523D01*
X137873333Y-102979523D01*
X137682857Y-102931904D01*
X137587619Y-102884285D01*
X137540000Y-102836666D01*
X137492380Y-102741428D01*
%TO.C,R4*%
X165803333Y-102912380D02*
X165470000Y-102436190D01*
X165231904Y-102912380D02*
X165231904Y-101912380D01*
X165612857Y-101912380D01*
X165708095Y-101960000D01*
X165755714Y-102007619D01*
X165803333Y-102102857D01*
X165803333Y-102245714D01*
X165755714Y-102340952D01*
X165708095Y-102388571D01*
X165612857Y-102436190D01*
X165231904Y-102436190D01*
X166660476Y-102245714D02*
X166660476Y-102912380D01*
X166422380Y-101864761D02*
X166184285Y-102579047D01*
X166803333Y-102579047D01*
%TO.C,R25*%
X117772380Y-79022857D02*
X117296190Y-79356190D01*
X117772380Y-79594285D02*
X116772380Y-79594285D01*
X116772380Y-79213333D01*
X116820000Y-79118095D01*
X116867619Y-79070476D01*
X116962857Y-79022857D01*
X117105714Y-79022857D01*
X117200952Y-79070476D01*
X117248571Y-79118095D01*
X117296190Y-79213333D01*
X117296190Y-79594285D01*
X116867619Y-78641904D02*
X116820000Y-78594285D01*
X116772380Y-78499047D01*
X116772380Y-78260952D01*
X116820000Y-78165714D01*
X116867619Y-78118095D01*
X116962857Y-78070476D01*
X117058095Y-78070476D01*
X117200952Y-78118095D01*
X117772380Y-78689523D01*
X117772380Y-78070476D01*
X116772380Y-77165714D02*
X116772380Y-77641904D01*
X117248571Y-77689523D01*
X117200952Y-77641904D01*
X117153333Y-77546666D01*
X117153333Y-77308571D01*
X117200952Y-77213333D01*
X117248571Y-77165714D01*
X117343809Y-77118095D01*
X117581904Y-77118095D01*
X117677142Y-77165714D01*
X117724761Y-77213333D01*
X117772380Y-77308571D01*
X117772380Y-77546666D01*
X117724761Y-77641904D01*
X117677142Y-77689523D01*
%TO.C,C4*%
X167457142Y-113956666D02*
X167504761Y-114004285D01*
X167552380Y-114147142D01*
X167552380Y-114242380D01*
X167504761Y-114385238D01*
X167409523Y-114480476D01*
X167314285Y-114528095D01*
X167123809Y-114575714D01*
X166980952Y-114575714D01*
X166790476Y-114528095D01*
X166695238Y-114480476D01*
X166600000Y-114385238D01*
X166552380Y-114242380D01*
X166552380Y-114147142D01*
X166600000Y-114004285D01*
X166647619Y-113956666D01*
X166885714Y-113099523D02*
X167552380Y-113099523D01*
X166504761Y-113337619D02*
X167219047Y-113575714D01*
X167219047Y-112956666D01*
%TO.C,TP5*%
X132868095Y-88244380D02*
X133439523Y-88244380D01*
X133153809Y-89244380D02*
X133153809Y-88244380D01*
X133772857Y-89244380D02*
X133772857Y-88244380D01*
X134153809Y-88244380D01*
X134249047Y-88292000D01*
X134296666Y-88339619D01*
X134344285Y-88434857D01*
X134344285Y-88577714D01*
X134296666Y-88672952D01*
X134249047Y-88720571D01*
X134153809Y-88768190D01*
X133772857Y-88768190D01*
X135249047Y-88244380D02*
X134772857Y-88244380D01*
X134725238Y-88720571D01*
X134772857Y-88672952D01*
X134868095Y-88625333D01*
X135106190Y-88625333D01*
X135201428Y-88672952D01*
X135249047Y-88720571D01*
X135296666Y-88815809D01*
X135296666Y-89053904D01*
X135249047Y-89149142D01*
X135201428Y-89196761D01*
X135106190Y-89244380D01*
X134868095Y-89244380D01*
X134772857Y-89196761D01*
X134725238Y-89149142D01*
%TO.C,R19*%
X150957142Y-78002380D02*
X150623809Y-77526190D01*
X150385714Y-78002380D02*
X150385714Y-77002380D01*
X150766666Y-77002380D01*
X150861904Y-77050000D01*
X150909523Y-77097619D01*
X150957142Y-77192857D01*
X150957142Y-77335714D01*
X150909523Y-77430952D01*
X150861904Y-77478571D01*
X150766666Y-77526190D01*
X150385714Y-77526190D01*
X151909523Y-78002380D02*
X151338095Y-78002380D01*
X151623809Y-78002380D02*
X151623809Y-77002380D01*
X151528571Y-77145238D01*
X151433333Y-77240476D01*
X151338095Y-77288095D01*
X152385714Y-78002380D02*
X152576190Y-78002380D01*
X152671428Y-77954761D01*
X152719047Y-77907142D01*
X152814285Y-77764285D01*
X152861904Y-77573809D01*
X152861904Y-77192857D01*
X152814285Y-77097619D01*
X152766666Y-77050000D01*
X152671428Y-77002380D01*
X152480952Y-77002380D01*
X152385714Y-77050000D01*
X152338095Y-77097619D01*
X152290476Y-77192857D01*
X152290476Y-77430952D01*
X152338095Y-77526190D01*
X152385714Y-77573809D01*
X152480952Y-77621428D01*
X152671428Y-77621428D01*
X152766666Y-77573809D01*
X152814285Y-77526190D01*
X152861904Y-77430952D01*
%TO.C,C17*%
X138222142Y-90497142D02*
X138174523Y-90544761D01*
X138031666Y-90592380D01*
X137936428Y-90592380D01*
X137793571Y-90544761D01*
X137698333Y-90449523D01*
X137650714Y-90354285D01*
X137603095Y-90163809D01*
X137603095Y-90020952D01*
X137650714Y-89830476D01*
X137698333Y-89735238D01*
X137793571Y-89640000D01*
X137936428Y-89592380D01*
X138031666Y-89592380D01*
X138174523Y-89640000D01*
X138222142Y-89687619D01*
X139174523Y-90592380D02*
X138603095Y-90592380D01*
X138888809Y-90592380D02*
X138888809Y-89592380D01*
X138793571Y-89735238D01*
X138698333Y-89830476D01*
X138603095Y-89878095D01*
X139507857Y-89592380D02*
X140174523Y-89592380D01*
X139745952Y-90592380D01*
%TO.C,R7*%
X136557380Y-80976666D02*
X136081190Y-81310000D01*
X136557380Y-81548095D02*
X135557380Y-81548095D01*
X135557380Y-81167142D01*
X135605000Y-81071904D01*
X135652619Y-81024285D01*
X135747857Y-80976666D01*
X135890714Y-80976666D01*
X135985952Y-81024285D01*
X136033571Y-81071904D01*
X136081190Y-81167142D01*
X136081190Y-81548095D01*
X135557380Y-80643333D02*
X135557380Y-79976666D01*
X136557380Y-80405238D01*
%TO.C,C12*%
X136392142Y-83792857D02*
X136439761Y-83840476D01*
X136487380Y-83983333D01*
X136487380Y-84078571D01*
X136439761Y-84221428D01*
X136344523Y-84316666D01*
X136249285Y-84364285D01*
X136058809Y-84411904D01*
X135915952Y-84411904D01*
X135725476Y-84364285D01*
X135630238Y-84316666D01*
X135535000Y-84221428D01*
X135487380Y-84078571D01*
X135487380Y-83983333D01*
X135535000Y-83840476D01*
X135582619Y-83792857D01*
X136487380Y-82840476D02*
X136487380Y-83411904D01*
X136487380Y-83126190D02*
X135487380Y-83126190D01*
X135630238Y-83221428D01*
X135725476Y-83316666D01*
X135773095Y-83411904D01*
X135582619Y-82459523D02*
X135535000Y-82411904D01*
X135487380Y-82316666D01*
X135487380Y-82078571D01*
X135535000Y-81983333D01*
X135582619Y-81935714D01*
X135677857Y-81888095D01*
X135773095Y-81888095D01*
X135915952Y-81935714D01*
X136487380Y-82507142D01*
X136487380Y-81888095D01*
%TO.C,C18*%
X142222142Y-89217142D02*
X142174523Y-89264761D01*
X142031666Y-89312380D01*
X141936428Y-89312380D01*
X141793571Y-89264761D01*
X141698333Y-89169523D01*
X141650714Y-89074285D01*
X141603095Y-88883809D01*
X141603095Y-88740952D01*
X141650714Y-88550476D01*
X141698333Y-88455238D01*
X141793571Y-88360000D01*
X141936428Y-88312380D01*
X142031666Y-88312380D01*
X142174523Y-88360000D01*
X142222142Y-88407619D01*
X143174523Y-89312380D02*
X142603095Y-89312380D01*
X142888809Y-89312380D02*
X142888809Y-88312380D01*
X142793571Y-88455238D01*
X142698333Y-88550476D01*
X142603095Y-88598095D01*
X143745952Y-88740952D02*
X143650714Y-88693333D01*
X143603095Y-88645714D01*
X143555476Y-88550476D01*
X143555476Y-88502857D01*
X143603095Y-88407619D01*
X143650714Y-88360000D01*
X143745952Y-88312380D01*
X143936428Y-88312380D01*
X144031666Y-88360000D01*
X144079285Y-88407619D01*
X144126904Y-88502857D01*
X144126904Y-88550476D01*
X144079285Y-88645714D01*
X144031666Y-88693333D01*
X143936428Y-88740952D01*
X143745952Y-88740952D01*
X143650714Y-88788571D01*
X143603095Y-88836190D01*
X143555476Y-88931428D01*
X143555476Y-89121904D01*
X143603095Y-89217142D01*
X143650714Y-89264761D01*
X143745952Y-89312380D01*
X143936428Y-89312380D01*
X144031666Y-89264761D01*
X144079285Y-89217142D01*
X144126904Y-89121904D01*
X144126904Y-88931428D01*
X144079285Y-88836190D01*
X144031666Y-88788571D01*
X143936428Y-88740952D01*
%TO.C,R3*%
X167883333Y-103002380D02*
X167550000Y-102526190D01*
X167311904Y-103002380D02*
X167311904Y-102002380D01*
X167692857Y-102002380D01*
X167788095Y-102050000D01*
X167835714Y-102097619D01*
X167883333Y-102192857D01*
X167883333Y-102335714D01*
X167835714Y-102430952D01*
X167788095Y-102478571D01*
X167692857Y-102526190D01*
X167311904Y-102526190D01*
X168216666Y-102002380D02*
X168835714Y-102002380D01*
X168502380Y-102383333D01*
X168645238Y-102383333D01*
X168740476Y-102430952D01*
X168788095Y-102478571D01*
X168835714Y-102573809D01*
X168835714Y-102811904D01*
X168788095Y-102907142D01*
X168740476Y-102954761D01*
X168645238Y-103002380D01*
X168359523Y-103002380D01*
X168264285Y-102954761D01*
X168216666Y-102907142D01*
%TO.C,R35*%
X149947142Y-74602380D02*
X149613809Y-74126190D01*
X149375714Y-74602380D02*
X149375714Y-73602380D01*
X149756666Y-73602380D01*
X149851904Y-73650000D01*
X149899523Y-73697619D01*
X149947142Y-73792857D01*
X149947142Y-73935714D01*
X149899523Y-74030952D01*
X149851904Y-74078571D01*
X149756666Y-74126190D01*
X149375714Y-74126190D01*
X150280476Y-73602380D02*
X150899523Y-73602380D01*
X150566190Y-73983333D01*
X150709047Y-73983333D01*
X150804285Y-74030952D01*
X150851904Y-74078571D01*
X150899523Y-74173809D01*
X150899523Y-74411904D01*
X150851904Y-74507142D01*
X150804285Y-74554761D01*
X150709047Y-74602380D01*
X150423333Y-74602380D01*
X150328095Y-74554761D01*
X150280476Y-74507142D01*
X151804285Y-73602380D02*
X151328095Y-73602380D01*
X151280476Y-74078571D01*
X151328095Y-74030952D01*
X151423333Y-73983333D01*
X151661428Y-73983333D01*
X151756666Y-74030952D01*
X151804285Y-74078571D01*
X151851904Y-74173809D01*
X151851904Y-74411904D01*
X151804285Y-74507142D01*
X151756666Y-74554761D01*
X151661428Y-74602380D01*
X151423333Y-74602380D01*
X151328095Y-74554761D01*
X151280476Y-74507142D01*
%TO.C,TP4*%
X148118095Y-70034380D02*
X148689523Y-70034380D01*
X148403809Y-71034380D02*
X148403809Y-70034380D01*
X149022857Y-71034380D02*
X149022857Y-70034380D01*
X149403809Y-70034380D01*
X149499047Y-70082000D01*
X149546666Y-70129619D01*
X149594285Y-70224857D01*
X149594285Y-70367714D01*
X149546666Y-70462952D01*
X149499047Y-70510571D01*
X149403809Y-70558190D01*
X149022857Y-70558190D01*
X150451428Y-70367714D02*
X150451428Y-71034380D01*
X150213333Y-69986761D02*
X149975238Y-70701047D01*
X150594285Y-70701047D01*
%TO.C,R21*%
X158462380Y-81762857D02*
X157986190Y-82096190D01*
X158462380Y-82334285D02*
X157462380Y-82334285D01*
X157462380Y-81953333D01*
X157510000Y-81858095D01*
X157557619Y-81810476D01*
X157652857Y-81762857D01*
X157795714Y-81762857D01*
X157890952Y-81810476D01*
X157938571Y-81858095D01*
X157986190Y-81953333D01*
X157986190Y-82334285D01*
X157557619Y-81381904D02*
X157510000Y-81334285D01*
X157462380Y-81239047D01*
X157462380Y-81000952D01*
X157510000Y-80905714D01*
X157557619Y-80858095D01*
X157652857Y-80810476D01*
X157748095Y-80810476D01*
X157890952Y-80858095D01*
X158462380Y-81429523D01*
X158462380Y-80810476D01*
X158462380Y-79858095D02*
X158462380Y-80429523D01*
X158462380Y-80143809D02*
X157462380Y-80143809D01*
X157605238Y-80239047D01*
X157700476Y-80334285D01*
X157748095Y-80429523D01*
%TO.C,R22*%
X130967142Y-98682380D02*
X130633809Y-98206190D01*
X130395714Y-98682380D02*
X130395714Y-97682380D01*
X130776666Y-97682380D01*
X130871904Y-97730000D01*
X130919523Y-97777619D01*
X130967142Y-97872857D01*
X130967142Y-98015714D01*
X130919523Y-98110952D01*
X130871904Y-98158571D01*
X130776666Y-98206190D01*
X130395714Y-98206190D01*
X131348095Y-97777619D02*
X131395714Y-97730000D01*
X131490952Y-97682380D01*
X131729047Y-97682380D01*
X131824285Y-97730000D01*
X131871904Y-97777619D01*
X131919523Y-97872857D01*
X131919523Y-97968095D01*
X131871904Y-98110952D01*
X131300476Y-98682380D01*
X131919523Y-98682380D01*
X132300476Y-97777619D02*
X132348095Y-97730000D01*
X132443333Y-97682380D01*
X132681428Y-97682380D01*
X132776666Y-97730000D01*
X132824285Y-97777619D01*
X132871904Y-97872857D01*
X132871904Y-97968095D01*
X132824285Y-98110952D01*
X132252857Y-98682380D01*
X132871904Y-98682380D01*
%TO.C,R17*%
X153412142Y-83402380D02*
X153078809Y-82926190D01*
X152840714Y-83402380D02*
X152840714Y-82402380D01*
X153221666Y-82402380D01*
X153316904Y-82450000D01*
X153364523Y-82497619D01*
X153412142Y-82592857D01*
X153412142Y-82735714D01*
X153364523Y-82830952D01*
X153316904Y-82878571D01*
X153221666Y-82926190D01*
X152840714Y-82926190D01*
X154364523Y-83402380D02*
X153793095Y-83402380D01*
X154078809Y-83402380D02*
X154078809Y-82402380D01*
X153983571Y-82545238D01*
X153888333Y-82640476D01*
X153793095Y-82688095D01*
X154697857Y-82402380D02*
X155364523Y-82402380D01*
X154935952Y-83402380D01*
%TO.C,C8*%
X157533333Y-110607142D02*
X157485714Y-110654761D01*
X157342857Y-110702380D01*
X157247619Y-110702380D01*
X157104761Y-110654761D01*
X157009523Y-110559523D01*
X156961904Y-110464285D01*
X156914285Y-110273809D01*
X156914285Y-110130952D01*
X156961904Y-109940476D01*
X157009523Y-109845238D01*
X157104761Y-109750000D01*
X157247619Y-109702380D01*
X157342857Y-109702380D01*
X157485714Y-109750000D01*
X157533333Y-109797619D01*
X158104761Y-110130952D02*
X158009523Y-110083333D01*
X157961904Y-110035714D01*
X157914285Y-109940476D01*
X157914285Y-109892857D01*
X157961904Y-109797619D01*
X158009523Y-109750000D01*
X158104761Y-109702380D01*
X158295238Y-109702380D01*
X158390476Y-109750000D01*
X158438095Y-109797619D01*
X158485714Y-109892857D01*
X158485714Y-109940476D01*
X158438095Y-110035714D01*
X158390476Y-110083333D01*
X158295238Y-110130952D01*
X158104761Y-110130952D01*
X158009523Y-110178571D01*
X157961904Y-110226190D01*
X157914285Y-110321428D01*
X157914285Y-110511904D01*
X157961904Y-110607142D01*
X158009523Y-110654761D01*
X158104761Y-110702380D01*
X158295238Y-110702380D01*
X158390476Y-110654761D01*
X158438095Y-110607142D01*
X158485714Y-110511904D01*
X158485714Y-110321428D01*
X158438095Y-110226190D01*
X158390476Y-110178571D01*
X158295238Y-110130952D01*
%TO.C,R34*%
X129552380Y-110232857D02*
X129076190Y-110566190D01*
X129552380Y-110804285D02*
X128552380Y-110804285D01*
X128552380Y-110423333D01*
X128600000Y-110328095D01*
X128647619Y-110280476D01*
X128742857Y-110232857D01*
X128885714Y-110232857D01*
X128980952Y-110280476D01*
X129028571Y-110328095D01*
X129076190Y-110423333D01*
X129076190Y-110804285D01*
X128552380Y-109899523D02*
X128552380Y-109280476D01*
X128933333Y-109613809D01*
X128933333Y-109470952D01*
X128980952Y-109375714D01*
X129028571Y-109328095D01*
X129123809Y-109280476D01*
X129361904Y-109280476D01*
X129457142Y-109328095D01*
X129504761Y-109375714D01*
X129552380Y-109470952D01*
X129552380Y-109756666D01*
X129504761Y-109851904D01*
X129457142Y-109899523D01*
X128885714Y-108423333D02*
X129552380Y-108423333D01*
X128504761Y-108661428D02*
X129219047Y-108899523D01*
X129219047Y-108280476D01*
%TO.C,C1*%
X165163333Y-90577142D02*
X165115714Y-90624761D01*
X164972857Y-90672380D01*
X164877619Y-90672380D01*
X164734761Y-90624761D01*
X164639523Y-90529523D01*
X164591904Y-90434285D01*
X164544285Y-90243809D01*
X164544285Y-90100952D01*
X164591904Y-89910476D01*
X164639523Y-89815238D01*
X164734761Y-89720000D01*
X164877619Y-89672380D01*
X164972857Y-89672380D01*
X165115714Y-89720000D01*
X165163333Y-89767619D01*
X166115714Y-90672380D02*
X165544285Y-90672380D01*
X165830000Y-90672380D02*
X165830000Y-89672380D01*
X165734761Y-89815238D01*
X165639523Y-89910476D01*
X165544285Y-89958095D01*
%TO.C,C15*%
X121477142Y-100022857D02*
X121524761Y-100070476D01*
X121572380Y-100213333D01*
X121572380Y-100308571D01*
X121524761Y-100451428D01*
X121429523Y-100546666D01*
X121334285Y-100594285D01*
X121143809Y-100641904D01*
X121000952Y-100641904D01*
X120810476Y-100594285D01*
X120715238Y-100546666D01*
X120620000Y-100451428D01*
X120572380Y-100308571D01*
X120572380Y-100213333D01*
X120620000Y-100070476D01*
X120667619Y-100022857D01*
X121572380Y-99070476D02*
X121572380Y-99641904D01*
X121572380Y-99356190D02*
X120572380Y-99356190D01*
X120715238Y-99451428D01*
X120810476Y-99546666D01*
X120858095Y-99641904D01*
X120572380Y-98165714D02*
X120572380Y-98641904D01*
X121048571Y-98689523D01*
X121000952Y-98641904D01*
X120953333Y-98546666D01*
X120953333Y-98308571D01*
X121000952Y-98213333D01*
X121048571Y-98165714D01*
X121143809Y-98118095D01*
X121381904Y-98118095D01*
X121477142Y-98165714D01*
X121524761Y-98213333D01*
X121572380Y-98308571D01*
X121572380Y-98546666D01*
X121524761Y-98641904D01*
X121477142Y-98689523D01*
%TO.C,C13*%
X124007142Y-87262857D02*
X124054761Y-87310476D01*
X124102380Y-87453333D01*
X124102380Y-87548571D01*
X124054761Y-87691428D01*
X123959523Y-87786666D01*
X123864285Y-87834285D01*
X123673809Y-87881904D01*
X123530952Y-87881904D01*
X123340476Y-87834285D01*
X123245238Y-87786666D01*
X123150000Y-87691428D01*
X123102380Y-87548571D01*
X123102380Y-87453333D01*
X123150000Y-87310476D01*
X123197619Y-87262857D01*
X124102380Y-86310476D02*
X124102380Y-86881904D01*
X124102380Y-86596190D02*
X123102380Y-86596190D01*
X123245238Y-86691428D01*
X123340476Y-86786666D01*
X123388095Y-86881904D01*
X123102380Y-85977142D02*
X123102380Y-85358095D01*
X123483333Y-85691428D01*
X123483333Y-85548571D01*
X123530952Y-85453333D01*
X123578571Y-85405714D01*
X123673809Y-85358095D01*
X123911904Y-85358095D01*
X124007142Y-85405714D01*
X124054761Y-85453333D01*
X124102380Y-85548571D01*
X124102380Y-85834285D01*
X124054761Y-85929523D01*
X124007142Y-85977142D01*
%TO.C,C3*%
X167787142Y-78546666D02*
X167834761Y-78594285D01*
X167882380Y-78737142D01*
X167882380Y-78832380D01*
X167834761Y-78975238D01*
X167739523Y-79070476D01*
X167644285Y-79118095D01*
X167453809Y-79165714D01*
X167310952Y-79165714D01*
X167120476Y-79118095D01*
X167025238Y-79070476D01*
X166930000Y-78975238D01*
X166882380Y-78832380D01*
X166882380Y-78737142D01*
X166930000Y-78594285D01*
X166977619Y-78546666D01*
X166882380Y-78213333D02*
X166882380Y-77594285D01*
X167263333Y-77927619D01*
X167263333Y-77784761D01*
X167310952Y-77689523D01*
X167358571Y-77641904D01*
X167453809Y-77594285D01*
X167691904Y-77594285D01*
X167787142Y-77641904D01*
X167834761Y-77689523D01*
X167882380Y-77784761D01*
X167882380Y-78070476D01*
X167834761Y-78165714D01*
X167787142Y-78213333D01*
%TO.C,U5*%
X148053095Y-77042380D02*
X148053095Y-77851904D01*
X148100714Y-77947142D01*
X148148333Y-77994761D01*
X148243571Y-78042380D01*
X148434047Y-78042380D01*
X148529285Y-77994761D01*
X148576904Y-77947142D01*
X148624523Y-77851904D01*
X148624523Y-77042380D01*
X149576904Y-77042380D02*
X149100714Y-77042380D01*
X149053095Y-77518571D01*
X149100714Y-77470952D01*
X149195952Y-77423333D01*
X149434047Y-77423333D01*
X149529285Y-77470952D01*
X149576904Y-77518571D01*
X149624523Y-77613809D01*
X149624523Y-77851904D01*
X149576904Y-77947142D01*
X149529285Y-77994761D01*
X149434047Y-78042380D01*
X149195952Y-78042380D01*
X149100714Y-77994761D01*
X149053095Y-77947142D01*
%TO.C,R38*%
X163147142Y-76832380D02*
X162813809Y-76356190D01*
X162575714Y-76832380D02*
X162575714Y-75832380D01*
X162956666Y-75832380D01*
X163051904Y-75880000D01*
X163099523Y-75927619D01*
X163147142Y-76022857D01*
X163147142Y-76165714D01*
X163099523Y-76260952D01*
X163051904Y-76308571D01*
X162956666Y-76356190D01*
X162575714Y-76356190D01*
X163480476Y-75832380D02*
X164099523Y-75832380D01*
X163766190Y-76213333D01*
X163909047Y-76213333D01*
X164004285Y-76260952D01*
X164051904Y-76308571D01*
X164099523Y-76403809D01*
X164099523Y-76641904D01*
X164051904Y-76737142D01*
X164004285Y-76784761D01*
X163909047Y-76832380D01*
X163623333Y-76832380D01*
X163528095Y-76784761D01*
X163480476Y-76737142D01*
X164670952Y-76260952D02*
X164575714Y-76213333D01*
X164528095Y-76165714D01*
X164480476Y-76070476D01*
X164480476Y-76022857D01*
X164528095Y-75927619D01*
X164575714Y-75880000D01*
X164670952Y-75832380D01*
X164861428Y-75832380D01*
X164956666Y-75880000D01*
X165004285Y-75927619D01*
X165051904Y-76022857D01*
X165051904Y-76070476D01*
X165004285Y-76165714D01*
X164956666Y-76213333D01*
X164861428Y-76260952D01*
X164670952Y-76260952D01*
X164575714Y-76308571D01*
X164528095Y-76356190D01*
X164480476Y-76451428D01*
X164480476Y-76641904D01*
X164528095Y-76737142D01*
X164575714Y-76784761D01*
X164670952Y-76832380D01*
X164861428Y-76832380D01*
X164956666Y-76784761D01*
X165004285Y-76737142D01*
X165051904Y-76641904D01*
X165051904Y-76451428D01*
X165004285Y-76356190D01*
X164956666Y-76308571D01*
X164861428Y-76260952D01*
%TO.C,R14*%
X119437142Y-102872380D02*
X119103809Y-102396190D01*
X118865714Y-102872380D02*
X118865714Y-101872380D01*
X119246666Y-101872380D01*
X119341904Y-101920000D01*
X119389523Y-101967619D01*
X119437142Y-102062857D01*
X119437142Y-102205714D01*
X119389523Y-102300952D01*
X119341904Y-102348571D01*
X119246666Y-102396190D01*
X118865714Y-102396190D01*
X120389523Y-102872380D02*
X119818095Y-102872380D01*
X120103809Y-102872380D02*
X120103809Y-101872380D01*
X120008571Y-102015238D01*
X119913333Y-102110476D01*
X119818095Y-102158095D01*
X121246666Y-102205714D02*
X121246666Y-102872380D01*
X121008571Y-101824761D02*
X120770476Y-102539047D01*
X121389523Y-102539047D01*
%TO.C,C20*%
X117307142Y-108777142D02*
X117259523Y-108824761D01*
X117116666Y-108872380D01*
X117021428Y-108872380D01*
X116878571Y-108824761D01*
X116783333Y-108729523D01*
X116735714Y-108634285D01*
X116688095Y-108443809D01*
X116688095Y-108300952D01*
X116735714Y-108110476D01*
X116783333Y-108015238D01*
X116878571Y-107920000D01*
X117021428Y-107872380D01*
X117116666Y-107872380D01*
X117259523Y-107920000D01*
X117307142Y-107967619D01*
X117688095Y-107967619D02*
X117735714Y-107920000D01*
X117830952Y-107872380D01*
X118069047Y-107872380D01*
X118164285Y-107920000D01*
X118211904Y-107967619D01*
X118259523Y-108062857D01*
X118259523Y-108158095D01*
X118211904Y-108300952D01*
X117640476Y-108872380D01*
X118259523Y-108872380D01*
X118878571Y-107872380D02*
X118973809Y-107872380D01*
X119069047Y-107920000D01*
X119116666Y-107967619D01*
X119164285Y-108062857D01*
X119211904Y-108253333D01*
X119211904Y-108491428D01*
X119164285Y-108681904D01*
X119116666Y-108777142D01*
X119069047Y-108824761D01*
X118973809Y-108872380D01*
X118878571Y-108872380D01*
X118783333Y-108824761D01*
X118735714Y-108777142D01*
X118688095Y-108681904D01*
X118640476Y-108491428D01*
X118640476Y-108253333D01*
X118688095Y-108062857D01*
X118735714Y-107967619D01*
X118783333Y-107920000D01*
X118878571Y-107872380D01*
%TO.C,C33*%
X120877142Y-85197142D02*
X120829523Y-85244761D01*
X120686666Y-85292380D01*
X120591428Y-85292380D01*
X120448571Y-85244761D01*
X120353333Y-85149523D01*
X120305714Y-85054285D01*
X120258095Y-84863809D01*
X120258095Y-84720952D01*
X120305714Y-84530476D01*
X120353333Y-84435238D01*
X120448571Y-84340000D01*
X120591428Y-84292380D01*
X120686666Y-84292380D01*
X120829523Y-84340000D01*
X120877142Y-84387619D01*
X121210476Y-84292380D02*
X121829523Y-84292380D01*
X121496190Y-84673333D01*
X121639047Y-84673333D01*
X121734285Y-84720952D01*
X121781904Y-84768571D01*
X121829523Y-84863809D01*
X121829523Y-85101904D01*
X121781904Y-85197142D01*
X121734285Y-85244761D01*
X121639047Y-85292380D01*
X121353333Y-85292380D01*
X121258095Y-85244761D01*
X121210476Y-85197142D01*
X122162857Y-84292380D02*
X122781904Y-84292380D01*
X122448571Y-84673333D01*
X122591428Y-84673333D01*
X122686666Y-84720952D01*
X122734285Y-84768571D01*
X122781904Y-84863809D01*
X122781904Y-85101904D01*
X122734285Y-85197142D01*
X122686666Y-85244761D01*
X122591428Y-85292380D01*
X122305714Y-85292380D01*
X122210476Y-85244761D01*
X122162857Y-85197142D01*
%TO.C,R8*%
X113812380Y-101976666D02*
X113336190Y-102310000D01*
X113812380Y-102548095D02*
X112812380Y-102548095D01*
X112812380Y-102167142D01*
X112860000Y-102071904D01*
X112907619Y-102024285D01*
X113002857Y-101976666D01*
X113145714Y-101976666D01*
X113240952Y-102024285D01*
X113288571Y-102071904D01*
X113336190Y-102167142D01*
X113336190Y-102548095D01*
X113240952Y-101405238D02*
X113193333Y-101500476D01*
X113145714Y-101548095D01*
X113050476Y-101595714D01*
X113002857Y-101595714D01*
X112907619Y-101548095D01*
X112860000Y-101500476D01*
X112812380Y-101405238D01*
X112812380Y-101214761D01*
X112860000Y-101119523D01*
X112907619Y-101071904D01*
X113002857Y-101024285D01*
X113050476Y-101024285D01*
X113145714Y-101071904D01*
X113193333Y-101119523D01*
X113240952Y-101214761D01*
X113240952Y-101405238D01*
X113288571Y-101500476D01*
X113336190Y-101548095D01*
X113431428Y-101595714D01*
X113621904Y-101595714D01*
X113717142Y-101548095D01*
X113764761Y-101500476D01*
X113812380Y-101405238D01*
X113812380Y-101214761D01*
X113764761Y-101119523D01*
X113717142Y-101071904D01*
X113621904Y-101024285D01*
X113431428Y-101024285D01*
X113336190Y-101071904D01*
X113288571Y-101119523D01*
X113240952Y-101214761D01*
%TO.C,C27*%
X121947142Y-71862857D02*
X121994761Y-71910476D01*
X122042380Y-72053333D01*
X122042380Y-72148571D01*
X121994761Y-72291428D01*
X121899523Y-72386666D01*
X121804285Y-72434285D01*
X121613809Y-72481904D01*
X121470952Y-72481904D01*
X121280476Y-72434285D01*
X121185238Y-72386666D01*
X121090000Y-72291428D01*
X121042380Y-72148571D01*
X121042380Y-72053333D01*
X121090000Y-71910476D01*
X121137619Y-71862857D01*
X121137619Y-71481904D02*
X121090000Y-71434285D01*
X121042380Y-71339047D01*
X121042380Y-71100952D01*
X121090000Y-71005714D01*
X121137619Y-70958095D01*
X121232857Y-70910476D01*
X121328095Y-70910476D01*
X121470952Y-70958095D01*
X122042380Y-71529523D01*
X122042380Y-70910476D01*
X121042380Y-70577142D02*
X121042380Y-69910476D01*
X122042380Y-70339047D01*
%TO.C,C34*%
X132259642Y-97277142D02*
X132212023Y-97324761D01*
X132069166Y-97372380D01*
X131973928Y-97372380D01*
X131831071Y-97324761D01*
X131735833Y-97229523D01*
X131688214Y-97134285D01*
X131640595Y-96943809D01*
X131640595Y-96800952D01*
X131688214Y-96610476D01*
X131735833Y-96515238D01*
X131831071Y-96420000D01*
X131973928Y-96372380D01*
X132069166Y-96372380D01*
X132212023Y-96420000D01*
X132259642Y-96467619D01*
X132592976Y-96372380D02*
X133212023Y-96372380D01*
X132878690Y-96753333D01*
X133021547Y-96753333D01*
X133116785Y-96800952D01*
X133164404Y-96848571D01*
X133212023Y-96943809D01*
X133212023Y-97181904D01*
X133164404Y-97277142D01*
X133116785Y-97324761D01*
X133021547Y-97372380D01*
X132735833Y-97372380D01*
X132640595Y-97324761D01*
X132592976Y-97277142D01*
X134069166Y-96705714D02*
X134069166Y-97372380D01*
X133831071Y-96324761D02*
X133592976Y-97039047D01*
X134212023Y-97039047D01*
%TO.C,J2*%
X123706666Y-113092380D02*
X123706666Y-113806666D01*
X123659047Y-113949523D01*
X123563809Y-114044761D01*
X123420952Y-114092380D01*
X123325714Y-114092380D01*
X124135238Y-113187619D02*
X124182857Y-113140000D01*
X124278095Y-113092380D01*
X124516190Y-113092380D01*
X124611428Y-113140000D01*
X124659047Y-113187619D01*
X124706666Y-113282857D01*
X124706666Y-113378095D01*
X124659047Y-113520952D01*
X124087619Y-114092380D01*
X124706666Y-114092380D01*
%TO.C,L1*%
X167122380Y-81066666D02*
X167122380Y-81542857D01*
X166122380Y-81542857D01*
X167122380Y-80209523D02*
X167122380Y-80780952D01*
X167122380Y-80495238D02*
X166122380Y-80495238D01*
X166265238Y-80590476D01*
X166360476Y-80685714D01*
X166408095Y-80780952D01*
%TO.C,R12*%
X113812380Y-104742857D02*
X113336190Y-105076190D01*
X113812380Y-105314285D02*
X112812380Y-105314285D01*
X112812380Y-104933333D01*
X112860000Y-104838095D01*
X112907619Y-104790476D01*
X113002857Y-104742857D01*
X113145714Y-104742857D01*
X113240952Y-104790476D01*
X113288571Y-104838095D01*
X113336190Y-104933333D01*
X113336190Y-105314285D01*
X113812380Y-103790476D02*
X113812380Y-104361904D01*
X113812380Y-104076190D02*
X112812380Y-104076190D01*
X112955238Y-104171428D01*
X113050476Y-104266666D01*
X113098095Y-104361904D01*
X112907619Y-103409523D02*
X112860000Y-103361904D01*
X112812380Y-103266666D01*
X112812380Y-103028571D01*
X112860000Y-102933333D01*
X112907619Y-102885714D01*
X113002857Y-102838095D01*
X113098095Y-102838095D01*
X113240952Y-102885714D01*
X113812380Y-103457142D01*
X113812380Y-102838095D01*
%TO.C,C14*%
X124137142Y-98082857D02*
X124184761Y-98130476D01*
X124232380Y-98273333D01*
X124232380Y-98368571D01*
X124184761Y-98511428D01*
X124089523Y-98606666D01*
X123994285Y-98654285D01*
X123803809Y-98701904D01*
X123660952Y-98701904D01*
X123470476Y-98654285D01*
X123375238Y-98606666D01*
X123280000Y-98511428D01*
X123232380Y-98368571D01*
X123232380Y-98273333D01*
X123280000Y-98130476D01*
X123327619Y-98082857D01*
X124232380Y-97130476D02*
X124232380Y-97701904D01*
X124232380Y-97416190D02*
X123232380Y-97416190D01*
X123375238Y-97511428D01*
X123470476Y-97606666D01*
X123518095Y-97701904D01*
X123565714Y-96273333D02*
X124232380Y-96273333D01*
X123184761Y-96511428D02*
X123899047Y-96749523D01*
X123899047Y-96130476D01*
%TO.C,C7*%
X153807142Y-119366666D02*
X153854761Y-119414285D01*
X153902380Y-119557142D01*
X153902380Y-119652380D01*
X153854761Y-119795238D01*
X153759523Y-119890476D01*
X153664285Y-119938095D01*
X153473809Y-119985714D01*
X153330952Y-119985714D01*
X153140476Y-119938095D01*
X153045238Y-119890476D01*
X152950000Y-119795238D01*
X152902380Y-119652380D01*
X152902380Y-119557142D01*
X152950000Y-119414285D01*
X152997619Y-119366666D01*
X152902380Y-119033333D02*
X152902380Y-118366666D01*
X153902380Y-118795238D01*
%TO.C,R28*%
X138932380Y-92942857D02*
X138456190Y-93276190D01*
X138932380Y-93514285D02*
X137932380Y-93514285D01*
X137932380Y-93133333D01*
X137980000Y-93038095D01*
X138027619Y-92990476D01*
X138122857Y-92942857D01*
X138265714Y-92942857D01*
X138360952Y-92990476D01*
X138408571Y-93038095D01*
X138456190Y-93133333D01*
X138456190Y-93514285D01*
X138027619Y-92561904D02*
X137980000Y-92514285D01*
X137932380Y-92419047D01*
X137932380Y-92180952D01*
X137980000Y-92085714D01*
X138027619Y-92038095D01*
X138122857Y-91990476D01*
X138218095Y-91990476D01*
X138360952Y-92038095D01*
X138932380Y-92609523D01*
X138932380Y-91990476D01*
X138360952Y-91419047D02*
X138313333Y-91514285D01*
X138265714Y-91561904D01*
X138170476Y-91609523D01*
X138122857Y-91609523D01*
X138027619Y-91561904D01*
X137980000Y-91514285D01*
X137932380Y-91419047D01*
X137932380Y-91228571D01*
X137980000Y-91133333D01*
X138027619Y-91085714D01*
X138122857Y-91038095D01*
X138170476Y-91038095D01*
X138265714Y-91085714D01*
X138313333Y-91133333D01*
X138360952Y-91228571D01*
X138360952Y-91419047D01*
X138408571Y-91514285D01*
X138456190Y-91561904D01*
X138551428Y-91609523D01*
X138741904Y-91609523D01*
X138837142Y-91561904D01*
X138884761Y-91514285D01*
X138932380Y-91419047D01*
X138932380Y-91228571D01*
X138884761Y-91133333D01*
X138837142Y-91085714D01*
X138741904Y-91038095D01*
X138551428Y-91038095D01*
X138456190Y-91085714D01*
X138408571Y-91133333D01*
X138360952Y-91228571D01*
%TO.C,D1*%
X169008095Y-85877619D02*
X169008095Y-86877619D01*
X168770000Y-86877619D01*
X168627142Y-86830000D01*
X168531904Y-86734761D01*
X168484285Y-86639523D01*
X168436666Y-86449047D01*
X168436666Y-86306190D01*
X168484285Y-86115714D01*
X168531904Y-86020476D01*
X168627142Y-85925238D01*
X168770000Y-85877619D01*
X169008095Y-85877619D01*
X167484285Y-85877619D02*
X168055714Y-85877619D01*
X167770000Y-85877619D02*
X167770000Y-86877619D01*
X167865238Y-86734761D01*
X167960476Y-86639523D01*
X168055714Y-86591904D01*
%TO.C,C24*%
X157362142Y-89702857D02*
X157409761Y-89750476D01*
X157457380Y-89893333D01*
X157457380Y-89988571D01*
X157409761Y-90131428D01*
X157314523Y-90226666D01*
X157219285Y-90274285D01*
X157028809Y-90321904D01*
X156885952Y-90321904D01*
X156695476Y-90274285D01*
X156600238Y-90226666D01*
X156505000Y-90131428D01*
X156457380Y-89988571D01*
X156457380Y-89893333D01*
X156505000Y-89750476D01*
X156552619Y-89702857D01*
X156552619Y-89321904D02*
X156505000Y-89274285D01*
X156457380Y-89179047D01*
X156457380Y-88940952D01*
X156505000Y-88845714D01*
X156552619Y-88798095D01*
X156647857Y-88750476D01*
X156743095Y-88750476D01*
X156885952Y-88798095D01*
X157457380Y-89369523D01*
X157457380Y-88750476D01*
X156790714Y-87893333D02*
X157457380Y-87893333D01*
X156409761Y-88131428D02*
X157124047Y-88369523D01*
X157124047Y-87750476D01*
%TO.C,R30*%
X114927142Y-85592380D02*
X114593809Y-85116190D01*
X114355714Y-85592380D02*
X114355714Y-84592380D01*
X114736666Y-84592380D01*
X114831904Y-84640000D01*
X114879523Y-84687619D01*
X114927142Y-84782857D01*
X114927142Y-84925714D01*
X114879523Y-85020952D01*
X114831904Y-85068571D01*
X114736666Y-85116190D01*
X114355714Y-85116190D01*
X115260476Y-84592380D02*
X115879523Y-84592380D01*
X115546190Y-84973333D01*
X115689047Y-84973333D01*
X115784285Y-85020952D01*
X115831904Y-85068571D01*
X115879523Y-85163809D01*
X115879523Y-85401904D01*
X115831904Y-85497142D01*
X115784285Y-85544761D01*
X115689047Y-85592380D01*
X115403333Y-85592380D01*
X115308095Y-85544761D01*
X115260476Y-85497142D01*
X116498571Y-84592380D02*
X116593809Y-84592380D01*
X116689047Y-84640000D01*
X116736666Y-84687619D01*
X116784285Y-84782857D01*
X116831904Y-84973333D01*
X116831904Y-85211428D01*
X116784285Y-85401904D01*
X116736666Y-85497142D01*
X116689047Y-85544761D01*
X116593809Y-85592380D01*
X116498571Y-85592380D01*
X116403333Y-85544761D01*
X116355714Y-85497142D01*
X116308095Y-85401904D01*
X116260476Y-85211428D01*
X116260476Y-84973333D01*
X116308095Y-84782857D01*
X116355714Y-84687619D01*
X116403333Y-84640000D01*
X116498571Y-84592380D01*
%TO.C,FB1*%
X153898571Y-113753333D02*
X153898571Y-114086666D01*
X154422380Y-114086666D02*
X153422380Y-114086666D01*
X153422380Y-113610476D01*
X153898571Y-112896190D02*
X153946190Y-112753333D01*
X153993809Y-112705714D01*
X154089047Y-112658095D01*
X154231904Y-112658095D01*
X154327142Y-112705714D01*
X154374761Y-112753333D01*
X154422380Y-112848571D01*
X154422380Y-113229523D01*
X153422380Y-113229523D01*
X153422380Y-112896190D01*
X153470000Y-112800952D01*
X153517619Y-112753333D01*
X153612857Y-112705714D01*
X153708095Y-112705714D01*
X153803333Y-112753333D01*
X153850952Y-112800952D01*
X153898571Y-112896190D01*
X153898571Y-113229523D01*
X154422380Y-111705714D02*
X154422380Y-112277142D01*
X154422380Y-111991428D02*
X153422380Y-111991428D01*
X153565238Y-112086666D01*
X153660476Y-112181904D01*
X153708095Y-112277142D01*
%TO.C,R26*%
X117692380Y-83202857D02*
X117216190Y-83536190D01*
X117692380Y-83774285D02*
X116692380Y-83774285D01*
X116692380Y-83393333D01*
X116740000Y-83298095D01*
X116787619Y-83250476D01*
X116882857Y-83202857D01*
X117025714Y-83202857D01*
X117120952Y-83250476D01*
X117168571Y-83298095D01*
X117216190Y-83393333D01*
X117216190Y-83774285D01*
X116787619Y-82821904D02*
X116740000Y-82774285D01*
X116692380Y-82679047D01*
X116692380Y-82440952D01*
X116740000Y-82345714D01*
X116787619Y-82298095D01*
X116882857Y-82250476D01*
X116978095Y-82250476D01*
X117120952Y-82298095D01*
X117692380Y-82869523D01*
X117692380Y-82250476D01*
X116692380Y-81393333D02*
X116692380Y-81583809D01*
X116740000Y-81679047D01*
X116787619Y-81726666D01*
X116930476Y-81821904D01*
X117120952Y-81869523D01*
X117501904Y-81869523D01*
X117597142Y-81821904D01*
X117644761Y-81774285D01*
X117692380Y-81679047D01*
X117692380Y-81488571D01*
X117644761Y-81393333D01*
X117597142Y-81345714D01*
X117501904Y-81298095D01*
X117263809Y-81298095D01*
X117168571Y-81345714D01*
X117120952Y-81393333D01*
X117073333Y-81488571D01*
X117073333Y-81679047D01*
X117120952Y-81774285D01*
X117168571Y-81821904D01*
X117263809Y-81869523D01*
%TO.C,C21*%
X125907142Y-111517142D02*
X125859523Y-111564761D01*
X125716666Y-111612380D01*
X125621428Y-111612380D01*
X125478571Y-111564761D01*
X125383333Y-111469523D01*
X125335714Y-111374285D01*
X125288095Y-111183809D01*
X125288095Y-111040952D01*
X125335714Y-110850476D01*
X125383333Y-110755238D01*
X125478571Y-110660000D01*
X125621428Y-110612380D01*
X125716666Y-110612380D01*
X125859523Y-110660000D01*
X125907142Y-110707619D01*
X126288095Y-110707619D02*
X126335714Y-110660000D01*
X126430952Y-110612380D01*
X126669047Y-110612380D01*
X126764285Y-110660000D01*
X126811904Y-110707619D01*
X126859523Y-110802857D01*
X126859523Y-110898095D01*
X126811904Y-111040952D01*
X126240476Y-111612380D01*
X126859523Y-111612380D01*
X127811904Y-111612380D02*
X127240476Y-111612380D01*
X127526190Y-111612380D02*
X127526190Y-110612380D01*
X127430952Y-110755238D01*
X127335714Y-110850476D01*
X127240476Y-110898095D01*
%TO.C,TP1*%
X160778095Y-104902380D02*
X161349523Y-104902380D01*
X161063809Y-105902380D02*
X161063809Y-104902380D01*
X161682857Y-105902380D02*
X161682857Y-104902380D01*
X162063809Y-104902380D01*
X162159047Y-104950000D01*
X162206666Y-104997619D01*
X162254285Y-105092857D01*
X162254285Y-105235714D01*
X162206666Y-105330952D01*
X162159047Y-105378571D01*
X162063809Y-105426190D01*
X161682857Y-105426190D01*
X163206666Y-105902380D02*
X162635238Y-105902380D01*
X162920952Y-105902380D02*
X162920952Y-104902380D01*
X162825714Y-105045238D01*
X162730476Y-105140476D01*
X162635238Y-105188095D01*
%TO.C,D9*%
X112641904Y-76892380D02*
X112641904Y-75892380D01*
X112880000Y-75892380D01*
X113022857Y-75940000D01*
X113118095Y-76035238D01*
X113165714Y-76130476D01*
X113213333Y-76320952D01*
X113213333Y-76463809D01*
X113165714Y-76654285D01*
X113118095Y-76749523D01*
X113022857Y-76844761D01*
X112880000Y-76892380D01*
X112641904Y-76892380D01*
X113689523Y-76892380D02*
X113880000Y-76892380D01*
X113975238Y-76844761D01*
X114022857Y-76797142D01*
X114118095Y-76654285D01*
X114165714Y-76463809D01*
X114165714Y-76082857D01*
X114118095Y-75987619D01*
X114070476Y-75940000D01*
X113975238Y-75892380D01*
X113784761Y-75892380D01*
X113689523Y-75940000D01*
X113641904Y-75987619D01*
X113594285Y-76082857D01*
X113594285Y-76320952D01*
X113641904Y-76416190D01*
X113689523Y-76463809D01*
X113784761Y-76511428D01*
X113975238Y-76511428D01*
X114070476Y-76463809D01*
X114118095Y-76416190D01*
X114165714Y-76320952D01*
%TO.C,C22*%
X160152142Y-86202857D02*
X160199761Y-86250476D01*
X160247380Y-86393333D01*
X160247380Y-86488571D01*
X160199761Y-86631428D01*
X160104523Y-86726666D01*
X160009285Y-86774285D01*
X159818809Y-86821904D01*
X159675952Y-86821904D01*
X159485476Y-86774285D01*
X159390238Y-86726666D01*
X159295000Y-86631428D01*
X159247380Y-86488571D01*
X159247380Y-86393333D01*
X159295000Y-86250476D01*
X159342619Y-86202857D01*
X159342619Y-85821904D02*
X159295000Y-85774285D01*
X159247380Y-85679047D01*
X159247380Y-85440952D01*
X159295000Y-85345714D01*
X159342619Y-85298095D01*
X159437857Y-85250476D01*
X159533095Y-85250476D01*
X159675952Y-85298095D01*
X160247380Y-85869523D01*
X160247380Y-85250476D01*
X159342619Y-84869523D02*
X159295000Y-84821904D01*
X159247380Y-84726666D01*
X159247380Y-84488571D01*
X159295000Y-84393333D01*
X159342619Y-84345714D01*
X159437857Y-84298095D01*
X159533095Y-84298095D01*
X159675952Y-84345714D01*
X160247380Y-84917142D01*
X160247380Y-84298095D01*
%TO.C,D7*%
X124612380Y-79088095D02*
X123612380Y-79088095D01*
X123612380Y-78850000D01*
X123660000Y-78707142D01*
X123755238Y-78611904D01*
X123850476Y-78564285D01*
X124040952Y-78516666D01*
X124183809Y-78516666D01*
X124374285Y-78564285D01*
X124469523Y-78611904D01*
X124564761Y-78707142D01*
X124612380Y-78850000D01*
X124612380Y-79088095D01*
X123612380Y-78183333D02*
X123612380Y-77516666D01*
X124612380Y-77945238D01*
%TO.C,C30*%
X158427142Y-78522857D02*
X158474761Y-78570476D01*
X158522380Y-78713333D01*
X158522380Y-78808571D01*
X158474761Y-78951428D01*
X158379523Y-79046666D01*
X158284285Y-79094285D01*
X158093809Y-79141904D01*
X157950952Y-79141904D01*
X157760476Y-79094285D01*
X157665238Y-79046666D01*
X157570000Y-78951428D01*
X157522380Y-78808571D01*
X157522380Y-78713333D01*
X157570000Y-78570476D01*
X157617619Y-78522857D01*
X157522380Y-78189523D02*
X157522380Y-77570476D01*
X157903333Y-77903809D01*
X157903333Y-77760952D01*
X157950952Y-77665714D01*
X157998571Y-77618095D01*
X158093809Y-77570476D01*
X158331904Y-77570476D01*
X158427142Y-77618095D01*
X158474761Y-77665714D01*
X158522380Y-77760952D01*
X158522380Y-78046666D01*
X158474761Y-78141904D01*
X158427142Y-78189523D01*
X157522380Y-76951428D02*
X157522380Y-76856190D01*
X157570000Y-76760952D01*
X157617619Y-76713333D01*
X157712857Y-76665714D01*
X157903333Y-76618095D01*
X158141428Y-76618095D01*
X158331904Y-76665714D01*
X158427142Y-76713333D01*
X158474761Y-76760952D01*
X158522380Y-76856190D01*
X158522380Y-76951428D01*
X158474761Y-77046666D01*
X158427142Y-77094285D01*
X158331904Y-77141904D01*
X158141428Y-77189523D01*
X157903333Y-77189523D01*
X157712857Y-77141904D01*
X157617619Y-77094285D01*
X157570000Y-77046666D01*
X157522380Y-76951428D01*
%TO.C,C23*%
X138397142Y-107432857D02*
X138444761Y-107480476D01*
X138492380Y-107623333D01*
X138492380Y-107718571D01*
X138444761Y-107861428D01*
X138349523Y-107956666D01*
X138254285Y-108004285D01*
X138063809Y-108051904D01*
X137920952Y-108051904D01*
X137730476Y-108004285D01*
X137635238Y-107956666D01*
X137540000Y-107861428D01*
X137492380Y-107718571D01*
X137492380Y-107623333D01*
X137540000Y-107480476D01*
X137587619Y-107432857D01*
X137587619Y-107051904D02*
X137540000Y-107004285D01*
X137492380Y-106909047D01*
X137492380Y-106670952D01*
X137540000Y-106575714D01*
X137587619Y-106528095D01*
X137682857Y-106480476D01*
X137778095Y-106480476D01*
X137920952Y-106528095D01*
X138492380Y-107099523D01*
X138492380Y-106480476D01*
X137492380Y-106147142D02*
X137492380Y-105528095D01*
X137873333Y-105861428D01*
X137873333Y-105718571D01*
X137920952Y-105623333D01*
X137968571Y-105575714D01*
X138063809Y-105528095D01*
X138301904Y-105528095D01*
X138397142Y-105575714D01*
X138444761Y-105623333D01*
X138492380Y-105718571D01*
X138492380Y-106004285D01*
X138444761Y-106099523D01*
X138397142Y-106147142D01*
%TO.C,R24*%
X121352380Y-83222857D02*
X120876190Y-83556190D01*
X121352380Y-83794285D02*
X120352380Y-83794285D01*
X120352380Y-83413333D01*
X120400000Y-83318095D01*
X120447619Y-83270476D01*
X120542857Y-83222857D01*
X120685714Y-83222857D01*
X120780952Y-83270476D01*
X120828571Y-83318095D01*
X120876190Y-83413333D01*
X120876190Y-83794285D01*
X120447619Y-82841904D02*
X120400000Y-82794285D01*
X120352380Y-82699047D01*
X120352380Y-82460952D01*
X120400000Y-82365714D01*
X120447619Y-82318095D01*
X120542857Y-82270476D01*
X120638095Y-82270476D01*
X120780952Y-82318095D01*
X121352380Y-82889523D01*
X121352380Y-82270476D01*
X120685714Y-81413333D02*
X121352380Y-81413333D01*
X120304761Y-81651428D02*
X121019047Y-81889523D01*
X121019047Y-81270476D01*
%TO.C,C2*%
X145097142Y-91836666D02*
X145144761Y-91884285D01*
X145192380Y-92027142D01*
X145192380Y-92122380D01*
X145144761Y-92265238D01*
X145049523Y-92360476D01*
X144954285Y-92408095D01*
X144763809Y-92455714D01*
X144620952Y-92455714D01*
X144430476Y-92408095D01*
X144335238Y-92360476D01*
X144240000Y-92265238D01*
X144192380Y-92122380D01*
X144192380Y-92027142D01*
X144240000Y-91884285D01*
X144287619Y-91836666D01*
X144287619Y-91455714D02*
X144240000Y-91408095D01*
X144192380Y-91312857D01*
X144192380Y-91074761D01*
X144240000Y-90979523D01*
X144287619Y-90931904D01*
X144382857Y-90884285D01*
X144478095Y-90884285D01*
X144620952Y-90931904D01*
X145192380Y-91503333D01*
X145192380Y-90884285D01*
%TO.C,R13*%
X136637380Y-86812857D02*
X136161190Y-87146190D01*
X136637380Y-87384285D02*
X135637380Y-87384285D01*
X135637380Y-87003333D01*
X135685000Y-86908095D01*
X135732619Y-86860476D01*
X135827857Y-86812857D01*
X135970714Y-86812857D01*
X136065952Y-86860476D01*
X136113571Y-86908095D01*
X136161190Y-87003333D01*
X136161190Y-87384285D01*
X136637380Y-85860476D02*
X136637380Y-86431904D01*
X136637380Y-86146190D02*
X135637380Y-86146190D01*
X135780238Y-86241428D01*
X135875476Y-86336666D01*
X135923095Y-86431904D01*
X135637380Y-85527142D02*
X135637380Y-84908095D01*
X136018333Y-85241428D01*
X136018333Y-85098571D01*
X136065952Y-85003333D01*
X136113571Y-84955714D01*
X136208809Y-84908095D01*
X136446904Y-84908095D01*
X136542142Y-84955714D01*
X136589761Y-85003333D01*
X136637380Y-85098571D01*
X136637380Y-85384285D01*
X136589761Y-85479523D01*
X136542142Y-85527142D01*
%TO.C,C11*%
X140252142Y-77267142D02*
X140204523Y-77314761D01*
X140061666Y-77362380D01*
X139966428Y-77362380D01*
X139823571Y-77314761D01*
X139728333Y-77219523D01*
X139680714Y-77124285D01*
X139633095Y-76933809D01*
X139633095Y-76790952D01*
X139680714Y-76600476D01*
X139728333Y-76505238D01*
X139823571Y-76410000D01*
X139966428Y-76362380D01*
X140061666Y-76362380D01*
X140204523Y-76410000D01*
X140252142Y-76457619D01*
X141204523Y-77362380D02*
X140633095Y-77362380D01*
X140918809Y-77362380D02*
X140918809Y-76362380D01*
X140823571Y-76505238D01*
X140728333Y-76600476D01*
X140633095Y-76648095D01*
X142156904Y-77362380D02*
X141585476Y-77362380D01*
X141871190Y-77362380D02*
X141871190Y-76362380D01*
X141775952Y-76505238D01*
X141680714Y-76600476D01*
X141585476Y-76648095D01*
%TO.C,R16*%
X134267142Y-111862380D02*
X133933809Y-111386190D01*
X133695714Y-111862380D02*
X133695714Y-110862380D01*
X134076666Y-110862380D01*
X134171904Y-110910000D01*
X134219523Y-110957619D01*
X134267142Y-111052857D01*
X134267142Y-111195714D01*
X134219523Y-111290952D01*
X134171904Y-111338571D01*
X134076666Y-111386190D01*
X133695714Y-111386190D01*
X135219523Y-111862380D02*
X134648095Y-111862380D01*
X134933809Y-111862380D02*
X134933809Y-110862380D01*
X134838571Y-111005238D01*
X134743333Y-111100476D01*
X134648095Y-111148095D01*
X136076666Y-110862380D02*
X135886190Y-110862380D01*
X135790952Y-110910000D01*
X135743333Y-110957619D01*
X135648095Y-111100476D01*
X135600476Y-111290952D01*
X135600476Y-111671904D01*
X135648095Y-111767142D01*
X135695714Y-111814761D01*
X135790952Y-111862380D01*
X135981428Y-111862380D01*
X136076666Y-111814761D01*
X136124285Y-111767142D01*
X136171904Y-111671904D01*
X136171904Y-111433809D01*
X136124285Y-111338571D01*
X136076666Y-111290952D01*
X135981428Y-111243333D01*
X135790952Y-111243333D01*
X135695714Y-111290952D01*
X135648095Y-111338571D01*
X135600476Y-111433809D01*
%TO.C,U6*%
X120658095Y-88592380D02*
X120658095Y-89401904D01*
X120705714Y-89497142D01*
X120753333Y-89544761D01*
X120848571Y-89592380D01*
X121039047Y-89592380D01*
X121134285Y-89544761D01*
X121181904Y-89497142D01*
X121229523Y-89401904D01*
X121229523Y-88592380D01*
X122134285Y-88592380D02*
X121943809Y-88592380D01*
X121848571Y-88640000D01*
X121800952Y-88687619D01*
X121705714Y-88830476D01*
X121658095Y-89020952D01*
X121658095Y-89401904D01*
X121705714Y-89497142D01*
X121753333Y-89544761D01*
X121848571Y-89592380D01*
X122039047Y-89592380D01*
X122134285Y-89544761D01*
X122181904Y-89497142D01*
X122229523Y-89401904D01*
X122229523Y-89163809D01*
X122181904Y-89068571D01*
X122134285Y-89020952D01*
X122039047Y-88973333D01*
X121848571Y-88973333D01*
X121753333Y-89020952D01*
X121705714Y-89068571D01*
X121658095Y-89163809D01*
%TO.C,U1*%
X160782380Y-85491904D02*
X161591904Y-85491904D01*
X161687142Y-85444285D01*
X161734761Y-85396666D01*
X161782380Y-85301428D01*
X161782380Y-85110952D01*
X161734761Y-85015714D01*
X161687142Y-84968095D01*
X161591904Y-84920476D01*
X160782380Y-84920476D01*
X161782380Y-83920476D02*
X161782380Y-84491904D01*
X161782380Y-84206190D02*
X160782380Y-84206190D01*
X160925238Y-84301428D01*
X161020476Y-84396666D01*
X161068095Y-84491904D01*
%TO.C,D10*%
X113822380Y-85324285D02*
X112822380Y-85324285D01*
X112822380Y-85086190D01*
X112870000Y-84943333D01*
X112965238Y-84848095D01*
X113060476Y-84800476D01*
X113250952Y-84752857D01*
X113393809Y-84752857D01*
X113584285Y-84800476D01*
X113679523Y-84848095D01*
X113774761Y-84943333D01*
X113822380Y-85086190D01*
X113822380Y-85324285D01*
X113822380Y-83800476D02*
X113822380Y-84371904D01*
X113822380Y-84086190D02*
X112822380Y-84086190D01*
X112965238Y-84181428D01*
X113060476Y-84276666D01*
X113108095Y-84371904D01*
X112822380Y-83181428D02*
X112822380Y-83086190D01*
X112870000Y-82990952D01*
X112917619Y-82943333D01*
X113012857Y-82895714D01*
X113203333Y-82848095D01*
X113441428Y-82848095D01*
X113631904Y-82895714D01*
X113727142Y-82943333D01*
X113774761Y-82990952D01*
X113822380Y-83086190D01*
X113822380Y-83181428D01*
X113774761Y-83276666D01*
X113727142Y-83324285D01*
X113631904Y-83371904D01*
X113441428Y-83419523D01*
X113203333Y-83419523D01*
X113012857Y-83371904D01*
X112917619Y-83324285D01*
X112870000Y-83276666D01*
X112822380Y-83181428D01*
%TO.C,R18*%
X131037142Y-104032380D02*
X130703809Y-103556190D01*
X130465714Y-104032380D02*
X130465714Y-103032380D01*
X130846666Y-103032380D01*
X130941904Y-103080000D01*
X130989523Y-103127619D01*
X131037142Y-103222857D01*
X131037142Y-103365714D01*
X130989523Y-103460952D01*
X130941904Y-103508571D01*
X130846666Y-103556190D01*
X130465714Y-103556190D01*
X131989523Y-104032380D02*
X131418095Y-104032380D01*
X131703809Y-104032380D02*
X131703809Y-103032380D01*
X131608571Y-103175238D01*
X131513333Y-103270476D01*
X131418095Y-103318095D01*
X132560952Y-103460952D02*
X132465714Y-103413333D01*
X132418095Y-103365714D01*
X132370476Y-103270476D01*
X132370476Y-103222857D01*
X132418095Y-103127619D01*
X132465714Y-103080000D01*
X132560952Y-103032380D01*
X132751428Y-103032380D01*
X132846666Y-103080000D01*
X132894285Y-103127619D01*
X132941904Y-103222857D01*
X132941904Y-103270476D01*
X132894285Y-103365714D01*
X132846666Y-103413333D01*
X132751428Y-103460952D01*
X132560952Y-103460952D01*
X132465714Y-103508571D01*
X132418095Y-103556190D01*
X132370476Y-103651428D01*
X132370476Y-103841904D01*
X132418095Y-103937142D01*
X132465714Y-103984761D01*
X132560952Y-104032380D01*
X132751428Y-104032380D01*
X132846666Y-103984761D01*
X132894285Y-103937142D01*
X132941904Y-103841904D01*
X132941904Y-103651428D01*
X132894285Y-103556190D01*
X132846666Y-103508571D01*
X132751428Y-103460952D01*
%TO.C,C26*%
X159727142Y-83687142D02*
X159679523Y-83734761D01*
X159536666Y-83782380D01*
X159441428Y-83782380D01*
X159298571Y-83734761D01*
X159203333Y-83639523D01*
X159155714Y-83544285D01*
X159108095Y-83353809D01*
X159108095Y-83210952D01*
X159155714Y-83020476D01*
X159203333Y-82925238D01*
X159298571Y-82830000D01*
X159441428Y-82782380D01*
X159536666Y-82782380D01*
X159679523Y-82830000D01*
X159727142Y-82877619D01*
X160108095Y-82877619D02*
X160155714Y-82830000D01*
X160250952Y-82782380D01*
X160489047Y-82782380D01*
X160584285Y-82830000D01*
X160631904Y-82877619D01*
X160679523Y-82972857D01*
X160679523Y-83068095D01*
X160631904Y-83210952D01*
X160060476Y-83782380D01*
X160679523Y-83782380D01*
X161536666Y-82782380D02*
X161346190Y-82782380D01*
X161250952Y-82830000D01*
X161203333Y-82877619D01*
X161108095Y-83020476D01*
X161060476Y-83210952D01*
X161060476Y-83591904D01*
X161108095Y-83687142D01*
X161155714Y-83734761D01*
X161250952Y-83782380D01*
X161441428Y-83782380D01*
X161536666Y-83734761D01*
X161584285Y-83687142D01*
X161631904Y-83591904D01*
X161631904Y-83353809D01*
X161584285Y-83258571D01*
X161536666Y-83210952D01*
X161441428Y-83163333D01*
X161250952Y-83163333D01*
X161155714Y-83210952D01*
X161108095Y-83258571D01*
X161060476Y-83353809D01*
%TO.C,R23*%
X121352380Y-79002857D02*
X120876190Y-79336190D01*
X121352380Y-79574285D02*
X120352380Y-79574285D01*
X120352380Y-79193333D01*
X120400000Y-79098095D01*
X120447619Y-79050476D01*
X120542857Y-79002857D01*
X120685714Y-79002857D01*
X120780952Y-79050476D01*
X120828571Y-79098095D01*
X120876190Y-79193333D01*
X120876190Y-79574285D01*
X120447619Y-78621904D02*
X120400000Y-78574285D01*
X120352380Y-78479047D01*
X120352380Y-78240952D01*
X120400000Y-78145714D01*
X120447619Y-78098095D01*
X120542857Y-78050476D01*
X120638095Y-78050476D01*
X120780952Y-78098095D01*
X121352380Y-78669523D01*
X121352380Y-78050476D01*
X120352380Y-77717142D02*
X120352380Y-77098095D01*
X120733333Y-77431428D01*
X120733333Y-77288571D01*
X120780952Y-77193333D01*
X120828571Y-77145714D01*
X120923809Y-77098095D01*
X121161904Y-77098095D01*
X121257142Y-77145714D01*
X121304761Y-77193333D01*
X121352380Y-77288571D01*
X121352380Y-77574285D01*
X121304761Y-77669523D01*
X121257142Y-77717142D01*
%TO.C,TP7*%
X139008095Y-91014380D02*
X139579523Y-91014380D01*
X139293809Y-92014380D02*
X139293809Y-91014380D01*
X139912857Y-92014380D02*
X139912857Y-91014380D01*
X140293809Y-91014380D01*
X140389047Y-91062000D01*
X140436666Y-91109619D01*
X140484285Y-91204857D01*
X140484285Y-91347714D01*
X140436666Y-91442952D01*
X140389047Y-91490571D01*
X140293809Y-91538190D01*
X139912857Y-91538190D01*
X140817619Y-91014380D02*
X141484285Y-91014380D01*
X141055714Y-92014380D01*
%TO.C,R39*%
X142032380Y-112262857D02*
X141556190Y-112596190D01*
X142032380Y-112834285D02*
X141032380Y-112834285D01*
X141032380Y-112453333D01*
X141080000Y-112358095D01*
X141127619Y-112310476D01*
X141222857Y-112262857D01*
X141365714Y-112262857D01*
X141460952Y-112310476D01*
X141508571Y-112358095D01*
X141556190Y-112453333D01*
X141556190Y-112834285D01*
X141032380Y-111929523D02*
X141032380Y-111310476D01*
X141413333Y-111643809D01*
X141413333Y-111500952D01*
X141460952Y-111405714D01*
X141508571Y-111358095D01*
X141603809Y-111310476D01*
X141841904Y-111310476D01*
X141937142Y-111358095D01*
X141984761Y-111405714D01*
X142032380Y-111500952D01*
X142032380Y-111786666D01*
X141984761Y-111881904D01*
X141937142Y-111929523D01*
X142032380Y-110834285D02*
X142032380Y-110643809D01*
X141984761Y-110548571D01*
X141937142Y-110500952D01*
X141794285Y-110405714D01*
X141603809Y-110358095D01*
X141222857Y-110358095D01*
X141127619Y-110405714D01*
X141080000Y-110453333D01*
X141032380Y-110548571D01*
X141032380Y-110739047D01*
X141080000Y-110834285D01*
X141127619Y-110881904D01*
X141222857Y-110929523D01*
X141460952Y-110929523D01*
X141556190Y-110881904D01*
X141603809Y-110834285D01*
X141651428Y-110739047D01*
X141651428Y-110548571D01*
X141603809Y-110453333D01*
X141556190Y-110405714D01*
X141460952Y-110358095D01*
%TO.C,J1*%
X159682380Y-99563333D02*
X160396666Y-99563333D01*
X160539523Y-99610952D01*
X160634761Y-99706190D01*
X160682380Y-99849047D01*
X160682380Y-99944285D01*
X160682380Y-98563333D02*
X160682380Y-99134761D01*
X160682380Y-98849047D02*
X159682380Y-98849047D01*
X159825238Y-98944285D01*
X159920476Y-99039523D01*
X159968095Y-99134761D01*
%TO.C,TP3*%
X132958095Y-60814380D02*
X133529523Y-60814380D01*
X133243809Y-61814380D02*
X133243809Y-60814380D01*
X133862857Y-61814380D02*
X133862857Y-60814380D01*
X134243809Y-60814380D01*
X134339047Y-60862000D01*
X134386666Y-60909619D01*
X134434285Y-61004857D01*
X134434285Y-61147714D01*
X134386666Y-61242952D01*
X134339047Y-61290571D01*
X134243809Y-61338190D01*
X133862857Y-61338190D01*
X134767619Y-60814380D02*
X135386666Y-60814380D01*
X135053333Y-61195333D01*
X135196190Y-61195333D01*
X135291428Y-61242952D01*
X135339047Y-61290571D01*
X135386666Y-61385809D01*
X135386666Y-61623904D01*
X135339047Y-61719142D01*
X135291428Y-61766761D01*
X135196190Y-61814380D01*
X134910476Y-61814380D01*
X134815238Y-61766761D01*
X134767619Y-61719142D01*
%TO.C,C28*%
X126067142Y-74227142D02*
X126019523Y-74274761D01*
X125876666Y-74322380D01*
X125781428Y-74322380D01*
X125638571Y-74274761D01*
X125543333Y-74179523D01*
X125495714Y-74084285D01*
X125448095Y-73893809D01*
X125448095Y-73750952D01*
X125495714Y-73560476D01*
X125543333Y-73465238D01*
X125638571Y-73370000D01*
X125781428Y-73322380D01*
X125876666Y-73322380D01*
X126019523Y-73370000D01*
X126067142Y-73417619D01*
X126448095Y-73417619D02*
X126495714Y-73370000D01*
X126590952Y-73322380D01*
X126829047Y-73322380D01*
X126924285Y-73370000D01*
X126971904Y-73417619D01*
X127019523Y-73512857D01*
X127019523Y-73608095D01*
X126971904Y-73750952D01*
X126400476Y-74322380D01*
X127019523Y-74322380D01*
X127590952Y-73750952D02*
X127495714Y-73703333D01*
X127448095Y-73655714D01*
X127400476Y-73560476D01*
X127400476Y-73512857D01*
X127448095Y-73417619D01*
X127495714Y-73370000D01*
X127590952Y-73322380D01*
X127781428Y-73322380D01*
X127876666Y-73370000D01*
X127924285Y-73417619D01*
X127971904Y-73512857D01*
X127971904Y-73560476D01*
X127924285Y-73655714D01*
X127876666Y-73703333D01*
X127781428Y-73750952D01*
X127590952Y-73750952D01*
X127495714Y-73798571D01*
X127448095Y-73846190D01*
X127400476Y-73941428D01*
X127400476Y-74131904D01*
X127448095Y-74227142D01*
X127495714Y-74274761D01*
X127590952Y-74322380D01*
X127781428Y-74322380D01*
X127876666Y-74274761D01*
X127924285Y-74227142D01*
X127971904Y-74131904D01*
X127971904Y-73941428D01*
X127924285Y-73846190D01*
X127876666Y-73798571D01*
X127781428Y-73750952D01*
%TO.C,U7*%
X125838095Y-97762380D02*
X125838095Y-98571904D01*
X125885714Y-98667142D01*
X125933333Y-98714761D01*
X126028571Y-98762380D01*
X126219047Y-98762380D01*
X126314285Y-98714761D01*
X126361904Y-98667142D01*
X126409523Y-98571904D01*
X126409523Y-97762380D01*
X126790476Y-97762380D02*
X127457142Y-97762380D01*
X127028571Y-98762380D01*
%TO.C,R15*%
X153542142Y-90892380D02*
X153208809Y-90416190D01*
X152970714Y-90892380D02*
X152970714Y-89892380D01*
X153351666Y-89892380D01*
X153446904Y-89940000D01*
X153494523Y-89987619D01*
X153542142Y-90082857D01*
X153542142Y-90225714D01*
X153494523Y-90320952D01*
X153446904Y-90368571D01*
X153351666Y-90416190D01*
X152970714Y-90416190D01*
X154494523Y-90892380D02*
X153923095Y-90892380D01*
X154208809Y-90892380D02*
X154208809Y-89892380D01*
X154113571Y-90035238D01*
X154018333Y-90130476D01*
X153923095Y-90178095D01*
X155399285Y-89892380D02*
X154923095Y-89892380D01*
X154875476Y-90368571D01*
X154923095Y-90320952D01*
X155018333Y-90273333D01*
X155256428Y-90273333D01*
X155351666Y-90320952D01*
X155399285Y-90368571D01*
X155446904Y-90463809D01*
X155446904Y-90701904D01*
X155399285Y-90797142D01*
X155351666Y-90844761D01*
X155256428Y-90892380D01*
X155018333Y-90892380D01*
X154923095Y-90844761D01*
X154875476Y-90797142D01*
%TO.C,C19*%
X120797142Y-110487142D02*
X120749523Y-110534761D01*
X120606666Y-110582380D01*
X120511428Y-110582380D01*
X120368571Y-110534761D01*
X120273333Y-110439523D01*
X120225714Y-110344285D01*
X120178095Y-110153809D01*
X120178095Y-110010952D01*
X120225714Y-109820476D01*
X120273333Y-109725238D01*
X120368571Y-109630000D01*
X120511428Y-109582380D01*
X120606666Y-109582380D01*
X120749523Y-109630000D01*
X120797142Y-109677619D01*
X121749523Y-110582380D02*
X121178095Y-110582380D01*
X121463809Y-110582380D02*
X121463809Y-109582380D01*
X121368571Y-109725238D01*
X121273333Y-109820476D01*
X121178095Y-109868095D01*
X122225714Y-110582380D02*
X122416190Y-110582380D01*
X122511428Y-110534761D01*
X122559047Y-110487142D01*
X122654285Y-110344285D01*
X122701904Y-110153809D01*
X122701904Y-109772857D01*
X122654285Y-109677619D01*
X122606666Y-109630000D01*
X122511428Y-109582380D01*
X122320952Y-109582380D01*
X122225714Y-109630000D01*
X122178095Y-109677619D01*
X122130476Y-109772857D01*
X122130476Y-110010952D01*
X122178095Y-110106190D01*
X122225714Y-110153809D01*
X122320952Y-110201428D01*
X122511428Y-110201428D01*
X122606666Y-110153809D01*
X122654285Y-110106190D01*
X122701904Y-110010952D01*
%TO.C,C16*%
X149917142Y-90657142D02*
X149869523Y-90704761D01*
X149726666Y-90752380D01*
X149631428Y-90752380D01*
X149488571Y-90704761D01*
X149393333Y-90609523D01*
X149345714Y-90514285D01*
X149298095Y-90323809D01*
X149298095Y-90180952D01*
X149345714Y-89990476D01*
X149393333Y-89895238D01*
X149488571Y-89800000D01*
X149631428Y-89752380D01*
X149726666Y-89752380D01*
X149869523Y-89800000D01*
X149917142Y-89847619D01*
X150869523Y-90752380D02*
X150298095Y-90752380D01*
X150583809Y-90752380D02*
X150583809Y-89752380D01*
X150488571Y-89895238D01*
X150393333Y-89990476D01*
X150298095Y-90038095D01*
X151726666Y-89752380D02*
X151536190Y-89752380D01*
X151440952Y-89800000D01*
X151393333Y-89847619D01*
X151298095Y-89990476D01*
X151250476Y-90180952D01*
X151250476Y-90561904D01*
X151298095Y-90657142D01*
X151345714Y-90704761D01*
X151440952Y-90752380D01*
X151631428Y-90752380D01*
X151726666Y-90704761D01*
X151774285Y-90657142D01*
X151821904Y-90561904D01*
X151821904Y-90323809D01*
X151774285Y-90228571D01*
X151726666Y-90180952D01*
X151631428Y-90133333D01*
X151440952Y-90133333D01*
X151345714Y-90180952D01*
X151298095Y-90228571D01*
X151250476Y-90323809D01*
%TO.C,C29*%
X136897142Y-96827142D02*
X136849523Y-96874761D01*
X136706666Y-96922380D01*
X136611428Y-96922380D01*
X136468571Y-96874761D01*
X136373333Y-96779523D01*
X136325714Y-96684285D01*
X136278095Y-96493809D01*
X136278095Y-96350952D01*
X136325714Y-96160476D01*
X136373333Y-96065238D01*
X136468571Y-95970000D01*
X136611428Y-95922380D01*
X136706666Y-95922380D01*
X136849523Y-95970000D01*
X136897142Y-96017619D01*
X137278095Y-96017619D02*
X137325714Y-95970000D01*
X137420952Y-95922380D01*
X137659047Y-95922380D01*
X137754285Y-95970000D01*
X137801904Y-96017619D01*
X137849523Y-96112857D01*
X137849523Y-96208095D01*
X137801904Y-96350952D01*
X137230476Y-96922380D01*
X137849523Y-96922380D01*
X138325714Y-96922380D02*
X138516190Y-96922380D01*
X138611428Y-96874761D01*
X138659047Y-96827142D01*
X138754285Y-96684285D01*
X138801904Y-96493809D01*
X138801904Y-96112857D01*
X138754285Y-96017619D01*
X138706666Y-95970000D01*
X138611428Y-95922380D01*
X138420952Y-95922380D01*
X138325714Y-95970000D01*
X138278095Y-96017619D01*
X138230476Y-96112857D01*
X138230476Y-96350952D01*
X138278095Y-96446190D01*
X138325714Y-96493809D01*
X138420952Y-96541428D01*
X138611428Y-96541428D01*
X138706666Y-96493809D01*
X138754285Y-96446190D01*
X138801904Y-96350952D01*
%TO.C,C25*%
X136697142Y-109002857D02*
X136744761Y-109050476D01*
X136792380Y-109193333D01*
X136792380Y-109288571D01*
X136744761Y-109431428D01*
X136649523Y-109526666D01*
X136554285Y-109574285D01*
X136363809Y-109621904D01*
X136220952Y-109621904D01*
X136030476Y-109574285D01*
X135935238Y-109526666D01*
X135840000Y-109431428D01*
X135792380Y-109288571D01*
X135792380Y-109193333D01*
X135840000Y-109050476D01*
X135887619Y-109002857D01*
X135887619Y-108621904D02*
X135840000Y-108574285D01*
X135792380Y-108479047D01*
X135792380Y-108240952D01*
X135840000Y-108145714D01*
X135887619Y-108098095D01*
X135982857Y-108050476D01*
X136078095Y-108050476D01*
X136220952Y-108098095D01*
X136792380Y-108669523D01*
X136792380Y-108050476D01*
X135792380Y-107145714D02*
X135792380Y-107621904D01*
X136268571Y-107669523D01*
X136220952Y-107621904D01*
X136173333Y-107526666D01*
X136173333Y-107288571D01*
X136220952Y-107193333D01*
X136268571Y-107145714D01*
X136363809Y-107098095D01*
X136601904Y-107098095D01*
X136697142Y-107145714D01*
X136744761Y-107193333D01*
X136792380Y-107288571D01*
X136792380Y-107526666D01*
X136744761Y-107621904D01*
X136697142Y-107669523D01*
%TO.C,C10*%
X123992142Y-66547857D02*
X124039761Y-66595476D01*
X124087380Y-66738333D01*
X124087380Y-66833571D01*
X124039761Y-66976428D01*
X123944523Y-67071666D01*
X123849285Y-67119285D01*
X123658809Y-67166904D01*
X123515952Y-67166904D01*
X123325476Y-67119285D01*
X123230238Y-67071666D01*
X123135000Y-66976428D01*
X123087380Y-66833571D01*
X123087380Y-66738333D01*
X123135000Y-66595476D01*
X123182619Y-66547857D01*
X124087380Y-65595476D02*
X124087380Y-66166904D01*
X124087380Y-65881190D02*
X123087380Y-65881190D01*
X123230238Y-65976428D01*
X123325476Y-66071666D01*
X123373095Y-66166904D01*
X123087380Y-64976428D02*
X123087380Y-64881190D01*
X123135000Y-64785952D01*
X123182619Y-64738333D01*
X123277857Y-64690714D01*
X123468333Y-64643095D01*
X123706428Y-64643095D01*
X123896904Y-64690714D01*
X123992142Y-64738333D01*
X124039761Y-64785952D01*
X124087380Y-64881190D01*
X124087380Y-64976428D01*
X124039761Y-65071666D01*
X123992142Y-65119285D01*
X123896904Y-65166904D01*
X123706428Y-65214523D01*
X123468333Y-65214523D01*
X123277857Y-65166904D01*
X123182619Y-65119285D01*
X123135000Y-65071666D01*
X123087380Y-64976428D01*
%TO.C,R29*%
X169847142Y-102962380D02*
X169513809Y-102486190D01*
X169275714Y-102962380D02*
X169275714Y-101962380D01*
X169656666Y-101962380D01*
X169751904Y-102010000D01*
X169799523Y-102057619D01*
X169847142Y-102152857D01*
X169847142Y-102295714D01*
X169799523Y-102390952D01*
X169751904Y-102438571D01*
X169656666Y-102486190D01*
X169275714Y-102486190D01*
X170228095Y-102057619D02*
X170275714Y-102010000D01*
X170370952Y-101962380D01*
X170609047Y-101962380D01*
X170704285Y-102010000D01*
X170751904Y-102057619D01*
X170799523Y-102152857D01*
X170799523Y-102248095D01*
X170751904Y-102390952D01*
X170180476Y-102962380D01*
X170799523Y-102962380D01*
X171275714Y-102962380D02*
X171466190Y-102962380D01*
X171561428Y-102914761D01*
X171609047Y-102867142D01*
X171704285Y-102724285D01*
X171751904Y-102533809D01*
X171751904Y-102152857D01*
X171704285Y-102057619D01*
X171656666Y-102010000D01*
X171561428Y-101962380D01*
X171370952Y-101962380D01*
X171275714Y-102010000D01*
X171228095Y-102057619D01*
X171180476Y-102152857D01*
X171180476Y-102390952D01*
X171228095Y-102486190D01*
X171275714Y-102533809D01*
X171370952Y-102581428D01*
X171561428Y-102581428D01*
X171656666Y-102533809D01*
X171704285Y-102486190D01*
X171751904Y-102390952D01*
%TO.C,R27*%
X114037142Y-96462380D02*
X113703809Y-95986190D01*
X113465714Y-96462380D02*
X113465714Y-95462380D01*
X113846666Y-95462380D01*
X113941904Y-95510000D01*
X113989523Y-95557619D01*
X114037142Y-95652857D01*
X114037142Y-95795714D01*
X113989523Y-95890952D01*
X113941904Y-95938571D01*
X113846666Y-95986190D01*
X113465714Y-95986190D01*
X114418095Y-95557619D02*
X114465714Y-95510000D01*
X114560952Y-95462380D01*
X114799047Y-95462380D01*
X114894285Y-95510000D01*
X114941904Y-95557619D01*
X114989523Y-95652857D01*
X114989523Y-95748095D01*
X114941904Y-95890952D01*
X114370476Y-96462380D01*
X114989523Y-96462380D01*
X115322857Y-95462380D02*
X115989523Y-95462380D01*
X115560952Y-96462380D01*
%TO.C,U2*%
X141728095Y-92222380D02*
X141728095Y-93031904D01*
X141775714Y-93127142D01*
X141823333Y-93174761D01*
X141918571Y-93222380D01*
X142109047Y-93222380D01*
X142204285Y-93174761D01*
X142251904Y-93127142D01*
X142299523Y-93031904D01*
X142299523Y-92222380D01*
X142728095Y-92317619D02*
X142775714Y-92270000D01*
X142870952Y-92222380D01*
X143109047Y-92222380D01*
X143204285Y-92270000D01*
X143251904Y-92317619D01*
X143299523Y-92412857D01*
X143299523Y-92508095D01*
X143251904Y-92650952D01*
X142680476Y-93222380D01*
X143299523Y-93222380D01*
%TO.C,TP2*%
X128548095Y-71204380D02*
X129119523Y-71204380D01*
X128833809Y-72204380D02*
X128833809Y-71204380D01*
X129452857Y-72204380D02*
X129452857Y-71204380D01*
X129833809Y-71204380D01*
X129929047Y-71252000D01*
X129976666Y-71299619D01*
X130024285Y-71394857D01*
X130024285Y-71537714D01*
X129976666Y-71632952D01*
X129929047Y-71680571D01*
X129833809Y-71728190D01*
X129452857Y-71728190D01*
X130405238Y-71299619D02*
X130452857Y-71252000D01*
X130548095Y-71204380D01*
X130786190Y-71204380D01*
X130881428Y-71252000D01*
X130929047Y-71299619D01*
X130976666Y-71394857D01*
X130976666Y-71490095D01*
X130929047Y-71632952D01*
X130357619Y-72204380D01*
X130976666Y-72204380D01*
%TO.C,U3*%
X156452380Y-119581904D02*
X157261904Y-119581904D01*
X157357142Y-119534285D01*
X157404761Y-119486666D01*
X157452380Y-119391428D01*
X157452380Y-119200952D01*
X157404761Y-119105714D01*
X157357142Y-119058095D01*
X157261904Y-119010476D01*
X156452380Y-119010476D01*
X156452380Y-118629523D02*
X156452380Y-118010476D01*
X156833333Y-118343809D01*
X156833333Y-118200952D01*
X156880952Y-118105714D01*
X156928571Y-118058095D01*
X157023809Y-118010476D01*
X157261904Y-118010476D01*
X157357142Y-118058095D01*
X157404761Y-118105714D01*
X157452380Y-118200952D01*
X157452380Y-118486666D01*
X157404761Y-118581904D01*
X157357142Y-118629523D01*
%TO.C,R37*%
X141152380Y-107332857D02*
X140676190Y-107666190D01*
X141152380Y-107904285D02*
X140152380Y-107904285D01*
X140152380Y-107523333D01*
X140200000Y-107428095D01*
X140247619Y-107380476D01*
X140342857Y-107332857D01*
X140485714Y-107332857D01*
X140580952Y-107380476D01*
X140628571Y-107428095D01*
X140676190Y-107523333D01*
X140676190Y-107904285D01*
X140152380Y-106999523D02*
X140152380Y-106380476D01*
X140533333Y-106713809D01*
X140533333Y-106570952D01*
X140580952Y-106475714D01*
X140628571Y-106428095D01*
X140723809Y-106380476D01*
X140961904Y-106380476D01*
X141057142Y-106428095D01*
X141104761Y-106475714D01*
X141152380Y-106570952D01*
X141152380Y-106856666D01*
X141104761Y-106951904D01*
X141057142Y-106999523D01*
X140152380Y-106047142D02*
X140152380Y-105380476D01*
X141152380Y-105809047D01*
%TO.C,C6*%
X156477142Y-123596666D02*
X156524761Y-123644285D01*
X156572380Y-123787142D01*
X156572380Y-123882380D01*
X156524761Y-124025238D01*
X156429523Y-124120476D01*
X156334285Y-124168095D01*
X156143809Y-124215714D01*
X156000952Y-124215714D01*
X155810476Y-124168095D01*
X155715238Y-124120476D01*
X155620000Y-124025238D01*
X155572380Y-123882380D01*
X155572380Y-123787142D01*
X155620000Y-123644285D01*
X155667619Y-123596666D01*
X155572380Y-122739523D02*
X155572380Y-122930000D01*
X155620000Y-123025238D01*
X155667619Y-123072857D01*
X155810476Y-123168095D01*
X156000952Y-123215714D01*
X156381904Y-123215714D01*
X156477142Y-123168095D01*
X156524761Y-123120476D01*
X156572380Y-123025238D01*
X156572380Y-122834761D01*
X156524761Y-122739523D01*
X156477142Y-122691904D01*
X156381904Y-122644285D01*
X156143809Y-122644285D01*
X156048571Y-122691904D01*
X156000952Y-122739523D01*
X155953333Y-122834761D01*
X155953333Y-123025238D01*
X156000952Y-123120476D01*
X156048571Y-123168095D01*
X156143809Y-123215714D01*
%TO.C,U4*%
X132367380Y-66474404D02*
X133176904Y-66474404D01*
X133272142Y-66426785D01*
X133319761Y-66379166D01*
X133367380Y-66283928D01*
X133367380Y-66093452D01*
X133319761Y-65998214D01*
X133272142Y-65950595D01*
X133176904Y-65902976D01*
X132367380Y-65902976D01*
X132700714Y-64998214D02*
X133367380Y-64998214D01*
X132319761Y-65236309D02*
X133034047Y-65474404D01*
X133034047Y-64855357D01*
%TO.C,R6*%
X153423333Y-115512380D02*
X153090000Y-115036190D01*
X152851904Y-115512380D02*
X152851904Y-114512380D01*
X153232857Y-114512380D01*
X153328095Y-114560000D01*
X153375714Y-114607619D01*
X153423333Y-114702857D01*
X153423333Y-114845714D01*
X153375714Y-114940952D01*
X153328095Y-114988571D01*
X153232857Y-115036190D01*
X152851904Y-115036190D01*
X154280476Y-114512380D02*
X154090000Y-114512380D01*
X153994761Y-114560000D01*
X153947142Y-114607619D01*
X153851904Y-114750476D01*
X153804285Y-114940952D01*
X153804285Y-115321904D01*
X153851904Y-115417142D01*
X153899523Y-115464761D01*
X153994761Y-115512380D01*
X154185238Y-115512380D01*
X154280476Y-115464761D01*
X154328095Y-115417142D01*
X154375714Y-115321904D01*
X154375714Y-115083809D01*
X154328095Y-114988571D01*
X154280476Y-114940952D01*
X154185238Y-114893333D01*
X153994761Y-114893333D01*
X153899523Y-114940952D01*
X153851904Y-114988571D01*
X153804285Y-115083809D01*
%TO.C,R5*%
X153433333Y-117582380D02*
X153100000Y-117106190D01*
X152861904Y-117582380D02*
X152861904Y-116582380D01*
X153242857Y-116582380D01*
X153338095Y-116630000D01*
X153385714Y-116677619D01*
X153433333Y-116772857D01*
X153433333Y-116915714D01*
X153385714Y-117010952D01*
X153338095Y-117058571D01*
X153242857Y-117106190D01*
X152861904Y-117106190D01*
X154338095Y-116582380D02*
X153861904Y-116582380D01*
X153814285Y-117058571D01*
X153861904Y-117010952D01*
X153957142Y-116963333D01*
X154195238Y-116963333D01*
X154290476Y-117010952D01*
X154338095Y-117058571D01*
X154385714Y-117153809D01*
X154385714Y-117391904D01*
X154338095Y-117487142D01*
X154290476Y-117534761D01*
X154195238Y-117582380D01*
X153957142Y-117582380D01*
X153861904Y-117534761D01*
X153814285Y-117487142D01*
%TO.C,R10*%
X116917142Y-96462380D02*
X116583809Y-95986190D01*
X116345714Y-96462380D02*
X116345714Y-95462380D01*
X116726666Y-95462380D01*
X116821904Y-95510000D01*
X116869523Y-95557619D01*
X116917142Y-95652857D01*
X116917142Y-95795714D01*
X116869523Y-95890952D01*
X116821904Y-95938571D01*
X116726666Y-95986190D01*
X116345714Y-95986190D01*
X117869523Y-96462380D02*
X117298095Y-96462380D01*
X117583809Y-96462380D02*
X117583809Y-95462380D01*
X117488571Y-95605238D01*
X117393333Y-95700476D01*
X117298095Y-95748095D01*
X118488571Y-95462380D02*
X118583809Y-95462380D01*
X118679047Y-95510000D01*
X118726666Y-95557619D01*
X118774285Y-95652857D01*
X118821904Y-95843333D01*
X118821904Y-96081428D01*
X118774285Y-96271904D01*
X118726666Y-96367142D01*
X118679047Y-96414761D01*
X118583809Y-96462380D01*
X118488571Y-96462380D01*
X118393333Y-96414761D01*
X118345714Y-96367142D01*
X118298095Y-96271904D01*
X118250476Y-96081428D01*
X118250476Y-95843333D01*
X118298095Y-95652857D01*
X118345714Y-95557619D01*
X118393333Y-95510000D01*
X118488571Y-95462380D01*
%TO.C,C32*%
X137787142Y-67792857D02*
X137834761Y-67840476D01*
X137882380Y-67983333D01*
X137882380Y-68078571D01*
X137834761Y-68221428D01*
X137739523Y-68316666D01*
X137644285Y-68364285D01*
X137453809Y-68411904D01*
X137310952Y-68411904D01*
X137120476Y-68364285D01*
X137025238Y-68316666D01*
X136930000Y-68221428D01*
X136882380Y-68078571D01*
X136882380Y-67983333D01*
X136930000Y-67840476D01*
X136977619Y-67792857D01*
X136882380Y-67459523D02*
X136882380Y-66840476D01*
X137263333Y-67173809D01*
X137263333Y-67030952D01*
X137310952Y-66935714D01*
X137358571Y-66888095D01*
X137453809Y-66840476D01*
X137691904Y-66840476D01*
X137787142Y-66888095D01*
X137834761Y-66935714D01*
X137882380Y-67030952D01*
X137882380Y-67316666D01*
X137834761Y-67411904D01*
X137787142Y-67459523D01*
X136977619Y-66459523D02*
X136930000Y-66411904D01*
X136882380Y-66316666D01*
X136882380Y-66078571D01*
X136930000Y-65983333D01*
X136977619Y-65935714D01*
X137072857Y-65888095D01*
X137168095Y-65888095D01*
X137310952Y-65935714D01*
X137882380Y-66507142D01*
X137882380Y-65888095D01*
%TO.C,C5*%
X165943333Y-123787142D02*
X165895714Y-123834761D01*
X165752857Y-123882380D01*
X165657619Y-123882380D01*
X165514761Y-123834761D01*
X165419523Y-123739523D01*
X165371904Y-123644285D01*
X165324285Y-123453809D01*
X165324285Y-123310952D01*
X165371904Y-123120476D01*
X165419523Y-123025238D01*
X165514761Y-122930000D01*
X165657619Y-122882380D01*
X165752857Y-122882380D01*
X165895714Y-122930000D01*
X165943333Y-122977619D01*
X166848095Y-122882380D02*
X166371904Y-122882380D01*
X166324285Y-123358571D01*
X166371904Y-123310952D01*
X166467142Y-123263333D01*
X166705238Y-123263333D01*
X166800476Y-123310952D01*
X166848095Y-123358571D01*
X166895714Y-123453809D01*
X166895714Y-123691904D01*
X166848095Y-123787142D01*
X166800476Y-123834761D01*
X166705238Y-123882380D01*
X166467142Y-123882380D01*
X166371904Y-123834761D01*
X166324285Y-123787142D01*
%TO.C,R33*%
X124967142Y-93662380D02*
X124633809Y-93186190D01*
X124395714Y-93662380D02*
X124395714Y-92662380D01*
X124776666Y-92662380D01*
X124871904Y-92710000D01*
X124919523Y-92757619D01*
X124967142Y-92852857D01*
X124967142Y-92995714D01*
X124919523Y-93090952D01*
X124871904Y-93138571D01*
X124776666Y-93186190D01*
X124395714Y-93186190D01*
X125300476Y-92662380D02*
X125919523Y-92662380D01*
X125586190Y-93043333D01*
X125729047Y-93043333D01*
X125824285Y-93090952D01*
X125871904Y-93138571D01*
X125919523Y-93233809D01*
X125919523Y-93471904D01*
X125871904Y-93567142D01*
X125824285Y-93614761D01*
X125729047Y-93662380D01*
X125443333Y-93662380D01*
X125348095Y-93614761D01*
X125300476Y-93567142D01*
X126252857Y-92662380D02*
X126871904Y-92662380D01*
X126538571Y-93043333D01*
X126681428Y-93043333D01*
X126776666Y-93090952D01*
X126824285Y-93138571D01*
X126871904Y-93233809D01*
X126871904Y-93471904D01*
X126824285Y-93567142D01*
X126776666Y-93614761D01*
X126681428Y-93662380D01*
X126395714Y-93662380D01*
X126300476Y-93614761D01*
X126252857Y-93567142D01*
%TO.C,R36*%
X159687142Y-76202380D02*
X159353809Y-75726190D01*
X159115714Y-76202380D02*
X159115714Y-75202380D01*
X159496666Y-75202380D01*
X159591904Y-75250000D01*
X159639523Y-75297619D01*
X159687142Y-75392857D01*
X159687142Y-75535714D01*
X159639523Y-75630952D01*
X159591904Y-75678571D01*
X159496666Y-75726190D01*
X159115714Y-75726190D01*
X160020476Y-75202380D02*
X160639523Y-75202380D01*
X160306190Y-75583333D01*
X160449047Y-75583333D01*
X160544285Y-75630952D01*
X160591904Y-75678571D01*
X160639523Y-75773809D01*
X160639523Y-76011904D01*
X160591904Y-76107142D01*
X160544285Y-76154761D01*
X160449047Y-76202380D01*
X160163333Y-76202380D01*
X160068095Y-76154761D01*
X160020476Y-76107142D01*
X161496666Y-75202380D02*
X161306190Y-75202380D01*
X161210952Y-75250000D01*
X161163333Y-75297619D01*
X161068095Y-75440476D01*
X161020476Y-75630952D01*
X161020476Y-76011904D01*
X161068095Y-76107142D01*
X161115714Y-76154761D01*
X161210952Y-76202380D01*
X161401428Y-76202380D01*
X161496666Y-76154761D01*
X161544285Y-76107142D01*
X161591904Y-76011904D01*
X161591904Y-75773809D01*
X161544285Y-75678571D01*
X161496666Y-75630952D01*
X161401428Y-75583333D01*
X161210952Y-75583333D01*
X161115714Y-75630952D01*
X161068095Y-75678571D01*
X161020476Y-75773809D01*
%TO.C,D6*%
X159391904Y-109762380D02*
X159391904Y-108762380D01*
X159630000Y-108762380D01*
X159772857Y-108810000D01*
X159868095Y-108905238D01*
X159915714Y-109000476D01*
X159963333Y-109190952D01*
X159963333Y-109333809D01*
X159915714Y-109524285D01*
X159868095Y-109619523D01*
X159772857Y-109714761D01*
X159630000Y-109762380D01*
X159391904Y-109762380D01*
X160820476Y-108762380D02*
X160630000Y-108762380D01*
X160534761Y-108810000D01*
X160487142Y-108857619D01*
X160391904Y-109000476D01*
X160344285Y-109190952D01*
X160344285Y-109571904D01*
X160391904Y-109667142D01*
X160439523Y-109714761D01*
X160534761Y-109762380D01*
X160725238Y-109762380D01*
X160820476Y-109714761D01*
X160868095Y-109667142D01*
X160915714Y-109571904D01*
X160915714Y-109333809D01*
X160868095Y-109238571D01*
X160820476Y-109190952D01*
X160725238Y-109143333D01*
X160534761Y-109143333D01*
X160439523Y-109190952D01*
X160391904Y-109238571D01*
X160344285Y-109333809D01*
%TO.C,R11*%
X144577380Y-84002857D02*
X144101190Y-84336190D01*
X144577380Y-84574285D02*
X143577380Y-84574285D01*
X143577380Y-84193333D01*
X143625000Y-84098095D01*
X143672619Y-84050476D01*
X143767857Y-84002857D01*
X143910714Y-84002857D01*
X144005952Y-84050476D01*
X144053571Y-84098095D01*
X144101190Y-84193333D01*
X144101190Y-84574285D01*
X144577380Y-83050476D02*
X144577380Y-83621904D01*
X144577380Y-83336190D02*
X143577380Y-83336190D01*
X143720238Y-83431428D01*
X143815476Y-83526666D01*
X143863095Y-83621904D01*
X144577380Y-82098095D02*
X144577380Y-82669523D01*
X144577380Y-82383809D02*
X143577380Y-82383809D01*
X143720238Y-82479047D01*
X143815476Y-82574285D01*
X143863095Y-82669523D01*
%TO.C,D8*%
X124592380Y-82518095D02*
X123592380Y-82518095D01*
X123592380Y-82280000D01*
X123640000Y-82137142D01*
X123735238Y-82041904D01*
X123830476Y-81994285D01*
X124020952Y-81946666D01*
X124163809Y-81946666D01*
X124354285Y-81994285D01*
X124449523Y-82041904D01*
X124544761Y-82137142D01*
X124592380Y-82280000D01*
X124592380Y-82518095D01*
X124020952Y-81375238D02*
X123973333Y-81470476D01*
X123925714Y-81518095D01*
X123830476Y-81565714D01*
X123782857Y-81565714D01*
X123687619Y-81518095D01*
X123640000Y-81470476D01*
X123592380Y-81375238D01*
X123592380Y-81184761D01*
X123640000Y-81089523D01*
X123687619Y-81041904D01*
X123782857Y-80994285D01*
X123830476Y-80994285D01*
X123925714Y-81041904D01*
X123973333Y-81089523D01*
X124020952Y-81184761D01*
X124020952Y-81375238D01*
X124068571Y-81470476D01*
X124116190Y-81518095D01*
X124211428Y-81565714D01*
X124401904Y-81565714D01*
X124497142Y-81518095D01*
X124544761Y-81470476D01*
X124592380Y-81375238D01*
X124592380Y-81184761D01*
X124544761Y-81089523D01*
X124497142Y-81041904D01*
X124401904Y-80994285D01*
X124211428Y-80994285D01*
X124116190Y-81041904D01*
X124068571Y-81089523D01*
X124020952Y-81184761D01*
D12*
%TO.C,R9*%
X142727936Y-81565000D02*
X143182064Y-81565000D01*
X142727936Y-80095000D02*
X143182064Y-80095000D01*
%TO.C,R2*%
X173915000Y-105092936D02*
X173915000Y-105547064D01*
X175385000Y-105092936D02*
X175385000Y-105547064D01*
D13*
%TO.C,D2*%
X172996250Y-121615000D02*
G75*
G03*
X172996250Y-121615000I-50000J0D01*
G01*
D12*
%TO.C,C9*%
X150308748Y-112235000D02*
X150831252Y-112235000D01*
X150308748Y-113705000D02*
X150831252Y-113705000D01*
%TO.C,C31*%
X134708748Y-101335000D02*
X135231252Y-101335000D01*
X134708748Y-99865000D02*
X135231252Y-99865000D01*
%TO.C,R31*%
X128852936Y-94475000D02*
X129307064Y-94475000D01*
X128852936Y-95945000D02*
X129307064Y-95945000D01*
%TO.C,R32*%
X114687064Y-88115000D02*
X114232936Y-88115000D01*
X114687064Y-89585000D02*
X114232936Y-89585000D01*
%TO.C,TP6*%
X114540000Y-107810000D02*
G75*
G03*
X114540000Y-107810000I-700000J0D01*
G01*
%TO.C,R1*%
X173265000Y-105092936D02*
X173265000Y-105547064D01*
X171795000Y-105092936D02*
X171795000Y-105547064D01*
%TO.C,R20*%
X135507064Y-103525000D02*
X135052936Y-103525000D01*
X135507064Y-102055000D02*
X135052936Y-102055000D01*
%TO.C,R4*%
X165435000Y-105092936D02*
X165435000Y-105547064D01*
X166905000Y-105092936D02*
X166905000Y-105547064D01*
%TO.C,R25*%
X116305000Y-78162936D02*
X116305000Y-78617064D01*
X114835000Y-78162936D02*
X114835000Y-78617064D01*
%TO.C,C4*%
X164301252Y-114295000D02*
X163778748Y-114295000D01*
X164301252Y-112825000D02*
X163778748Y-112825000D01*
D13*
%TO.C,D5*%
X168366250Y-121615000D02*
G75*
G03*
X168366250Y-121615000I-50000J0D01*
G01*
D12*
%TO.C,TP5*%
X134830000Y-90240000D02*
G75*
G03*
X134830000Y-90240000I-700000J0D01*
G01*
%TO.C,R19*%
X153290000Y-80437064D02*
X153290000Y-79982936D01*
X154760000Y-80437064D02*
X154760000Y-79982936D01*
%TO.C,C17*%
X138713748Y-89035000D02*
X139236252Y-89035000D01*
X138713748Y-87565000D02*
X139236252Y-87565000D01*
%TO.C,R7*%
X138707936Y-80155000D02*
X139162064Y-80155000D01*
X138707936Y-81625000D02*
X139162064Y-81625000D01*
%TO.C,C12*%
X139146252Y-83755000D02*
X138623748Y-83755000D01*
X139146252Y-82285000D02*
X138623748Y-82285000D01*
%TO.C,C18*%
X142693748Y-86155000D02*
X143216252Y-86155000D01*
X142693748Y-87625000D02*
X143216252Y-87625000D01*
%TO.C,R3*%
X167555000Y-105092936D02*
X167555000Y-105547064D01*
X169025000Y-105092936D02*
X169025000Y-105547064D01*
%TO.C,R35*%
X150362936Y-76535000D02*
X150817064Y-76535000D01*
X150362936Y-75065000D02*
X150817064Y-75065000D01*
%TO.C,TP4*%
X150080000Y-72030000D02*
G75*
G03*
X150080000Y-72030000I-700000J0D01*
G01*
%TO.C,R21*%
X157060000Y-80042936D02*
X157060000Y-80497064D01*
X155590000Y-80042936D02*
X155590000Y-80497064D01*
%TO.C,R22*%
X132375000Y-100532936D02*
X132375000Y-100987064D01*
X130905000Y-100532936D02*
X130905000Y-100987064D01*
%TO.C,R17*%
X154410000Y-85747064D02*
X154410000Y-85292936D01*
X152940000Y-85747064D02*
X152940000Y-85292936D01*
%TO.C,C8*%
X158475000Y-112618748D02*
X158475000Y-113141252D01*
X157005000Y-112618748D02*
X157005000Y-113141252D01*
%TO.C,R34*%
X131627064Y-108465000D02*
X131172936Y-108465000D01*
X131627064Y-109935000D02*
X131172936Y-109935000D01*
%TO.C,C1*%
X165591252Y-89275000D02*
X165068748Y-89275000D01*
X165591252Y-87805000D02*
X165068748Y-87805000D01*
%TO.C,C15*%
X119805000Y-99498748D02*
X119805000Y-100021252D01*
X118335000Y-99498748D02*
X118335000Y-100021252D01*
%TO.C,C13*%
X118621252Y-88075000D02*
X118098748Y-88075000D01*
X118621252Y-89545000D02*
X118098748Y-89545000D01*
%TO.C,C3*%
X164831252Y-77635000D02*
X164308748Y-77635000D01*
X164831252Y-79105000D02*
X164308748Y-79105000D01*
%TO.C,U5*%
X148815000Y-87305000D02*
X146865000Y-87305000D01*
X148815000Y-78435000D02*
X145365000Y-78435000D01*
X148815000Y-87305000D02*
X150765000Y-87305000D01*
X148815000Y-78435000D02*
X150765000Y-78435000D01*
%TO.C,R38*%
X160827064Y-80195000D02*
X160372936Y-80195000D01*
X160827064Y-78725000D02*
X160372936Y-78725000D01*
%TO.C,R14*%
X119852936Y-103335000D02*
X120307064Y-103335000D01*
X119852936Y-104805000D02*
X120307064Y-104805000D01*
%TO.C,C20*%
X117698748Y-107185000D02*
X118221252Y-107185000D01*
X117698748Y-105715000D02*
X118221252Y-105715000D01*
%TO.C,C33*%
X121071252Y-85815000D02*
X120548748Y-85815000D01*
X121071252Y-87285000D02*
X120548748Y-87285000D01*
%TO.C,R8*%
X115772936Y-102555000D02*
X116227064Y-102555000D01*
X115772936Y-101085000D02*
X116227064Y-101085000D01*
D13*
%TO.C,D11*%
X171410000Y-121615000D02*
G75*
G03*
X171410000Y-121615000I-50000J0D01*
G01*
D12*
%TO.C,C27*%
X124005000Y-71481252D02*
X124005000Y-70958748D01*
X122535000Y-71481252D02*
X122535000Y-70958748D01*
%TO.C,C34*%
X133163752Y-94505000D02*
X132641248Y-94505000D01*
X133163752Y-95975000D02*
X132641248Y-95975000D01*
%TO.C,J2*%
X140940000Y-113065000D02*
X126940000Y-113065000D01*
X147940000Y-124710000D02*
X119940000Y-124710000D01*
X147940000Y-124710000D02*
X147940000Y-120710000D01*
X119940000Y-124710000D02*
X119940000Y-120710000D01*
%TO.C,L1*%
X163190000Y-82000000D02*
X165190000Y-82000000D01*
X165190000Y-79800000D02*
X163190000Y-79800000D01*
%TO.C,R12*%
X115792936Y-103355000D02*
X116247064Y-103355000D01*
X115792936Y-104825000D02*
X116247064Y-104825000D01*
%TO.C,C14*%
X120808748Y-95925000D02*
X121331252Y-95925000D01*
X120808748Y-97395000D02*
X121331252Y-97395000D01*
%TO.C,C7*%
X150388748Y-118475000D02*
X150911252Y-118475000D01*
X150388748Y-119945000D02*
X150911252Y-119945000D01*
%TO.C,R28*%
X137165000Y-91782936D02*
X137165000Y-92237064D01*
X135695000Y-91782936D02*
X135695000Y-92237064D01*
%TO.C,D1*%
X168320000Y-82010000D02*
X167670000Y-82010000D01*
X168320000Y-82010000D02*
X168970000Y-82010000D01*
X168320000Y-85130000D02*
X169995000Y-85130000D01*
X168320000Y-85130000D02*
X167670000Y-85130000D01*
%TO.C,C24*%
X156670000Y-85811252D02*
X156670000Y-85288748D01*
X155200000Y-85811252D02*
X155200000Y-85288748D01*
%TO.C,R30*%
X114242936Y-86005000D02*
X114697064Y-86005000D01*
X114242936Y-87475000D02*
X114697064Y-87475000D01*
%TO.C,FB1*%
X154875000Y-112638748D02*
X154875000Y-113161252D01*
X156345000Y-112638748D02*
X156345000Y-113161252D01*
%TO.C,R26*%
X116325000Y-82332936D02*
X116325000Y-82787064D01*
X114855000Y-82332936D02*
X114855000Y-82787064D01*
%TO.C,C21*%
X126278748Y-110165000D02*
X126801252Y-110165000D01*
X126278748Y-108695000D02*
X126801252Y-108695000D01*
%TO.C,TP1*%
X162750000Y-103410000D02*
G75*
G03*
X162750000Y-103410000I-700000J0D01*
G01*
%TO.C,D9*%
X114040000Y-79190000D02*
X114040000Y-77340000D01*
X114040000Y-77340000D02*
X112840000Y-77340000D01*
X112840000Y-79190000D02*
X112840000Y-77340000D01*
%TO.C,C22*%
X158850000Y-85298748D02*
X158850000Y-85821252D01*
X157380000Y-85298748D02*
X157380000Y-85821252D01*
%TO.C,G\u002A\u002A\u002A*%
G36*
X168142502Y-65753889D02*
G01*
X167739327Y-65753889D01*
X167739327Y-63738016D01*
X168142502Y-63738016D01*
X168142502Y-65753889D01*
G37*
G36*
X149381234Y-65169076D02*
G01*
X149366203Y-65191982D01*
X149315088Y-65195545D01*
X149261313Y-65183237D01*
X149284640Y-65165097D01*
X149363404Y-65159089D01*
X149381234Y-65169076D01*
G37*
G36*
X149025306Y-65317116D02*
G01*
X149018388Y-65347077D01*
X148991708Y-65350714D01*
X148950226Y-65332275D01*
X148958110Y-65317116D01*
X149017920Y-65311085D01*
X149025306Y-65317116D01*
G37*
G36*
X149126100Y-65216323D02*
G01*
X149119182Y-65246284D01*
X149092502Y-65249921D01*
X149051020Y-65231481D01*
X149058904Y-65216323D01*
X149118713Y-65210291D01*
X149126100Y-65216323D01*
G37*
G36*
X147900780Y-64905130D02*
G01*
X147882978Y-64720754D01*
X147930221Y-64388205D01*
X148061930Y-64063181D01*
X148263078Y-63769336D01*
X148518637Y-63530325D01*
X148714526Y-63411819D01*
X149019504Y-63314823D01*
X149362328Y-63288381D01*
X149710775Y-63330591D01*
X150032620Y-63439554D01*
X150137420Y-63495750D01*
X150300395Y-63594038D01*
X150204033Y-63782922D01*
X150033155Y-64051195D01*
X149790979Y-64336488D01*
X149516656Y-64598413D01*
X149376684Y-64731469D01*
X149287471Y-64840196D01*
X149255796Y-64912398D01*
X149288440Y-64935881D01*
X149335774Y-64923796D01*
X149515176Y-64836326D01*
X149738994Y-64697262D01*
X149979608Y-64525507D01*
X150209396Y-64339964D01*
X150278427Y-64278671D01*
X150424867Y-64153287D01*
X150543461Y-64067185D01*
X150615712Y-64033154D01*
X150627641Y-64037218D01*
X150606681Y-64093360D01*
X150514212Y-64190686D01*
X150364678Y-64317737D01*
X150172523Y-64463055D01*
X149952192Y-64615183D01*
X149718130Y-64762662D01*
X149697935Y-64774693D01*
X149476762Y-64898400D01*
X149329145Y-64962289D01*
X149248783Y-64968040D01*
X149229373Y-64917333D01*
X149232668Y-64898718D01*
X149222435Y-64853747D01*
X149207470Y-64855935D01*
X148983386Y-64965643D01*
X148823798Y-65051461D01*
X148741672Y-65106335D01*
X148736020Y-65112510D01*
X148668284Y-65151879D01*
X148590610Y-65173926D01*
X148489819Y-65202263D01*
X148440263Y-65231961D01*
X148462204Y-65249181D01*
X148479341Y-65249921D01*
X148534772Y-65287149D01*
X148538137Y-65305709D01*
X148500811Y-65337947D01*
X148449942Y-65327922D01*
X148394007Y-65315272D01*
X148415927Y-65348991D01*
X148499230Y-65383655D01*
X148676457Y-65418415D01*
X148940742Y-65452458D01*
X149285218Y-65484973D01*
X149703020Y-65515149D01*
X149940890Y-65529307D01*
X150562493Y-65563949D01*
X150231857Y-65905079D01*
X148449072Y-65905079D01*
X148272906Y-65710085D01*
X148110743Y-65478874D01*
X148040375Y-65325516D01*
X148235756Y-65325516D01*
X148260954Y-65350714D01*
X148286153Y-65325516D01*
X148260954Y-65300318D01*
X148235756Y-65325516D01*
X148040375Y-65325516D01*
X147981078Y-65196287D01*
X147900780Y-64905130D01*
G37*
G36*
X149034318Y-65018322D02*
G01*
X149088422Y-65069067D01*
X149077323Y-65098240D01*
X149070278Y-65098730D01*
X149027651Y-65062934D01*
X149012094Y-65040547D01*
X149006154Y-65006060D01*
X149034318Y-65018322D01*
G37*
G36*
X153193526Y-63787331D02*
G01*
X153208291Y-63931091D01*
X153218608Y-64163018D01*
X153224148Y-64476835D01*
X153225042Y-64695556D01*
X153225042Y-65653095D01*
X153804605Y-65653095D01*
X154062485Y-65657296D01*
X154252263Y-65669193D01*
X154361767Y-65687728D01*
X154384169Y-65703492D01*
X154335650Y-65725324D01*
X154197383Y-65741560D01*
X153980302Y-65751324D01*
X153754208Y-65753889D01*
X153124248Y-65753889D01*
X153124248Y-64745952D01*
X153126717Y-64375395D01*
X153133930Y-64083948D01*
X153145594Y-63877467D01*
X153161416Y-63761807D01*
X153174645Y-63738016D01*
X153193526Y-63787331D01*
G37*
G36*
X165773851Y-65753889D02*
G01*
X165370677Y-65753889D01*
X165370677Y-63738016D01*
X165773851Y-63738016D01*
X165773851Y-65753889D01*
G37*
G36*
X149730862Y-65065132D02*
G01*
X149723944Y-65095093D01*
X149697264Y-65098730D01*
X149655782Y-65080291D01*
X149663666Y-65065132D01*
X149723475Y-65059101D01*
X149730862Y-65065132D01*
G37*
G36*
X171905653Y-63738431D02*
G01*
X171970632Y-63748076D01*
X171997022Y-63779550D01*
X171981806Y-63845453D01*
X171921968Y-63958385D01*
X171814493Y-64130946D01*
X171656362Y-64375736D01*
X171650127Y-64385374D01*
X171317502Y-64899596D01*
X171317502Y-65753889D01*
X170914327Y-65753889D01*
X170914327Y-64901380D01*
X170561550Y-64342778D01*
X170430423Y-64133484D01*
X170321385Y-63956279D01*
X170244484Y-63827732D01*
X170209769Y-63764413D01*
X170208772Y-63761096D01*
X170253830Y-63747268D01*
X170367703Y-63739027D01*
X170433307Y-63738016D01*
X170545513Y-63740943D01*
X170624235Y-63761398D01*
X170690994Y-63816894D01*
X170767312Y-63924943D01*
X170867964Y-64091703D01*
X170969629Y-64258485D01*
X171053955Y-64388875D01*
X171106412Y-64460653D01*
X171113528Y-64467295D01*
X171152476Y-64436725D01*
X171226120Y-64336333D01*
X171321193Y-64184949D01*
X171362666Y-64113608D01*
X171576362Y-63738016D01*
X171805102Y-63738016D01*
X171905653Y-63738431D01*
G37*
G36*
X150805121Y-64641789D02*
G01*
X150805994Y-64657411D01*
X150760650Y-64703048D01*
X150636389Y-64768855D01*
X150450870Y-64846147D01*
X150339823Y-64886679D01*
X150089985Y-64971547D01*
X149923283Y-65022903D01*
X149842065Y-65040864D01*
X149848678Y-65025545D01*
X149945470Y-64977065D01*
X150134788Y-64895539D01*
X150176034Y-64878529D01*
X150375347Y-64795105D01*
X150550455Y-64718886D01*
X150671260Y-64663060D01*
X150692601Y-64652160D01*
X150777397Y-64616737D01*
X150805121Y-64641789D01*
G37*
G36*
X148580747Y-65219910D02*
G01*
X148634426Y-65266758D01*
X148638930Y-65278093D01*
X148615013Y-65298807D01*
X148565218Y-65252393D01*
X148558523Y-65242134D01*
X148552583Y-65207648D01*
X148580747Y-65219910D01*
G37*
G36*
X149135112Y-64967926D02*
G01*
X149188791Y-65014774D01*
X149193296Y-65026109D01*
X149169378Y-65046823D01*
X149119583Y-65000409D01*
X149112888Y-64990150D01*
X149106948Y-64955664D01*
X149135112Y-64967926D01*
G37*
G36*
X149509235Y-65267260D02*
G01*
X149510910Y-65283805D01*
X149432016Y-65290562D01*
X149420081Y-65290493D01*
X149341918Y-65283226D01*
X149349379Y-65267887D01*
X149358044Y-65265393D01*
X149467824Y-65258015D01*
X149509235Y-65267260D01*
G37*
G36*
X149193296Y-65123929D02*
G01*
X149168097Y-65149127D01*
X149142899Y-65123929D01*
X149168097Y-65098730D01*
X149193296Y-65123929D01*
G37*
G36*
X148823719Y-65317116D02*
G01*
X148816801Y-65347077D01*
X148790121Y-65350714D01*
X148748639Y-65332275D01*
X148756523Y-65317116D01*
X148816332Y-65311085D01*
X148823719Y-65317116D01*
G37*
G36*
X149327687Y-65065132D02*
G01*
X149320769Y-65095093D01*
X149294089Y-65098730D01*
X149252607Y-65080291D01*
X149260491Y-65065132D01*
X149320301Y-65059101D01*
X149327687Y-65065132D01*
G37*
G36*
X150746460Y-64316842D02*
G01*
X150748458Y-64357147D01*
X150686032Y-64418171D01*
X150551531Y-64505058D01*
X150337304Y-64622947D01*
X150139243Y-64724935D01*
X149913558Y-64836602D01*
X149758324Y-64908371D01*
X149677474Y-64939426D01*
X149674945Y-64928956D01*
X149754671Y-64876147D01*
X149920588Y-64780187D01*
X149949248Y-64764192D01*
X150150246Y-64648255D01*
X150351007Y-64525781D01*
X150494555Y-64432331D01*
X150622585Y-64354314D01*
X150716783Y-64315204D01*
X150746460Y-64316842D01*
G37*
G36*
X149580287Y-64969879D02*
G01*
X149546073Y-64997937D01*
X149454199Y-65040582D01*
X149420081Y-65046790D01*
X149411066Y-65025994D01*
X149445280Y-64997937D01*
X149537154Y-64955291D01*
X149571272Y-64949083D01*
X149580287Y-64969879D01*
G37*
G36*
X152503961Y-63775521D02*
G01*
X152736580Y-63886284D01*
X152900033Y-64067676D01*
X152971066Y-64235040D01*
X152990971Y-64354128D01*
X152968066Y-64390779D01*
X152916540Y-64345682D01*
X152854697Y-64229385D01*
X152751124Y-64045486D01*
X152613380Y-63929697D01*
X152417979Y-63867280D01*
X152247321Y-63848246D01*
X152067676Y-63841004D01*
X151950054Y-63854831D01*
X151856227Y-63900381D01*
X151749476Y-63986979D01*
X151565171Y-64202927D01*
X151454236Y-64449126D01*
X151412160Y-64709161D01*
X151434436Y-64966616D01*
X151516553Y-65205074D01*
X151654002Y-65408122D01*
X151842275Y-65559343D01*
X152076862Y-65642321D01*
X152207150Y-65653095D01*
X152452860Y-65605791D01*
X152663744Y-65464088D01*
X152839460Y-65228297D01*
X152954262Y-64972738D01*
X152983315Y-64904872D01*
X153000187Y-64930354D01*
X153010680Y-64985734D01*
X152994997Y-65116200D01*
X152924897Y-65282761D01*
X152818905Y-65451946D01*
X152695541Y-65590285D01*
X152660167Y-65619113D01*
X152493485Y-65695466D01*
X152274826Y-65735466D01*
X152047504Y-65735607D01*
X151854831Y-65692385D01*
X151839129Y-65685539D01*
X151611139Y-65527855D01*
X151443537Y-65304961D01*
X151341279Y-65035830D01*
X151309322Y-64739436D01*
X151352623Y-64434751D01*
X151448554Y-64190522D01*
X151607077Y-63958784D01*
X151802147Y-63814187D01*
X152051107Y-63746373D01*
X152206222Y-63738016D01*
X152503961Y-63775521D01*
G37*
G36*
X164084762Y-63738016D02*
G01*
X164347100Y-63738864D01*
X164529362Y-63743869D01*
X164652266Y-63756720D01*
X164736529Y-63781109D01*
X164802869Y-63820724D01*
X164870583Y-63877988D01*
X164999249Y-64052664D01*
X165035902Y-64252648D01*
X164978902Y-64458609D01*
X164926933Y-64541851D01*
X164816028Y-64691858D01*
X164921230Y-64748160D01*
X165052769Y-64870315D01*
X165120261Y-65044226D01*
X165123174Y-65243383D01*
X165060975Y-65441278D01*
X164938476Y-65606441D01*
X164879561Y-65656152D01*
X164814004Y-65690877D01*
X164722620Y-65713916D01*
X164586223Y-65728571D01*
X164385629Y-65738142D01*
X164132050Y-65745194D01*
X163455597Y-65761698D01*
X163455597Y-65401111D01*
X163858772Y-65401111D01*
X164226669Y-65401111D01*
X164435365Y-65392716D01*
X164587356Y-65369738D01*
X164655042Y-65340635D01*
X164706902Y-65229156D01*
X164707443Y-65086828D01*
X164658816Y-64967101D01*
X164639187Y-64946929D01*
X164552361Y-64911531D01*
X164398222Y-64879701D01*
X164210814Y-64858391D01*
X163858772Y-64833203D01*
X163858772Y-65401111D01*
X163455597Y-65401111D01*
X163455597Y-64544365D01*
X163858772Y-64544365D01*
X164107475Y-64544365D01*
X164282872Y-64534693D01*
X164435620Y-64510289D01*
X164481139Y-64496855D01*
X164590139Y-64419422D01*
X164642012Y-64336194D01*
X164639418Y-64209911D01*
X164547281Y-64115539D01*
X164373062Y-64057616D01*
X164155570Y-64040397D01*
X163858772Y-64040397D01*
X163858772Y-64544365D01*
X163455597Y-64544365D01*
X163455597Y-63738016D01*
X164084762Y-63738016D01*
G37*
G36*
X150453216Y-63817445D02*
G01*
X150417344Y-63890101D01*
X150321263Y-64010224D01*
X150182276Y-64160851D01*
X150017686Y-64325021D01*
X149844797Y-64485770D01*
X149680911Y-64626136D01*
X149543332Y-64729155D01*
X149490982Y-64760747D01*
X149385333Y-64815517D01*
X149362044Y-64822926D01*
X149414512Y-64782994D01*
X149445280Y-64760897D01*
X149640604Y-64603992D01*
X149863560Y-64398860D01*
X150080950Y-64177640D01*
X150259256Y-63972875D01*
X150371808Y-63843063D01*
X150437012Y-63795398D01*
X150453216Y-63817445D01*
G37*
G36*
X166479407Y-65401111D02*
G01*
X167487343Y-65401111D01*
X167487343Y-65753889D01*
X166076232Y-65753889D01*
X166076232Y-63738016D01*
X166479407Y-63738016D01*
X166479407Y-65401111D01*
G37*
G36*
X170007184Y-64040397D02*
G01*
X169402423Y-64040397D01*
X169402423Y-65753889D01*
X168948851Y-65753889D01*
X168948851Y-64040397D01*
X168344089Y-64040397D01*
X168344089Y-63738016D01*
X170007184Y-63738016D01*
X170007184Y-64040397D01*
G37*
G36*
X155452669Y-63741623D02*
G01*
X155668411Y-63751956D01*
X155802649Y-63768281D01*
X155845677Y-63788413D01*
X155797158Y-63810245D01*
X155658890Y-63826480D01*
X155441810Y-63836245D01*
X155215716Y-63838810D01*
X154585756Y-63838810D01*
X154585756Y-64645159D01*
X155190518Y-64645159D01*
X155455984Y-64649194D01*
X155652394Y-64660658D01*
X155768222Y-64678592D01*
X155795280Y-64695556D01*
X155746861Y-64717678D01*
X155609288Y-64734045D01*
X155394086Y-64743698D01*
X155190518Y-64745952D01*
X154585756Y-64745952D01*
X154585756Y-65653095D01*
X155240915Y-65653095D01*
X155521108Y-65656835D01*
X155730496Y-65667520D01*
X155858686Y-65684351D01*
X155896073Y-65703492D01*
X155847299Y-65724519D01*
X155707267Y-65740377D01*
X155485412Y-65750391D01*
X155191170Y-65753889D01*
X154484962Y-65753889D01*
X154484962Y-63738016D01*
X155165319Y-63738016D01*
X155452669Y-63741623D01*
G37*
G36*
X161137343Y-65753889D02*
G01*
X160784565Y-65753889D01*
X160783033Y-64985337D01*
X160779934Y-64714462D01*
X160772352Y-64499766D01*
X160761093Y-64354028D01*
X160746967Y-64290028D01*
X160739240Y-64292381D01*
X160712474Y-64366959D01*
X160668117Y-64519586D01*
X160611671Y-64730196D01*
X160548635Y-64978725D01*
X160527899Y-65063279D01*
X160358819Y-65758581D01*
X160158482Y-65743636D01*
X159958146Y-65728691D01*
X159584516Y-64267183D01*
X159579779Y-65013433D01*
X159575042Y-65759684D01*
X159365258Y-65744187D01*
X159155474Y-65728691D01*
X158546309Y-64836396D01*
X158365066Y-64573283D01*
X158201758Y-64340698D01*
X158065173Y-64150794D01*
X157964101Y-64015721D01*
X157907329Y-63947633D01*
X157899347Y-63941852D01*
X157887276Y-63988853D01*
X157876800Y-64120793D01*
X157868580Y-64321823D01*
X157863279Y-64576093D01*
X157861550Y-64846746D01*
X157858814Y-65193373D01*
X157850859Y-65462744D01*
X157838059Y-65648105D01*
X157820788Y-65742703D01*
X157811153Y-65753889D01*
X157792650Y-65704496D01*
X157778091Y-65560202D01*
X157767767Y-65326832D01*
X157761968Y-65010211D01*
X157760756Y-64742257D01*
X157761389Y-64397970D01*
X157764003Y-64141935D01*
X157769670Y-63961614D01*
X157779460Y-63844470D01*
X157794446Y-63777966D01*
X157815699Y-63749563D01*
X157844291Y-63746725D01*
X157845818Y-63747007D01*
X157898651Y-63791855D01*
X157997973Y-63907902D01*
X158134132Y-64082635D01*
X158297475Y-64303542D01*
X158478350Y-64558111D01*
X158538774Y-64645246D01*
X159146669Y-65527103D01*
X159160440Y-64630185D01*
X159174212Y-63733267D01*
X159487621Y-63748241D01*
X159801029Y-63763214D01*
X159972414Y-64406977D01*
X160037061Y-64642510D01*
X160093907Y-64836045D01*
X160137614Y-64970389D01*
X160162844Y-65028347D01*
X160165518Y-65029021D01*
X160185914Y-64974759D01*
X160226061Y-64842081D01*
X160280406Y-64650139D01*
X160343399Y-64418083D01*
X160352122Y-64385258D01*
X160517006Y-63763214D01*
X160827175Y-63748210D01*
X161137343Y-63733206D01*
X161137343Y-65753889D01*
G37*
G36*
X148933525Y-65119116D02*
G01*
X148987628Y-65169860D01*
X148976529Y-65199033D01*
X148969484Y-65199524D01*
X148926858Y-65163728D01*
X148911301Y-65141340D01*
X148905361Y-65106854D01*
X148933525Y-65119116D01*
G37*
G36*
X150783333Y-64986023D02*
G01*
X150770604Y-64999944D01*
X150696752Y-65037050D01*
X150549088Y-65083563D01*
X150353163Y-65131981D01*
X150241438Y-65155276D01*
X149975740Y-65204630D01*
X149793036Y-65233411D01*
X149696269Y-65242274D01*
X149688387Y-65231875D01*
X149772334Y-65202871D01*
X149951055Y-65155917D01*
X150092910Y-65122195D01*
X150320586Y-65068824D01*
X150520588Y-65020671D01*
X150666743Y-64984109D01*
X150722870Y-64968861D01*
X150794470Y-64954523D01*
X150783333Y-64986023D01*
G37*
G36*
X150705200Y-65301007D02*
G01*
X150655952Y-65342300D01*
X150511604Y-65372073D01*
X150277254Y-65389768D01*
X149957997Y-65394828D01*
X149854754Y-65393914D01*
X149319288Y-65386717D01*
X149898851Y-65346039D01*
X150141122Y-65327954D01*
X150355249Y-65309994D01*
X150515885Y-65294405D01*
X150591807Y-65284629D01*
X150679475Y-65282241D01*
X150705200Y-65301007D01*
G37*
G36*
X149582821Y-65118679D02*
G01*
X149567791Y-65141585D01*
X149516675Y-65145148D01*
X149462900Y-65132840D01*
X149486227Y-65114700D01*
X149564991Y-65108692D01*
X149582821Y-65118679D01*
G37*
G36*
X156387442Y-64708250D02*
G01*
X156539895Y-64337464D01*
X156661551Y-64059438D01*
X156753747Y-63871400D01*
X156817818Y-63770576D01*
X156848601Y-63750586D01*
X156890589Y-63799972D01*
X156960728Y-63929249D01*
X157052045Y-64123831D01*
X157157572Y-64369132D01*
X157232471Y-64553882D01*
X157343413Y-64833758D01*
X157447557Y-65096265D01*
X157536561Y-65320392D01*
X157602081Y-65485129D01*
X157627651Y-65549220D01*
X157673388Y-65681234D01*
X157672939Y-65742835D01*
X157645212Y-65753889D01*
X157596884Y-65710109D01*
X157530828Y-65595052D01*
X157460951Y-65433141D01*
X157457763Y-65424673D01*
X157334644Y-65095457D01*
X156836728Y-65109693D01*
X156338811Y-65123929D01*
X156212902Y-65438909D01*
X156143270Y-65597639D01*
X156081826Y-65710812D01*
X156041929Y-65753889D01*
X155997431Y-65722158D01*
X155996867Y-65716216D01*
X156014895Y-65660140D01*
X156065249Y-65525108D01*
X156142337Y-65325553D01*
X156240567Y-65075907D01*
X156277574Y-64983111D01*
X156400042Y-64983111D01*
X156446580Y-64989811D01*
X156570767Y-64994935D01*
X156749462Y-64997682D01*
X156828415Y-64997937D01*
X157021996Y-64993706D01*
X157170047Y-64982417D01*
X157249434Y-64966172D01*
X157256788Y-64958989D01*
X157238139Y-64892386D01*
X157184099Y-64740179D01*
X157097522Y-64510020D01*
X156981267Y-64209561D01*
X156895013Y-63990000D01*
X156870935Y-63944179D01*
X156843681Y-63940913D01*
X156805836Y-63991802D01*
X156749986Y-64108450D01*
X156668716Y-64302456D01*
X156622659Y-64416147D01*
X156535883Y-64632548D01*
X156464924Y-64811752D01*
X156417180Y-64934916D01*
X156400042Y-64983111D01*
X156277574Y-64983111D01*
X156354347Y-64790604D01*
X156387442Y-64708250D01*
G37*
G36*
X161390462Y-64383929D02*
G01*
X161495309Y-64128312D01*
X161645257Y-63929301D01*
X161706489Y-63878682D01*
X161877604Y-63800896D01*
X162107512Y-63753619D01*
X162357842Y-63740557D01*
X162590221Y-63765414D01*
X162666942Y-63785936D01*
X162885205Y-63907690D01*
X163055120Y-64101122D01*
X163171400Y-64346779D01*
X163228756Y-64625206D01*
X163221899Y-64916949D01*
X163145541Y-65202552D01*
X163085689Y-65326392D01*
X162917874Y-65526678D01*
X162685416Y-65667102D01*
X162409366Y-65740868D01*
X162110775Y-65741177D01*
X161923751Y-65701555D01*
X161740521Y-65606417D01*
X161564254Y-65447986D01*
X161430272Y-65259694D01*
X161408319Y-65213742D01*
X161340788Y-64954311D01*
X161336961Y-64673303D01*
X161736500Y-64673303D01*
X161750631Y-64911070D01*
X161826339Y-65132867D01*
X161964832Y-65313876D01*
X161991776Y-65336512D01*
X162107523Y-65381604D01*
X162273325Y-65397788D01*
X162442366Y-65384001D01*
X162551246Y-65349220D01*
X162679883Y-65225228D01*
X162764407Y-65021583D01*
X162799701Y-64751579D01*
X162800438Y-64701925D01*
X162792103Y-64512051D01*
X162759507Y-64382059D01*
X162691267Y-64271864D01*
X162671408Y-64247565D01*
X162495585Y-64106628D01*
X162292019Y-64055236D01*
X162081615Y-64097946D01*
X162051461Y-64112385D01*
X161888125Y-64249141D01*
X161782735Y-64444387D01*
X161736500Y-64673303D01*
X161336961Y-64673303D01*
X161336895Y-64668484D01*
X161390462Y-64383929D01*
G37*
%TO.C,D7*%
X123460000Y-77200000D02*
X122260000Y-77200000D01*
X123460000Y-79050000D02*
X123460000Y-77200000D01*
X122260000Y-79050000D02*
X122260000Y-77200000D01*
%TO.C,C30*%
X155516252Y-77795000D02*
X154993748Y-77795000D01*
X155516252Y-76325000D02*
X154993748Y-76325000D01*
%TO.C,C23*%
X134988748Y-104425000D02*
X135511252Y-104425000D01*
X134988748Y-105895000D02*
X135511252Y-105895000D01*
%TO.C,R24*%
X118515000Y-82352936D02*
X118515000Y-82807064D01*
X119985000Y-82352936D02*
X119985000Y-82807064D01*
%TO.C,C2*%
X147198748Y-90955000D02*
X147721252Y-90955000D01*
X147198748Y-92425000D02*
X147721252Y-92425000D01*
%TO.C,R13*%
X139192064Y-85225000D02*
X138737936Y-85225000D01*
X139192064Y-86695000D02*
X138737936Y-86695000D01*
%TO.C,C11*%
X141166252Y-77965000D02*
X140643748Y-77965000D01*
X141166252Y-79435000D02*
X140643748Y-79435000D01*
%TO.C,R16*%
X131282936Y-112035000D02*
X131737064Y-112035000D01*
X131282936Y-110565000D02*
X131737064Y-110565000D01*
%TO.C,U6*%
X118180000Y-90030000D02*
X114730000Y-90030000D01*
X118180000Y-95150000D02*
X120130000Y-95150000D01*
X118180000Y-90030000D02*
X120130000Y-90030000D01*
X118180000Y-95150000D02*
X116230000Y-95150000D01*
%TO.C,U1*%
X162620000Y-83830000D02*
X162620000Y-86280000D01*
X165840000Y-85630000D02*
X165840000Y-83830000D01*
%TO.C,D10*%
X114040000Y-80020000D02*
X112840000Y-80020000D01*
X112840000Y-81870000D02*
X112840000Y-80020000D01*
X114040000Y-81870000D02*
X114040000Y-80020000D01*
D13*
%TO.C,D3*%
X174560000Y-121595000D02*
G75*
G03*
X174560000Y-121595000I-50000J0D01*
G01*
D12*
%TO.C,R18*%
X130965000Y-106367064D02*
X130965000Y-105912936D01*
X132435000Y-106367064D02*
X132435000Y-105912936D01*
%TO.C,C26*%
X160158748Y-80895000D02*
X160681252Y-80895000D01*
X160158748Y-82365000D02*
X160681252Y-82365000D01*
%TO.C,R23*%
X119985000Y-78132936D02*
X119985000Y-78587064D01*
X118515000Y-78132936D02*
X118515000Y-78587064D01*
%TO.C,TP7*%
X140970000Y-93010000D02*
G75*
G03*
X140970000Y-93010000I-700000J0D01*
G01*
%TO.C,R39*%
X139077064Y-110705000D02*
X138622936Y-110705000D01*
X139077064Y-112175000D02*
X138622936Y-112175000D01*
%TO.C,J1*%
X161500000Y-93755000D02*
X165500000Y-93755000D01*
X165500000Y-93755000D02*
X165500000Y-100505000D01*
X165500000Y-100505000D02*
X161500000Y-100505000D01*
X161500000Y-100505000D02*
X161500000Y-93755000D01*
%TO.C,TP3*%
X134920000Y-62810000D02*
G75*
G03*
X134920000Y-62810000I-700000J0D01*
G01*
%TO.C,C28*%
X126355000Y-71431252D02*
X126355000Y-70908748D01*
X124885000Y-71431252D02*
X124885000Y-70908748D01*
%TO.C,U7*%
X126600000Y-108025000D02*
X124650000Y-108025000D01*
X126600000Y-99155000D02*
X123150000Y-99155000D01*
X126600000Y-108025000D02*
X128550000Y-108025000D01*
X126600000Y-99155000D02*
X128550000Y-99155000D01*
%TO.C,R15*%
X153957936Y-87865000D02*
X154412064Y-87865000D01*
X153957936Y-89335000D02*
X154412064Y-89335000D01*
%TO.C,C19*%
X122225000Y-107128748D02*
X122225000Y-107651252D01*
X120755000Y-107128748D02*
X120755000Y-107651252D01*
%TO.C,C16*%
X148573748Y-89315000D02*
X149096252Y-89315000D01*
X148573748Y-87845000D02*
X149096252Y-87845000D01*
%TO.C,C29*%
X137278748Y-98885000D02*
X137801252Y-98885000D01*
X137278748Y-97415000D02*
X137801252Y-97415000D01*
%TO.C,C25*%
X133695000Y-108581252D02*
X133695000Y-108058748D01*
X135165000Y-108581252D02*
X135165000Y-108058748D01*
%TO.C,C10*%
X124690000Y-65611248D02*
X124690000Y-66133752D01*
X126160000Y-65611248D02*
X126160000Y-66133752D01*
%TO.C,R29*%
X169675000Y-105092936D02*
X169675000Y-105547064D01*
X171145000Y-105092936D02*
X171145000Y-105547064D01*
%TO.C,R27*%
X113735000Y-98572936D02*
X113735000Y-99027064D01*
X115205000Y-98572936D02*
X115205000Y-99027064D01*
D10*
%TO.C,U2*%
X157445000Y-108715000D02*
X156770000Y-108715000D01*
X157445000Y-108715000D02*
X157445000Y-108040000D01*
X157445000Y-94365000D02*
X156770000Y-94365000D01*
X143095000Y-94365000D02*
X143095000Y-94940000D01*
X143095000Y-94365000D02*
X143770000Y-94365000D01*
X143095000Y-94940000D02*
X141820000Y-94940000D01*
X143095000Y-108715000D02*
X143095000Y-108040000D01*
X143095000Y-108715000D02*
X143770000Y-108715000D01*
X157445000Y-94365000D02*
X157445000Y-95040000D01*
D12*
%TO.C,TP2*%
X130510000Y-73200000D02*
G75*
G03*
X130510000Y-73200000I-700000J0D01*
G01*
D10*
%TO.C,U3*%
X158175000Y-116695000D02*
X158175000Y-120845000D01*
X166015000Y-116695000D02*
X166015000Y-115570000D01*
X167125000Y-120845000D02*
X166015000Y-120845000D01*
X158175000Y-116695000D02*
X159285000Y-116695000D01*
X167125000Y-116695000D02*
X167125000Y-120845000D01*
X158175000Y-120845000D02*
X159285000Y-120845000D01*
X166015000Y-116695000D02*
X167125000Y-116695000D01*
D12*
%TO.C,R37*%
X138592936Y-108615000D02*
X139047064Y-108615000D01*
X138592936Y-110085000D02*
X139047064Y-110085000D01*
%TO.C,C6*%
X159091252Y-122695000D02*
X158568748Y-122695000D01*
X159091252Y-124165000D02*
X158568748Y-124165000D01*
%TO.C,U4*%
X126885000Y-65672500D02*
X126885000Y-63722500D01*
X132005000Y-65672500D02*
X132005000Y-67622500D01*
X126885000Y-65672500D02*
X126885000Y-69122500D01*
X132005000Y-65672500D02*
X132005000Y-63722500D01*
%TO.C,R6*%
X150382936Y-114335000D02*
X150837064Y-114335000D01*
X150382936Y-115805000D02*
X150837064Y-115805000D01*
D13*
%TO.C,D4*%
X169906250Y-121615000D02*
G75*
G03*
X169906250Y-121615000I-50000J0D01*
G01*
D12*
%TO.C,R5*%
X150402936Y-116385000D02*
X150857064Y-116385000D01*
X150402936Y-117855000D02*
X150857064Y-117855000D01*
%TO.C,R10*%
X117425000Y-98987064D02*
X117425000Y-98532936D01*
X115955000Y-98987064D02*
X115955000Y-98532936D01*
%TO.C,C32*%
X136485000Y-66888748D02*
X136485000Y-67411252D01*
X135015000Y-66888748D02*
X135015000Y-67411252D01*
%TO.C,C5*%
X162618748Y-122625000D02*
X163141252Y-122625000D01*
X162618748Y-124095000D02*
X163141252Y-124095000D01*
%TO.C,R33*%
X128872936Y-93915000D02*
X129327064Y-93915000D01*
X128872936Y-92445000D02*
X129327064Y-92445000D01*
%TO.C,R36*%
X160202936Y-78235000D02*
X160657064Y-78235000D01*
X160202936Y-76765000D02*
X160657064Y-76765000D01*
%TO.C,D6*%
X161130000Y-110210000D02*
X159130000Y-110210000D01*
X161130000Y-110210000D02*
X161130000Y-114110000D01*
X159130000Y-110210000D02*
X159130000Y-114110000D01*
%TO.C,R11*%
X141340000Y-83612936D02*
X141340000Y-84067064D01*
X142810000Y-83612936D02*
X142810000Y-84067064D01*
%TO.C,D8*%
X123440000Y-80630000D02*
X122240000Y-80630000D01*
X122240000Y-82480000D02*
X122240000Y-80630000D01*
X123440000Y-82480000D02*
X123440000Y-80630000D01*
%TD*%
M02*
