%TF.GenerationSoftware,KiCad,Pcbnew,(6.0.10)*%
%TF.CreationDate,2023-02-03T08:49:19+00:00*%
%TF.ProjectId,Radar,52616461-722e-46b6-9963-61645f706362,rev?*%
%TF.SameCoordinates,Original*%
%TF.FileFunction,Soldermask,Top*%
%TF.FilePolarity,Negative*%
%FSLAX46Y46*%
G04 Gerber Fmt 4.6, Leading zero omitted, Abs format (unit mm)*
G04 Created by KiCad (PCBNEW (6.0.10)) date 2023-02-03 08:49:19*
%MOMM*%
%LPD*%
G01*
G04 APERTURE LIST*
G04 Aperture macros list*
%AMRoundRect*
0 Rectangle with rounded corners*
0 $1 Rounding radius*
0 $2 $3 $4 $5 $6 $7 $8 $9 X,Y pos of 4 corners*
0 Add a 4 corners polygon primitive as box body*
4,1,4,$2,$3,$4,$5,$6,$7,$8,$9,$2,$3,0*
0 Add four circle primitives for the rounded corners*
1,1,$1+$1,$2,$3*
1,1,$1+$1,$4,$5*
1,1,$1+$1,$6,$7*
1,1,$1+$1,$8,$9*
0 Add four rect primitives between the rounded corners*
20,1,$1+$1,$2,$3,$4,$5,0*
20,1,$1+$1,$4,$5,$6,$7,0*
20,1,$1+$1,$6,$7,$8,$9,0*
20,1,$1+$1,$8,$9,$2,$3,0*%
G04 Aperture macros list end*
%ADD10RoundRect,0.250000X-0.350000X-0.450000X0.350000X-0.450000X0.350000X0.450000X-0.350000X0.450000X0*%
%ADD11RoundRect,0.250000X-0.450000X0.350000X-0.450000X-0.350000X0.450000X-0.350000X0.450000X0.350000X0*%
%ADD12RoundRect,0.160000X0.160000X-0.222500X0.160000X0.222500X-0.160000X0.222500X-0.160000X-0.222500X0*%
%ADD13RoundRect,0.250000X-0.337500X-0.475000X0.337500X-0.475000X0.337500X0.475000X-0.337500X0.475000X0*%
%ADD14RoundRect,0.250000X0.350000X0.450000X-0.350000X0.450000X-0.350000X-0.450000X0.350000X-0.450000X0*%
%ADD15RoundRect,0.250000X0.337500X0.475000X-0.337500X0.475000X-0.337500X-0.475000X0.337500X-0.475000X0*%
%ADD16RoundRect,0.250000X0.450000X-0.350000X0.450000X0.350000X-0.450000X0.350000X-0.450000X-0.350000X0*%
%ADD17RoundRect,0.250000X-0.475000X0.337500X-0.475000X-0.337500X0.475000X-0.337500X0.475000X0.337500X0*%
%ADD18RoundRect,0.150000X-0.825000X-0.150000X0.825000X-0.150000X0.825000X0.150000X-0.825000X0.150000X0*%
%ADD19RoundRect,0.250000X-1.000000X1.750000X-1.000000X-1.750000X1.000000X-1.750000X1.000000X1.750000X0*%
%ADD20C,1.750000*%
%ADD21C,3.000000*%
%ADD22R,1.020000X1.780000*%
%ADD23RoundRect,0.150000X0.587500X0.150000X-0.587500X0.150000X-0.587500X-0.150000X0.587500X-0.150000X0*%
%ADD24RoundRect,0.250000X0.475000X-0.337500X0.475000X0.337500X-0.475000X0.337500X-0.475000X-0.337500X0*%
%ADD25C,1.000000*%
%ADD26R,0.650000X1.560000*%
%ADD27C,1.200000*%
%ADD28C,0.787000*%
%ADD29R,1.500000X0.550000*%
%ADD30R,0.550000X1.500000*%
%ADD31R,0.400000X1.200000*%
%ADD32RoundRect,0.150000X0.150000X-0.825000X0.150000X0.825000X-0.150000X0.825000X-0.150000X-0.825000X0*%
%ADD33R,1.200000X0.900000*%
G04 APERTURE END LIST*
D10*
%TO.C,R9*%
X141955000Y-80830000D03*
X143955000Y-80830000D03*
%TD*%
D11*
%TO.C,R2*%
X174650000Y-104320000D03*
X174650000Y-106320000D03*
%TD*%
D12*
%TO.C,D2*%
X172946250Y-120922500D03*
X172946250Y-119777500D03*
%TD*%
D13*
%TO.C,C9*%
X149532500Y-112970000D03*
X151607500Y-112970000D03*
%TD*%
%TO.C,C31*%
X133932500Y-100600000D03*
X136007500Y-100600000D03*
%TD*%
D11*
%TO.C,R1*%
X172530000Y-104320000D03*
X172530000Y-106320000D03*
%TD*%
D14*
%TO.C,R20*%
X136280000Y-102790000D03*
X134280000Y-102790000D03*
%TD*%
D11*
%TO.C,R4*%
X166170000Y-104320000D03*
X166170000Y-106320000D03*
%TD*%
%TO.C,R25*%
X115570000Y-77390000D03*
X115570000Y-79390000D03*
%TD*%
D15*
%TO.C,C4*%
X165077500Y-113560000D03*
X163002500Y-113560000D03*
%TD*%
D12*
%TO.C,D5*%
X168316250Y-120922500D03*
X168316250Y-119777500D03*
%TD*%
D16*
%TO.C,R19*%
X154025000Y-81210000D03*
X154025000Y-79210000D03*
%TD*%
D13*
%TO.C,C17*%
X137937500Y-88300000D03*
X140012500Y-88300000D03*
%TD*%
D10*
%TO.C,R7*%
X137935000Y-80890000D03*
X139935000Y-80890000D03*
%TD*%
D15*
%TO.C,C12*%
X139922500Y-83020000D03*
X137847500Y-83020000D03*
%TD*%
D13*
%TO.C,C18*%
X141917500Y-86890000D03*
X143992500Y-86890000D03*
%TD*%
D11*
%TO.C,R3*%
X168290000Y-104320000D03*
X168290000Y-106320000D03*
%TD*%
%TO.C,R21*%
X156325000Y-79270000D03*
X156325000Y-81270000D03*
%TD*%
%TO.C,R22*%
X131640000Y-99760000D03*
X131640000Y-101760000D03*
%TD*%
D16*
%TO.C,R17*%
X153675000Y-86520000D03*
X153675000Y-84520000D03*
%TD*%
D17*
%TO.C,C8*%
X157740000Y-111842500D03*
X157740000Y-113917500D03*
%TD*%
D15*
%TO.C,C1*%
X166377500Y-88330000D03*
X164302500Y-88330000D03*
%TD*%
D17*
%TO.C,C15*%
X119070000Y-98722500D03*
X119070000Y-100797500D03*
%TD*%
D15*
%TO.C,C13*%
X119127500Y-88840000D03*
X117052500Y-88840000D03*
%TD*%
%TO.C,C3*%
X165247500Y-78420000D03*
X163172500Y-78420000D03*
%TD*%
D18*
%TO.C,U5*%
X146340000Y-79060000D03*
X146340000Y-80330000D03*
X146340000Y-81600000D03*
X146340000Y-82870000D03*
X146340000Y-84140000D03*
X146340000Y-85410000D03*
X146340000Y-86680000D03*
X151290000Y-86680000D03*
X151290000Y-85410000D03*
X151290000Y-84140000D03*
X151290000Y-82870000D03*
X151290000Y-81600000D03*
X151290000Y-80330000D03*
X151290000Y-79060000D03*
%TD*%
D10*
%TO.C,R14*%
X119080000Y-104070000D03*
X121080000Y-104070000D03*
%TD*%
D13*
%TO.C,C20*%
X116922500Y-106450000D03*
X118997500Y-106450000D03*
%TD*%
D10*
%TO.C,R8*%
X115000000Y-101820000D03*
X117000000Y-101820000D03*
%TD*%
D12*
%TO.C,D11*%
X171360000Y-120922500D03*
X171360000Y-119777500D03*
%TD*%
D19*
%TO.C,C27*%
X129640000Y-73317500D03*
X129640000Y-81317500D03*
%TD*%
D20*
%TO.C,J2*%
X135190000Y-115065000D03*
X132690000Y-115065000D03*
X132690000Y-117065000D03*
X135190000Y-117065000D03*
D21*
X137940000Y-121555000D03*
X129940000Y-121555000D03*
%TD*%
D22*
%TO.C,L1*%
X163310000Y-80900000D03*
X165090000Y-80900000D03*
%TD*%
D10*
%TO.C,R12*%
X115020000Y-104090000D03*
X117020000Y-104090000D03*
%TD*%
D13*
%TO.C,C14*%
X120032500Y-96660000D03*
X122107500Y-96660000D03*
%TD*%
%TO.C,C7*%
X149612500Y-119210000D03*
X151687500Y-119210000D03*
%TD*%
D11*
%TO.C,R28*%
X136430000Y-91010000D03*
X136430000Y-93010000D03*
%TD*%
D23*
%TO.C,D1*%
X167382500Y-83570000D03*
X169257500Y-84520000D03*
X169257500Y-82620000D03*
%TD*%
D24*
%TO.C,C24*%
X155935000Y-86587500D03*
X155935000Y-84512500D03*
%TD*%
D17*
%TO.C,FB1*%
X155610000Y-111862500D03*
X155610000Y-113937500D03*
%TD*%
D11*
%TO.C,R26*%
X115590000Y-81560000D03*
X115590000Y-83560000D03*
%TD*%
D13*
%TO.C,C21*%
X125502500Y-109430000D03*
X127577500Y-109430000D03*
%TD*%
D25*
%TO.C,TP1*%
X162050000Y-103410000D03*
%TD*%
D17*
%TO.C,C22*%
X158115000Y-84522500D03*
X158115000Y-86597500D03*
%TD*%
D15*
%TO.C,C30*%
X156292500Y-77060000D03*
X154217500Y-77060000D03*
%TD*%
D13*
%TO.C,C23*%
X134212500Y-105160000D03*
X136287500Y-105160000D03*
%TD*%
D11*
%TO.C,R24*%
X119250000Y-81580000D03*
X119250000Y-83580000D03*
%TD*%
D13*
%TO.C,C2*%
X146422500Y-91690000D03*
X148497500Y-91690000D03*
%TD*%
D14*
%TO.C,R13*%
X139965000Y-85960000D03*
X137965000Y-85960000D03*
%TD*%
D15*
%TO.C,C11*%
X141942500Y-78700000D03*
X139867500Y-78700000D03*
%TD*%
D10*
%TO.C,R16*%
X130280000Y-109360000D03*
X132280000Y-109360000D03*
%TD*%
D18*
%TO.C,U6*%
X115705000Y-90685000D03*
X115705000Y-91955000D03*
X115705000Y-93225000D03*
X115705000Y-94495000D03*
X120655000Y-94495000D03*
X120655000Y-93225000D03*
X120655000Y-91955000D03*
X120655000Y-90685000D03*
%TD*%
D26*
%TO.C,U1*%
X163280000Y-86080000D03*
X164230000Y-86080000D03*
X165180000Y-86080000D03*
X165180000Y-83380000D03*
X163280000Y-83380000D03*
%TD*%
D12*
%TO.C,D3*%
X174510000Y-120902500D03*
X174510000Y-119757500D03*
%TD*%
D16*
%TO.C,R18*%
X131880000Y-107010000D03*
X131880000Y-105010000D03*
%TD*%
D13*
%TO.C,C26*%
X158517500Y-81780000D03*
X160592500Y-81780000D03*
%TD*%
D11*
%TO.C,R23*%
X119250000Y-77360000D03*
X119250000Y-79360000D03*
%TD*%
D27*
%TO.C,J1*%
X164516000Y-99585000D03*
X162484000Y-99585000D03*
X163500000Y-94505000D03*
D28*
X162865000Y-95775000D03*
X164135000Y-95775000D03*
X162865000Y-97045000D03*
X164135000Y-97045000D03*
X162865000Y-98315000D03*
X164135000Y-98315000D03*
%TD*%
D19*
%TO.C,C28*%
X129820000Y-87650000D03*
X129820000Y-95650000D03*
%TD*%
D18*
%TO.C,U7*%
X124125000Y-99780000D03*
X124125000Y-101050000D03*
X124125000Y-102320000D03*
X124125000Y-103590000D03*
X124125000Y-104860000D03*
X124125000Y-106130000D03*
X124125000Y-107400000D03*
X129075000Y-107400000D03*
X129075000Y-106130000D03*
X129075000Y-104860000D03*
X129075000Y-103590000D03*
X129075000Y-102320000D03*
X129075000Y-101050000D03*
X129075000Y-99780000D03*
%TD*%
D10*
%TO.C,R15*%
X153185000Y-88600000D03*
X155185000Y-88600000D03*
%TD*%
D17*
%TO.C,C19*%
X121490000Y-106352500D03*
X121490000Y-108427500D03*
%TD*%
D13*
%TO.C,C16*%
X147797500Y-88580000D03*
X149872500Y-88580000D03*
%TD*%
%TO.C,C29*%
X136502500Y-98150000D03*
X138577500Y-98150000D03*
%TD*%
D24*
%TO.C,C25*%
X134430000Y-109357500D03*
X134430000Y-107282500D03*
%TD*%
D17*
%TO.C,C10*%
X125425000Y-64835000D03*
X125425000Y-66910000D03*
%TD*%
D11*
%TO.C,R29*%
X170410000Y-104320000D03*
X170410000Y-106320000D03*
%TD*%
%TO.C,R27*%
X114470000Y-97800000D03*
X114470000Y-99800000D03*
%TD*%
D29*
%TO.C,U2*%
X142570000Y-95540000D03*
X142570000Y-96340000D03*
X142570000Y-97140000D03*
X142570000Y-97940000D03*
X142570000Y-98740000D03*
X142570000Y-99540000D03*
X142570000Y-100340000D03*
X142570000Y-101140000D03*
X142570000Y-101940000D03*
X142570000Y-102740000D03*
X142570000Y-103540000D03*
X142570000Y-104340000D03*
X142570000Y-105140000D03*
X142570000Y-105940000D03*
X142570000Y-106740000D03*
X142570000Y-107540000D03*
D30*
X144270000Y-109240000D03*
X145070000Y-109240000D03*
X145870000Y-109240000D03*
X146670000Y-109240000D03*
X147470000Y-109240000D03*
X148270000Y-109240000D03*
X149070000Y-109240000D03*
X149870000Y-109240000D03*
X150670000Y-109240000D03*
X151470000Y-109240000D03*
X152270000Y-109240000D03*
X153070000Y-109240000D03*
X153870000Y-109240000D03*
X154670000Y-109240000D03*
X155470000Y-109240000D03*
X156270000Y-109240000D03*
D29*
X157970000Y-107540000D03*
X157970000Y-106740000D03*
X157970000Y-105940000D03*
X157970000Y-105140000D03*
X157970000Y-104340000D03*
X157970000Y-103540000D03*
X157970000Y-102740000D03*
X157970000Y-101940000D03*
X157970000Y-101140000D03*
X157970000Y-100340000D03*
X157970000Y-99540000D03*
X157970000Y-98740000D03*
X157970000Y-97940000D03*
X157970000Y-97140000D03*
X157970000Y-96340000D03*
X157970000Y-95540000D03*
D30*
X156270000Y-93840000D03*
X155470000Y-93840000D03*
X154670000Y-93840000D03*
X153870000Y-93840000D03*
X153070000Y-93840000D03*
X152270000Y-93840000D03*
X151470000Y-93840000D03*
X150670000Y-93840000D03*
X149870000Y-93840000D03*
X149070000Y-93840000D03*
X148270000Y-93840000D03*
X147470000Y-93840000D03*
X146670000Y-93840000D03*
X145870000Y-93840000D03*
X145070000Y-93840000D03*
X144270000Y-93840000D03*
%TD*%
D31*
%TO.C,U3*%
X165507500Y-116170000D03*
X164872500Y-116170000D03*
X164237500Y-116170000D03*
X163602500Y-116170000D03*
X162967500Y-116170000D03*
X162332500Y-116170000D03*
X161697500Y-116170000D03*
X161062500Y-116170000D03*
X160427500Y-116170000D03*
X159792500Y-116170000D03*
X159792500Y-121370000D03*
X160427500Y-121370000D03*
X161062500Y-121370000D03*
X161697500Y-121370000D03*
X162332500Y-121370000D03*
X162967500Y-121370000D03*
X163602500Y-121370000D03*
X164237500Y-121370000D03*
X164872500Y-121370000D03*
X165507500Y-121370000D03*
%TD*%
D15*
%TO.C,C6*%
X159867500Y-123430000D03*
X157792500Y-123430000D03*
%TD*%
D32*
%TO.C,U4*%
X127540000Y-68147500D03*
X128810000Y-68147500D03*
X130080000Y-68147500D03*
X131350000Y-68147500D03*
X131350000Y-63197500D03*
X130080000Y-63197500D03*
X128810000Y-63197500D03*
X127540000Y-63197500D03*
%TD*%
D10*
%TO.C,R6*%
X149610000Y-115070000D03*
X151610000Y-115070000D03*
%TD*%
D12*
%TO.C,D4*%
X169856250Y-120922500D03*
X169856250Y-119777500D03*
%TD*%
D10*
%TO.C,R5*%
X149630000Y-117120000D03*
X151630000Y-117120000D03*
%TD*%
D16*
%TO.C,R10*%
X116690000Y-99760000D03*
X116690000Y-97760000D03*
%TD*%
D17*
%TO.C,C32*%
X135750000Y-66112500D03*
X135750000Y-68187500D03*
%TD*%
D13*
%TO.C,C5*%
X161842500Y-123360000D03*
X163917500Y-123360000D03*
%TD*%
D33*
%TO.C,D6*%
X160130000Y-110810000D03*
X160130000Y-114110000D03*
%TD*%
D11*
%TO.C,R11*%
X142075000Y-82840000D03*
X142075000Y-84840000D03*
%TD*%
M02*
