M48
; DRILL file {KiCad (6.0.10)} date Thu Mar  9 07:53:58 2023
; FORMAT={-:-/ absolute / metric / decimal}
; #@! TF.CreationDate,2023-03-09T07:53:58+00:00
; #@! TF.GenerationSoftware,Kicad,Pcbnew,(6.0.10)
; #@! TF.FileFunction,Plated,1,2,PTH
FMAT,2
METRIC
; #@! TA.AperFunction,Plated,PTH,ViaDrill
T1C0.400
; #@! TA.AperFunction,Plated,PTH,ComponentDrill
T2C0.991
; #@! TA.AperFunction,Plated,PTH,ComponentDrill
T3C1.000
; #@! TA.AperFunction,Plated,PTH,ComponentDrill
T4C2.300
%
G90
G05
T1
X117.28Y-78.66
X117.38Y-93.17
X117.82Y-81.98
X118.2Y-97.05
X118.33Y-87.43
X118.985Y-84.995
X120.66Y-75.89
X121.1Y-79.0
X122.03Y-102.31
X123.16Y-73.91
X123.22Y-93.18
X123.39Y-75.99
X123.62Y-68.79
X124.11Y-108.49
X125.62Y-73.61
X125.7Y-104.873
X125.91Y-97.92
X125.94Y-94.86
X126.99Y-91.53
X127.11Y-75.266
X127.6Y-64.81
X128.81Y-61.6
X129.01Y-110.64
X129.41Y-98.64
X130.41Y-70.07
X131.31Y-103.65
X131.35Y-61.46
X132.77Y-103.45
X133.91Y-98.64
X134.32Y-65.23
X134.58Y-93.05
X134.71Y-91.99
X136.07Y-71.9
X136.32Y-89.69
X136.39Y-81.8
X137.905Y-84.35
X138.076Y-105.74
X139.53Y-105.16
X140.038Y-69.88
X140.34Y-100.96
X143.485Y-82.47
X144.17Y-91.92
X144.266Y-95.5
X144.305Y-79.07
X144.49Y-106.59
X144.95Y-62.58
X144.99Y-98.39
X145.78Y-97.72
X146.205Y-88.35
X147.06Y-95.32
X149.02Y-73.74
X149.272Y-84.752
X149.33Y-79.84
X150.37Y-77.46
X150.383Y-96.096
X150.62Y-103.41
X150.66Y-107.55
X151.472Y-95.798
X151.665Y-88.63
X153.03Y-79.88
X153.05Y-95.52
X153.06Y-82.5
X153.91Y-113.95
X154.19Y-112.36
X154.33Y-83.03
X155.232Y-80.364
X156.0Y-105.94
X156.32Y-102.78
X157.97Y-81.57
X159.63Y-104.07
X159.76Y-84.96
X160.16Y-98.43
X160.68Y-97.28
X160.81Y-95.8
X160.9Y-119.15
X161.787Y-119.9
X163.513Y-115.057
X163.873Y-119.376
X164.25Y-117.47
X164.32Y-120.27
X164.375Y-106.075
X165.5Y-119.01
X166.02Y-96.32
X166.73Y-86.34
X167.08Y-122.28
X167.21Y-121.07
X168.39Y-88.54
X170.41Y-102.79
X175.89Y-105.15
T2
X162.484Y-99.585
X163.5Y-94.505
X164.516Y-99.585
T3
X132.69Y-115.065
X132.69Y-117.065
X135.19Y-115.065
X135.19Y-117.065
T4
X129.94Y-121.555
X137.94Y-121.555
T0
M30
