M48
; DRILL file {KiCad (6.0.10)} date Fri Feb  3 08:49:24 2023
; FORMAT={-:-/ absolute / metric / decimal}
; #@! TF.CreationDate,2023-02-03T08:49:24+00:00
; #@! TF.GenerationSoftware,Kicad,Pcbnew,(6.0.10)
; #@! TF.FileFunction,Plated,1,2,PTH
FMAT,2
METRIC
; #@! TA.AperFunction,Plated,PTH,ViaDrill
T1C0.400
; #@! TA.AperFunction,Plated,PTH,ComponentDrill
T2C0.991
; #@! TA.AperFunction,Plated,PTH,ComponentDrill
T3C1.000
; #@! TA.AperFunction,Plated,PTH,ComponentDrill
T4C2.300
%
G90
G05
T1
X112.53Y-65.746
X112.53Y-68.287
X112.53Y-70.829
X112.53Y-73.37
X112.53Y-75.911
X112.53Y-78.453
X112.53Y-80.994
X112.53Y-83.535
X112.53Y-86.077
X112.53Y-88.618
X112.53Y-91.159
X112.53Y-93.7
X112.53Y-96.242
X112.53Y-98.783
X112.53Y-101.324
X112.53Y-103.866
X112.53Y-106.407
X112.53Y-108.948
X112.53Y-111.49
X112.53Y-114.031
X112.53Y-116.572
X112.53Y-119.113
X112.83Y-63.244
X112.95Y-121.591
X113.589Y-102.576
X113.665Y-104.994
X114.147Y-75.443
X114.398Y-111.718
X114.399Y-71.713
X114.414Y-61.309
X114.67Y-123.406
X115.442Y-114.284
X115.484Y-106.029
X116.478Y-74.914
X116.495Y-108.024
X116.514Y-69.93
X116.514Y-109.93
X116.822Y-60.63
X117.008Y-80.676
X117.121Y-123.929
X117.38Y-93.17
X117.53Y-91.843
X117.82Y-81.98
X117.877Y-78.407
X118.19Y-94.123
X118.2Y-97.05
X118.204Y-114.07
X118.33Y-87.43
X118.829Y-90.765
X118.852Y-111.379
X118.859Y-71.398
X118.916Y-108.025
X118.985Y-84.995
X119.02Y-74.914
X119.363Y-60.63
X119.663Y-123.929
X119.833Y-85.915
X120.03Y-109.701
X120.66Y-75.89
X120.787Y-102.447
X120.873Y-98.158
X121.1Y-79.0
X121.193Y-64.302
X121.194Y-66.844
X121.194Y-69.385
X121.194Y-71.926
X121.194Y-74.468
X121.194Y-77.75
X121.194Y-82.786
X121.444Y-89.497
X121.623Y-100.075
X121.904Y-60.63
X122.03Y-102.31
X122.204Y-123.929
X122.425Y-110.043
X122.535Y-85.915
X122.725Y-62.386
X123.08Y-90.98
X123.145Y-70.685
X123.145Y-73.301
X123.145Y-79.527
X123.22Y-93.18
X123.39Y-75.99
X123.399Y-77.241
X123.43Y-98.63
X123.631Y-82.972
X123.679Y-66.09
X124.11Y-108.49
X124.129Y-110.278
X124.211Y-63.676
X124.241Y-75.014
X124.275Y-68.427
X124.446Y-60.63
X124.472Y-87.762
X124.632Y-80.605
X124.745Y-123.929
X124.922Y-97.151
X125.054Y-90.223
X125.371Y-82.555
X125.7Y-104.873
X125.897Y-76.965
X125.91Y-97.92
X125.91Y-84.094
X125.94Y-94.86
X126.03Y-92.47
X126.11Y-111.611
X126.123Y-86.654
X126.39Y-62.778
X126.39Y-68.956
X126.654Y-107.206
X126.857Y-75.014
X126.99Y-91.53
X127.005Y-88.861
X127.196Y-80.605
X127.207Y-104.447
X127.259Y-99.489
X127.266Y-101.987
X127.381Y-121.047
X127.539Y-73.08
X127.54Y-83.131
X127.6Y-64.81
X127.719Y-95.539
X127.834Y-70.539
X127.89Y-85.07
X128.084Y-90.554
X128.108Y-123.357
X128.111Y-78.597
X128.251Y-92.951
X128.461Y-76.965
X128.519Y-66.332
X128.593Y-111.824
X128.81Y-61.48
X128.915Y-119.157
X129.01Y-110.64
X129.41Y-98.64
X129.794Y-84.799
X130.054Y-61.35
X130.41Y-70.07
X130.648Y-90.554
X130.652Y-78.467
X130.654Y-110.91
X130.82Y-92.799
X131.025Y-76.965
X131.045Y-66.072
X131.07Y-115.672
X131.258Y-118.029
X131.35Y-61.46
X131.477Y-123.664
X131.74Y-80.409
X131.74Y-74.85
X131.74Y-82.972
X131.908Y-85.703
X131.921Y-88.266
X131.921Y-94.76
X131.922Y-113.514
X132.143Y-71.935
X132.274Y-69.969
X132.341Y-96.939
X132.549Y-121.476
X132.812Y-61.945
X132.83Y-103.304
X133.036Y-123.929
X133.085Y-110.815
X133.212Y-90.559
X133.218Y-65.832
X133.242Y-76.107
X133.364Y-119.205
X133.504Y-63.834
X133.644Y-93.887
X133.91Y-98.64
X133.917Y-67.806
X134.086Y-72.505
X134.209Y-112.825
X134.32Y-65.23
X134.58Y-93.05
X134.731Y-96.44
X134.905Y-91.616
X135.037Y-69.866
X135.055Y-74.294
X135.134Y-62.317
X135.159Y-81.573
X135.197Y-89.129
X135.415Y-84.071
X135.415Y-86.635
X135.503Y-110.622
X135.758Y-108.317
X135.853Y-119.346
X135.888Y-123.167
X136.07Y-71.9
X136.32Y-89.69
X136.39Y-81.8
X136.575Y-112.4
X136.575Y-94.614
X136.649Y-79.854
X136.919Y-115.118
X137.019Y-72.722
X137.304Y-76.536
X137.339Y-117.394
X137.442Y-96.572
X137.731Y-102.691
X137.736Y-107.566
X137.905Y-84.35
X137.959Y-105.264
X137.981Y-90.873
X137.981Y-93.374
X138.177Y-78.506
X138.41Y-99.984
X138.618Y-111.174
X139.139Y-94.524
X139.201Y-114.775
X139.583Y-101.962
X139.609Y-119.346
X139.618Y-123.538
X139.948Y-117.394
X140.038Y-69.88
X140.277Y-107.566
X140.336Y-105.614
X140.34Y-100.96
X140.531Y-121.227
X140.969Y-96.531
X140.969Y-99.526
X140.969Y-103.357
X141.159Y-111.174
X141.455Y-89.57
X141.526Y-115.329
X141.714Y-94.42
X141.84Y-120.182
X142.076Y-108.665
X142.207Y-61.604
X143.052Y-88.288
X143.144Y-93.25
X143.195Y-90.8
X143.379Y-78.129
X143.485Y-82.47
X143.506Y-123.929
X143.7Y-111.174
X143.894Y-114.775
X144.068Y-119.41
X144.17Y-91.92
X144.171Y-101.451
X144.179Y-104.111
X144.266Y-95.5
X144.305Y-79.07
X144.435Y-117.394
X144.49Y-106.59
X144.819Y-61.332
X144.95Y-62.58
X144.99Y-98.39
X145.502Y-77.743
X145.507Y-99.53
X145.698Y-105.614
X145.78Y-97.72
X145.968Y-89.581
X146.039Y-96.043
X146.106Y-123.929
X146.205Y-88.35
X146.242Y-111.174
X146.503Y-114.775
X146.623Y-119.346
X146.938Y-63.258
X146.956Y-65.807
X146.956Y-68.358
X147.036Y-107.566
X147.045Y-117.394
X147.06Y-95.32
X147.373Y-97.933
X147.406Y-70.089
X147.451Y-100.77
X147.982Y-104.668
X148.017Y-77.35
X148.125Y-72.269
X148.125Y-74.82
X148.157Y-79.339
X148.195Y-80.378
X148.21Y-115.854
X148.252Y-83.026
X148.464Y-120.437
X148.511Y-96.295
X148.707Y-123.929
X148.781Y-86.974
X148.783Y-111.174
X148.893Y-106.575
X149.291Y-99.852
X149.33Y-79.84
X149.343Y-102.663
X149.523Y-84.904
X149.987Y-78.031
X150.145Y-91.664
X150.265Y-62.175
X150.383Y-96.096
X150.562Y-97.654
X150.62Y-103.41
X150.66Y-107.55
X150.868Y-120.956
X151.033Y-90.14
X151.191Y-105.64
X151.307Y-123.929
X151.321Y-111.137
X151.472Y-95.798
X151.496Y-101.079
X151.665Y-88.63
X152.16Y-92.239
X152.28Y-107.309
X152.454Y-103.03
X152.456Y-77.786
X152.815Y-62.175
X153.036Y-98.255
X153.05Y-95.52
X153.095Y-117.891
X153.128Y-114.929
X153.196Y-120.374
X153.371Y-90.15
X153.378Y-75.599
X153.454Y-111.342
X153.557Y-104.965
X153.907Y-123.929
X153.91Y-113.95
X154.165Y-83.41
X154.19Y-112.36
X154.629Y-92.089
X154.996Y-101.079
X155.052Y-117.281
X155.09Y-103.031
X155.243Y-106.942
X155.365Y-62.175
X155.79Y-75.494
X155.84Y-90.111
X155.882Y-95.435
X156.0Y-105.94
X156.121Y-123.521
X156.129Y-104.691
X156.142Y-99.29
X156.32Y-102.78
X156.959Y-88.111
X157.059Y-118.712
X157.096Y-92.435
X157.336Y-121.601
X157.73Y-76.559
X157.835Y-83.37
X157.875Y-78.988
X157.896Y-94.414
X157.916Y-62.175
X158.561Y-109.844
X158.742Y-115.516
X158.762Y-120.586
X158.846Y-80.204
X159.246Y-112.585
X159.26Y-83.312
X159.367Y-108.378
X159.417Y-88.018
X159.57Y-100.341
X159.589Y-95.509
X159.63Y-104.07
X159.81Y-85.654
X160.16Y-98.43
X160.466Y-62.175
X160.68Y-97.28
X160.75Y-117.615
X160.81Y-95.8
X160.9Y-119.15
X161.045Y-99.774
X161.373Y-101.353
X161.477Y-78.808
X161.521Y-112.352
X161.612Y-83.43
X161.65Y-94.799
X161.787Y-119.9
X162.194Y-87.253
X162.377Y-76.666
X162.551Y-110.39
X162.835Y-89.56
X162.964Y-100.959
X163.017Y-62.175
X163.037Y-118.445
X163.068Y-93.115
X163.202Y-105.042
X163.306Y-102.91
X163.513Y-115.057
X163.873Y-119.376
X164.25Y-117.47
X164.32Y-120.27
X164.375Y-106.075
X164.524Y-110.344
X164.659Y-103.665
X164.79Y-76.849
X164.942Y-94.35
X165.044Y-90.231
X165.044Y-92.801
X165.044Y-101.215
X165.5Y-119.01
X165.567Y-62.175
X165.62Y-122.82
X166.02Y-96.32
X166.451Y-80.426
X166.685Y-77.965
X166.73Y-86.34
X166.866Y-82.404
X166.995Y-91.73
X166.995Y-94.35
X166.995Y-99.461
X167.002Y-102.065
X167.08Y-122.28
X167.133Y-123.929
X167.141Y-96.885
X167.21Y-121.07
X167.633Y-89.542
X167.714Y-85.493
X168.117Y-62.175
X168.39Y-88.54
X168.495Y-111.523
X168.589Y-114.041
X168.699Y-86.851
X168.888Y-81.469
X169.434Y-91.241
X169.434Y-93.861
X169.434Y-96.481
X169.434Y-99.101
X169.434Y-101.721
X169.452Y-73.03
X169.789Y-123.929
X169.97Y-70.66
X170.106Y-109.634
X170.119Y-122.152
X170.397Y-115.848
X170.41Y-102.79
X170.432Y-87.878
X170.442Y-114.284
X170.668Y-62.175
X170.845Y-82.486
X170.944Y-89.714
X171.3Y-74.6
X171.329Y-84.221
X171.385Y-92.137
X171.385Y-94.735
X171.385Y-97.332
X171.385Y-99.929
X171.623Y-102.465
X172.042Y-60.647
X172.204Y-117.656
X172.22Y-108.566
X172.268Y-86.041
X172.31Y-70.014
X172.482Y-63.952
X172.623Y-122.405
X173.132Y-82.418
X173.204Y-114.07
X173.555Y-73.705
X173.683Y-102.992
X173.864Y-65.93
X173.864Y-68.48
X173.864Y-71.031
X173.864Y-77.62
X173.864Y-80.171
X174.105Y-84.205
X174.247Y-118.528
X174.394Y-61.645
X174.515Y-108.734
X174.724Y-122.593
X174.825Y-111.163
X174.825Y-113.719
X174.825Y-116.275
X175.715Y-63.83
X175.825Y-119.839
X175.829Y-66.418
X175.829Y-69.015
X175.829Y-71.612
X175.829Y-74.209
X175.829Y-76.807
X175.829Y-79.404
X175.829Y-82.001
X175.829Y-84.598
X175.829Y-87.195
X175.829Y-89.793
X175.829Y-92.39
X175.829Y-94.987
X175.829Y-97.584
X175.829Y-100.181
X175.829Y-102.778
X175.89Y-105.15
T2
X162.484Y-99.585
X163.5Y-94.505
X164.516Y-99.585
T3
X132.69Y-115.065
X132.69Y-117.065
X135.19Y-115.065
X135.19Y-117.065
T4
X129.94Y-121.555
X137.94Y-121.555
T0
M30
